<?xml version="1.0" standalone="no"?>
<!DOCTYPE svg PUBLIC "-//W3C//DTD SVG 20010904//EN"
 "http://www.w3.org/TR/2001/REC-SVG-20010904/DTD/svg10.dtd">
<svg version="1.0" xmlns="http://www.w3.org/2000/svg"
 width="512.000000pt" height="512.000000pt" viewBox="0 0 512.000000 512.000000"
 preserveAspectRatio="xMidYMid meet">

<g transform="translate(0.000000,512.000000) scale(0.100000,-0.100000)"
fill="white" stroke="none">
<path d="M3956 5099 c-23 -18 -26 -28 -26 -80 l0 -59 -134 0 c-121 0 -136 -2
-161 -22 -27 -21 -27 -22 -23 -127 4 -127 29 -191 104 -271 55 -59 99 -88 168
-110 44 -15 51 -21 61 -56 19 -65 52 -119 100 -167 45 -46 152 -107 187 -107
17 0 18 -13 18 -209 l0 -209 -101 -4 c-92 -3 -103 -5 -120 -27 -26 -32 -24
-73 4 -99 23 -21 30 -22 294 -22 l272 0 20 26 c24 31 26 43 10 78 -16 34 -56
46 -150 46 l-79 0 0 209 0 209 33 7 c51 12 106 43 159 93 54 50 72 78 104 161
20 52 23 55 82 76 103 37 191 123 232 225 16 38 24 85 28 152 4 93 4 97 -21
122 -25 25 -29 26 -160 26 l-135 0 -4 61 c-7 103 10 99 -393 99 -331 0 -343
-1 -369 -21z m612 -406 c-3 -263 -4 -280 -25 -318 -58 -109 -178 -158 -297
-123 -56 17 -141 100 -155 153 -7 24 -11 144 -11 303 l0 262 246 0 245 0 -3
-277z m-638 -2 c0 -118 0 -119 -22 -113 -38 10 -125 103 -137 147 -23 84 -22
85 74 85 l85 0 0 -119z m956 78 c-12 -78 -60 -145 -128 -180 l-38 -19 0 120 0
120 86 0 87 0 -7 -41z"/>
<path d="M3306 4040 l-280 -17 -23 -27 c-26 -31 -28 -44 -12 -80 18 -38 50
-44 204 -34 77 5 155 8 174 6 31 -3 -117 -104 -1538 -1051 -1106 -737 -1575
-1055 -1583 -1073 -15 -32 5 -73 45 -92 22 -11 31 -10 59 4 17 9 733 484 1590
1055 857 572 1558 1036 1558 1033 0 -3 -38 -80 -85 -170 -47 -91 -85 -173 -85
-183 0 -10 9 -30 21 -45 27 -34 77 -36 106 -3 37 41 313 592 313 626 0 18 -9
40 -20 51 -24 24 -51 24 -444 0z"/>
<path d="M3895 3348 c-40 -21 -45 -38 -45 -150 0 -124 12 -148 73 -148 49 0
70 28 75 100 l4 60 324 0 324 0 0 -1530 0 -1530 -325 0 -325 0 -2 1339 c-3
1301 -4 1340 -22 1360 -25 27 -79 28 -106 1 -20 -20 -20 -33 -20 -1360 l0
-1340 -125 0 -125 0 -2 1180 -3 1179 -23 23 -23 23 -404 3 c-222 2 -419 -1
-437 -6 -23 -5 -38 -18 -50 -42 -17 -33 -18 -111 -18 -1197 l0 -1163 -125 0
-125 0 0 780 c0 767 0 780 -20 800 -19 19 -33 20 -453 20 -428 0 -434 0 -453
-21 -18 -20 -19 -50 -22 -800 l-2 -779 -125 0 -125 0 0 139 c0 139 0 140 -26
160 -33 26 -65 27 -95 2 -23 -18 -24 -26 -27 -160 l-4 -141 -324 0 -324 0 0
325 0 325 325 0 325 0 0 -45 c0 -55 15 -90 47 -104 36 -16 51 -14 78 14 24 23
25 31 25 133 0 166 44 152 -474 152 l-427 0 -24 -25 -25 -24 0 -376 0 -375
-55 0 c-46 0 -60 -4 -80 -25 -32 -31 -32 -69 0 -100 l24 -25 2391 0 2391 0 24
25 c14 13 25 36 25 50 0 14 -11 37 -25 50 -20 21 -34 25 -80 25 l-55 0 0 1570
c0 1151 -3 1576 -11 1594 -7 14 -25 30 -42 36 -42 14 -825 13 -852 -2z m-445
-2073 l0 -1125 -325 0 -325 0 0 1125 0 1125 325 0 325 0 0 -1125z m-1210 -400
l0 -725 -325 0 -325 0 0 725 0 725 325 0 325 0 0 -725z"/>
</g>
</svg>
