<?xml version="1.0" standalone="no"?>
<!DOCTYPE svg PUBLIC "-//W3C//DTD SVG 20010904//EN"
 "http://www.w3.org/TR/2001/REC-SVG-20010904/DTD/svg10.dtd">
<svg version="1.0" xmlns="http://www.w3.org/2000/svg"
 width="1280.000000pt" height="1280.000000pt" viewBox="0 0 1280.000000 1280.000000"
 preserveAspectRatio="xMidYMid meet">
<metadata>
Created by potrace 1.15, written by Peter Selinger 2001-2017
</metadata>
<g transform="translate(0.000000,1280.000000) scale(0.100000,-0.100000)"
fill="#fff" stroke="none">
<path d="M850 12785 c0 -16 54 -226 132 -515 27 -102 56 -210 64 -240 9 -30
26 -95 39 -145 37 -144 177 -646 236 -848 23 -78 45 -155 49 -172 7 -27 28
-97 145 -495 20 -69 45 -154 56 -190 19 -61 62 -204 124 -415 14 -49 46 -155
71 -235 24 -80 55 -181 69 -225 254 -837 536 -1701 610 -1870 64 -147 67 -156
61 -185 -3 -17 -19 -51 -36 -75 -16 -24 -30 -46 -30 -50 0 -3 -11 -23 -25 -45
-18 -29 -29 -67 -39 -139 -18 -128 -53 -179 -171 -246 -261 -147 -278 -159
-435 -291 -86 -73 -218 -204 -259 -259 -12 -16 -46 -55 -74 -85 -93 -98 -129
-149 -214 -305 -110 -201 -179 -370 -217 -538 -46 -198 -65 -535 -41 -732 20
-162 24 -183 91 -435 22 -81 34 -120 54 -165 10 -22 37 -83 60 -135 75 -172
213 -380 251 -380 6 0 8 -8 5 -18 -4 -12 2 -26 15 -38 12 -10 41 -46 65 -79
57 -79 239 -254 327 -314 12 -8 24 -17 27 -21 23 -27 271 -181 350 -217 168
-78 268 -113 465 -162 305 -76 635 -80 976 -11 81 17 247 63 300 84 12 5 25
-20 63 -131 159 -462 473 -889 871 -1189 444 -333 983 -514 1531 -514 558 0
1092 176 1532 505 124 93 316 276 424 405 192 228 363 537 457 821 l32 97 107
-35 c103 -34 243 -65 347 -78 166 -20 216 -23 365 -20 464 10 927 169 1295
446 112 84 129 99 238 207 375 369 613 873 658 1392 13 147 6 385 -16 525 -63
410 -241 801 -505 1110 -203 238 -410 400 -717 561 -178 93 -220 148 -248 320
-18 110 -31 142 -80 199 -47 53 -46 81 11 274 25 86 54 190 64 231 10 41 41
165 68 275 93 370 451 1809 482 1940 60 250 152 621 175 705 22 82 50 200 81
345 16 75 29 131 68 295 14 58 35 148 47 200 11 52 32 140 45 195 24 101 97
429 135 605 11 52 24 113 29 135 15 62 80 373 80 379 0 4 -230 5 -511 4 l-512
-3 -22 -95 c-12 -52 -34 -149 -49 -215 -28 -121 -65 -277 -155 -655 -27 -113
-63 -268 -81 -345 -18 -77 -43 -180 -56 -230 -13 -49 -74 -292 -134 -540 -61
-247 -112 -459 -115 -470 -8 -30 -94 -374 -104 -415 -5 -19 -54 -214 -110
-432 -55 -218 -101 -399 -101 -402 0 -10 -27 -7 -54 5 -24 11 -29 23 -76 194
-4 17 -18 62 -29 100 -29 95 -171 592 -181 630 -4 17 -33 116 -63 220 -31 105
-78 269 -106 365 -103 361 -184 646 -191 675 -4 17 -38 136 -74 265 -146 515
-206 743 -206 784 0 23 23 154 50 291 28 137 50 255 50 262 0 11 -125 13 -670
13 -368 0 -670 -3 -670 -7 0 -5 18 -78 39 -163 37 -152 38 -156 24 -215 -8
-33 -34 -150 -58 -261 -24 -110 -53 -236 -64 -280 -11 -43 -54 -223 -95 -399
-222 -950 -846 -3485 -874 -3549 -9 -21 -12 -10 -253 802 -465 1567 -938 3214
-1005 3501 -31 132 -30 138 20 376 20 94 36 176 36 183 0 9 -152 12 -726 12
-630 0 -725 -2 -721 -14 3 -8 13 -50 22 -93 23 -110 123 -510 140 -558 8 -22
26 -99 40 -171 30 -155 38 -96 -95 -649 -10 -44 -35 -150 -55 -235 -41 -174
-60 -256 -175 -725 -44 -181 -94 -382 -110 -445 -16 -63 -54 -214 -84 -335
-30 -121 -77 -308 -105 -415 -27 -107 -66 -258 -85 -335 -47 -184 -50 -189
-84 -180 -41 10 -48 21 -86 145 -19 63 -69 228 -111 365 -115 375 -144 472
-172 565 -40 134 -93 310 -112 375 -45 147 -154 514 -166 555 -19 68 -164 561
-175 595 -11 37 -232 806 -265 925 -21 78 -141 505 -165 593 l-11 37 -519 0
c-453 0 -520 -2 -520 -15z m7350 -2905 c1 14 17 -27 35 -90 18 -63 58 -203 90
-310 130 -442 179 -614 225 -775 26 -93 62 -215 78 -270 17 -55 66 -221 110
-370 131 -438 161 -535 197 -634 48 -130 47 -139 -25 -208 -69 -66 -90 -113
-109 -244 -22 -150 -66 -204 -256 -314 -236 -137 -362 -231 -521 -391 -173
-174 -308 -363 -423 -591 l-57 -112 -50 29 c-75 42 -140 111 -158 167 -8 27
-22 89 -31 138 -8 50 -20 106 -25 126 -13 47 -64 117 -96 131 -15 7 -23 17
-19 26 33 86 105 320 154 499 89 326 479 1870 681 2703 67 272 128 520 137
550 l16 55 22 -70 c15 -47 24 -62 25 -45z m-3620 -210 c16 -52 72 -243 125
-425 53 -181 123 -418 155 -525 32 -107 98 -325 145 -485 313 -1050 521 -1700
618 -1939 l40 -100 -22 -15 c-111 -78 -130 -116 -162 -321 -15 -98 -36 -146
-90 -198 -42 -40 -115 -91 -131 -92 -4 0 -37 59 -74 130 -44 86 -72 130 -83
130 -9 0 -27 21 -41 47 -40 76 -183 255 -284 356 -90 90 -221 201 -301 254
-22 15 -49 35 -60 44 -22 19 -59 41 -212 125 -56 31 -118 70 -137 86 -49 40
-95 138 -107 229 -11 79 -35 142 -66 174 -56 58 -58 122 -8 260 38 106 108
340 151 503 15 53 42 156 61 227 19 72 56 216 83 320 27 105 62 244 80 310 49
189 220 863 237 937 13 54 19 66 35 65 14 -1 25 -22 48 -97z m4491 -2561 c47
-21 64 -22 467 -23 229 0 478 3 553 8 121 8 137 7 152 -8 21 -21 22 -75 3
-121 -31 -73 -107 -84 -354 -51 -116 15 -179 18 -340 13 -108 -3 -240 -13
-292 -21 -131 -22 -195 -20 -246 5 -78 37 -105 142 -53 198 25 26 48 26 110 0z
m-6271 -48 c85 -4 250 -6 365 -5 686 11 635 15 635 -60 0 -51 -18 -78 -70
-105 -44 -23 -90 -26 -190 -11 -274 39 -534 41 -725 5 -113 -21 -215 -17 -245
10 -49 45 -61 132 -23 171 12 12 26 14 57 9 23 -3 111 -10 196 -14z m3626
-1094 c628 3 629 3 647 24 l17 21 14 -34 c27 -63 -8 -148 -69 -174 -46 -19
-80 -18 -264 8 -219 31 -536 31 -734 0 -232 -37 -308 -27 -340 41 -9 19 -17
55 -17 80 0 38 5 49 31 72 l32 26 27 -33 28 -33 628 2z m-4908 -2637 c17 -27
10 -25 -19 6 -13 14 -17 23 -9 19 9 -3 21 -14 28 -25z m-58 -5 c11 -13 10 -14
-4 -9 -9 3 -16 10 -16 15 0 13 6 11 20 -6z"/>
</g>
</svg>
