<?xml version="1.0" standalone="no"?>
<!DOCTYPE svg PUBLIC "-//W3C//DTD SVG 20010904//EN"
 "http://www.w3.org/TR/2001/REC-SVG-20010904/DTD/svg10.dtd">
<svg version="1.0" xmlns="http://www.w3.org/2000/svg"
 width="1280.000000pt" height="853.000000pt" viewBox="0 0 1280.000000 853.000000"
 preserveAspectRatio="xMidYMid meet">
<metadata>
Created by potrace 1.15, written by Peter Selinger 2001-2017
</metadata>
<g transform="translate(0.000000,853.000000) scale(0.100000,-0.100000)"
fill="#52CC52" stroke="none">
<path d="M10090 7354 c-446 -118 -689 -649 -510 -1114 41 -106 97 -190 186
-280 l74 -76 -101 -23 c-378 -85 -717 -277 -900 -509 -34 -42 -64 -80 -68 -85
-6 -6 -109 9 -119 18 -2 2 22 27 54 56 187 178 286 455 254 719 -15 121 -41
203 -98 315 -60 117 -190 252 -302 313 -117 64 -210 85 -355 80 -138 -6 -210
-26 -318 -89 -452 -267 -523 -951 -137 -1330 l67 -66 -101 -22 c-129 -29 -284
-81 -393 -131 -79 -37 -88 -39 -131 -30 l-47 10 85 88 c154 158 231 352 231
582 0 64 -6 146 -14 185 -76 360 -346 612 -678 632 -325 19 -614 -193 -729
-534 -30 -88 -34 -112 -38 -243 -5 -183 14 -276 90 -430 43 -87 66 -119 138
-192 72 -75 82 -89 65 -93 -104 -21 -256 -63 -330 -91 l-90 -34 -75 71 c-196
184 -493 332 -801 400 -57 13 -105 24 -107 25 -2 1 27 33 65 70 161 162 243
365 243 605 0 253 -88 462 -263 625 -133 124 -289 187 -467 187 -117 0 -198
-20 -310 -75 -70 -34 -102 -58 -180 -137 -78 -78 -105 -113 -142 -186 -177
-344 -119 -755 141 -1016 l77 -76 -66 -13 c-94 -18 -272 -73 -368 -113 l-82
-35 7 51 c5 29 7 111 7 182 -1 109 -6 144 -28 220 -67 225 -216 407 -411 500
-208 100 -464 83 -658 -44 -344 -226 -465 -700 -277 -1087 44 -91 136 -214
194 -258 20 -15 35 -30 33 -33 -3 -2 -43 -13 -89 -23 -213 -47 -467 -151 -628
-258 -201 -134 -344 -301 -426 -497 l-29 -70 -3 -392 -3 -393 368 -1 c202 0
376 -4 387 -8 14 -5 4 -14 -50 -38 -38 -17 -87 -36 -109 -43 -22 -7 -44 -16
-48 -20 -8 -7 17 -120 34 -151 8 -15 14 -15 76 -3 77 17 177 21 211 10 12 -4
34 -25 47 -46 36 -57 18 -106 -85 -228 l-62 -74 61 -60 60 -60 80 66 c128 103
168 116 231 74 55 -37 57 -63 23 -289 -5 -36 -5 -37 43 -53 27 -8 64 -17 82
-18 l34 -3 38 98 c21 53 50 113 65 132 24 32 30 35 79 35 44 0 56 -4 79 -27
27 -29 62 -102 92 -191 17 -53 18 -54 50 -48 56 11 135 36 135 44 0 4 -7 42
-15 85 -16 82 -19 156 -9 194 7 27 66 63 102 63 36 0 114 -47 185 -111 l59
-52 61 61 61 61 -19 25 c-11 13 -41 50 -68 82 -26 33 -54 78 -63 102 -16 40
-16 45 1 83 10 22 26 44 36 50 25 13 142 11 224 -5 39 -8 73 -12 76 -10 7 4
36 106 41 142 3 22 -6 27 -89 57 -102 36 -158 67 -173 95 -15 29 -12 93 7 119
17 25 125 79 202 102 23 7 45 19 48 26 6 14 -25 151 -36 157 -3 2 -37 -2 -76
-10 -74 -14 -175 -18 -213 -8 -23 7 -62 69 -62 99 0 28 42 99 102 172 l60 72
-27 35 c-14 19 -42 46 -60 61 l-34 26 -73 -62 c-79 -66 -135 -99 -168 -99 -35
0 -97 37 -104 62 -10 38 -6 118 9 203 8 44 15 81 15 82 0 5 -133 43 -150 43
-13 0 -26 -23 -50 -91 -17 -49 -46 -109 -64 -132 -29 -38 -37 -42 -80 -45 -31
-2 -56 2 -71 12 -26 17 -73 110 -101 199 -10 33 -23 57 -31 57 -34 0 -145 -34
-150 -46 -2 -7 3 -57 12 -110 23 -134 16 -177 -36 -211 -30 -20 -47 -24 -74
-20 -34 6 -113 57 -198 129 l-38 32 -61 -61 -61 -61 47 -54 c109 -120 135
-180 104 -240 -10 -21 -27 -42 -37 -48 -28 -14 -127 -12 -217 5 -43 8 -78 14
-79 12 -5 -5 -34 -105 -40 -133 l-6 -30 102 -39 c100 -38 169 -83 169 -111 0
-12 -59 -14 -360 -14 l-360 0 0 253 c0 138 5 282 10 318 38 266 254 516 586
682 165 83 390 151 583 177 51 7 94 18 96 24 2 6 6 30 9 54 5 35 3 44 -11 49
-10 3 -48 26 -85 50 -131 86 -231 229 -280 399 -29 102 -31 293 -4 394 95 357
413 571 735 495 167 -40 323 -170 405 -337 57 -115 76 -186 83 -308 7 -124
-13 -229 -71 -373 -25 -61 -44 -112 -43 -113 1 -1 49 25 107 58 126 73 241
125 373 167 101 32 324 81 373 81 43 0 52 10 59 65 l7 50 -59 29 c-36 19 -89
61 -140 112 -67 67 -89 98 -126 175 -63 131 -80 219 -75 377 4 104 10 141 32
207 38 111 98 208 176 285 184 181 444 224 669 110 164 -82 294 -256 341 -453
43 -178 21 -371 -62 -537 -53 -105 -171 -230 -261 -276 l-58 -29 7 -50 c3 -27
7 -51 9 -53 1 -1 49 -10 105 -18 391 -58 720 -209 938 -431 65 -66 99 -93 110
-90 9 3 57 22 106 42 107 44 317 98 442 115 l92 13 6 36 c10 64 8 70 -42 95
-111 56 -211 162 -276 293 -54 108 -68 165 -73 308 -5 111 -2 144 16 215 62
252 250 452 472 505 198 46 388 -13 544 -169 138 -139 205 -308 205 -515 0
-166 -36 -293 -117 -420 -49 -77 -148 -170 -222 -210 l-62 -33 7 -46 c3 -26 9
-50 13 -53 3 -4 56 -14 116 -23 61 -9 123 -20 140 -24 25 -7 47 0 130 39 164
78 409 148 575 166 68 7 80 20 80 86 0 29 -6 35 -58 62 -70 36 -194 158 -241
237 -18 32 -47 97 -64 145 -30 83 -32 96 -32 238 0 130 3 160 23 225 41 128
87 206 182 301 127 128 243 179 410 179 159 0 294 -56 410 -170 223 -220 280
-587 135 -869 -19 -36 -43 -79 -54 -96 -39 -57 -142 -152 -206 -190 l-64 -37
6 -47 c3 -25 10 -49 16 -52 5 -4 40 -10 77 -13 37 -4 113 -17 169 -30 l101
-23 55 82 c64 97 194 223 303 295 205 137 526 250 775 276 73 7 68 3 81 81 5
30 2 33 -52 64 -157 87 -270 236 -324 426 -29 101 -31 294 -5 393 44 168 159
334 290 420 184 121 440 121 624 0 131 -86 246 -252 290 -420 26 -99 24 -292
-5 -393 -55 -191 -166 -337 -328 -429 l-51 -28 8 -47 c5 -25 11 -48 14 -51 2
-3 48 -11 102 -19 536 -78 989 -361 1122 -703 16 -41 34 -102 40 -134 7 -40
11 -322 11 -848 l0 -788 -399 0 c-220 0 -406 3 -415 6 -62 24 53 119 246 205
43 19 78 39 78 45 0 23 -59 182 -75 202 -1 1 -64 -14 -139 -33 -205 -53 -253
-47 -307 36 -26 41 -30 55 -24 87 8 47 57 137 129 237 l56 79 -27 29 c-16 16
-54 49 -86 74 l-58 45 -97 -94 c-108 -105 -141 -130 -193 -147 -31 -10 -42 -8
-91 14 -36 16 -59 34 -67 52 -19 41 -24 164 -12 278 7 72 7 101 -1 106 -12 7
-92 24 -169 34 l-46 7 -23 -94 c-31 -128 -66 -219 -98 -257 -24 -28 -35 -32
-94 -38 l-66 -6 -44 46 c-30 31 -62 84 -104 171 -43 91 -64 126 -77 126 -18 0
-161 -53 -186 -69 -11 -7 -9 -24 12 -97 67 -238 64 -294 -22 -353 -49 -33 -51
-33 -100 -21 -55 13 -129 55 -235 131 l-68 51 -35 -34 c-19 -18 -53 -57 -75
-86 l-41 -53 100 -102 c151 -155 168 -192 127 -281 -24 -52 -29 -57 -76 -71
-61 -18 -124 -19 -255 -4 -74 8 -98 8 -103 -2 -8 -12 -25 -91 -35 -169 l-6
-45 103 -26 c137 -36 206 -63 246 -96 29 -25 33 -35 39 -94 l6 -66 -42 -40
c-43 -42 -133 -94 -239 -137 -67 -27 -68 -25 -20 29 17 20 16 22 -50 87 l-67
67 -70 -61 c-84 -72 -160 -118 -197 -118 -37 0 -98 38 -109 67 -13 36 -11 116
6 216 9 48 13 91 11 96 -5 7 -76 29 -147 45 -25 5 -28 2 -54 -72 -37 -102 -84
-191 -111 -209 -14 -9 -41 -13 -75 -11 -49 3 -56 6 -85 44 -17 23 -49 89 -70
147 -44 120 -29 113 -155 76 l-66 -19 18 -92 c20 -103 24 -184 10 -221 -11
-29 -72 -67 -108 -67 -41 0 -104 37 -191 110 l-79 68 -66 -66 -66 -67 71 -85
c69 -82 107 -147 108 -183 0 -32 -40 -98 -66 -107 -45 -18 -110 -13 -308 23
-11 2 -58 -149 -54 -172 2 -7 39 -26 83 -41 98 -33 160 -64 191 -95 29 -29 33
-107 8 -143 -19 -27 -101 -70 -207 -107 -88 -32 -83 -17 -50 -142 18 -71 12
-69 128 -48 85 15 165 19 203 9 25 -7 72 -79 72 -110 -1 -36 -37 -100 -108
-185 l-71 -86 66 -66 66 -66 71 61 c83 70 161 118 194 118 12 0 40 -9 61 -20
65 -33 75 -99 42 -268 l-18 -92 66 -19 c128 -37 114 -43 151 62 36 105 70 169
102 192 36 24 114 20 143 -9 29 -29 63 -97 100 -198 26 -74 29 -77 54 -72 71
16 142 38 147 45 2 5 -2 48 -11 96 -17 100 -19 180 -6 216 11 29 72 67 107 67
38 0 94 -32 186 -109 l85 -70 61 62 c34 35 62 66 62 71 0 5 -23 34 -50 66 -66
76 -120 167 -120 201 0 38 37 98 67 110 35 13 106 11 207 -7 49 -8 94 -13 101
-10 10 4 30 64 49 148 6 25 3 27 -61 49 -99 33 -165 64 -201 94 -29 24 -32 32
-32 84 0 47 4 61 23 78 30 28 105 65 200 98 59 21 76 32 73 44 -2 9 -12 47
-22 84 -10 38 -23 71 -29 73 -6 3 -51 -2 -99 -11 -101 -17 -174 -19 -209 -6
-29 11 -67 72 -67 109 0 28 42 106 84 157 23 27 26 28 32 10 22 -63 65 -172
72 -183 7 -10 31 -6 118 18 123 34 205 46 258 36 30 -6 43 -17 72 -61 36 -53
36 -56 25 -102 -15 -58 -45 -111 -123 -221 l-60 -83 23 -26 c13 -14 52 -48 87
-75 l63 -51 99 98 c151 151 193 170 281 131 43 -19 59 -32 70 -58 16 -37 19
-178 6 -300 l-8 -76 73 -16 c40 -8 91 -17 113 -20 l40 -5 27 102 c35 138 65
213 98 250 24 27 35 31 94 35 l67 4 43 -45 c28 -30 64 -91 102 -172 32 -68 64
-125 71 -125 14 0 172 57 191 69 10 6 7 30 -17 114 -34 121 -46 210 -37 261 5
27 18 43 58 71 45 33 55 36 92 31 51 -9 145 -59 243 -132 l75 -56 30 29 c16
15 50 55 74 87 l45 59 -99 101 c-99 102 -135 150 -147 196 -9 38 36 132 71
149 40 19 172 25 283 12 52 -6 97 -9 99 -6 5 5 27 113 36 176 l7 47 -93 22
c-107 26 -204 61 -244 87 l-27 17 24 7 c13 4 216 7 452 8 l427 1 0 884 c0 872
0 885 -21 952 -119 385 -525 694 -1071 816 l-108 24 66 64 c303 296 338 796
79 1139 -92 121 -254 229 -400 266 -75 19 -251 19 -325 -1z m28 -3528 c288
-78 486 -334 486 -631 0 -117 -19 -198 -69 -301 -41 -84 -140 -195 -222 -250
-260 -172 -607 -137 -826 83 -77 78 -130 164 -164 268 -33 101 -37 263 -9 364
70 258 279 441 551 485 49 7 196 -3 253 -18z m-7216 -57 c131 -27 268 -129
330 -245 53 -99 73 -244 47 -354 -52 -226 -283 -395 -514 -376 -230 18 -404
172 -452 399 -71 341 243 648 589 576z m5021 -1074 c273 -58 461 -329 419
-602 -31 -199 -167 -363 -355 -431 -100 -36 -250 -38 -350 -3 -378 129 -490
609 -208 890 132 132 311 185 494 146z"/>
<path d="M9854 3645 c-238 -52 -404 -290 -364 -524 39 -230 228 -391 459 -391
163 0 305 76 390 209 176 274 23 639 -296 706 -82 18 -109 18 -189 0z m203
-239 c49 -25 100 -83 117 -134 33 -96 14 -174 -59 -248 -96 -97 -222 -99 -325
-7 -134 121 -92 336 79 400 45 17 146 11 188 -11z"/>
<path d="M2709 3626 c-106 -28 -202 -114 -240 -215 -17 -45 -20 -72 -17 -141
5 -102 30 -163 98 -230 135 -136 340 -141 482 -12 131 119 155 305 57 451 -84
126 -238 186 -380 147z m172 -182 c62 -31 108 -120 95 -187 -8 -42 -41 -93
-79 -121 -42 -31 -141 -34 -191 -4 -77 45 -108 156 -66 238 44 86 152 119 241
74z"/>
<path d="M7682 2531 c-76 -28 -145 -83 -190 -151 -49 -73 -66 -139 -60 -240 8
-137 86 -253 213 -316 55 -26 69 -29 165 -29 95 0 110 3 160 28 76 39 153 117
187 191 24 53 28 73 28 156 0 83 -4 103 -28 156 -36 77 -113 154 -192 191 -80
37 -204 43 -283 14z m204 -182 c47 -14 95 -70 110 -128 48 -187 -168 -325
-312 -199 -86 75 -95 190 -22 274 61 69 123 84 224 53z"/>
<path d="M5747 3830 c-38 -10 -70 -20 -73 -22 -2 -3 3 -50 12 -105 21 -125 15
-167 -29 -193 -62 -38 -117 -19 -230 80 -25 22 -49 40 -53 40 -5 0 -32 -23
-61 -52 l-52 -51 58 -71 c95 -115 108 -154 71 -213 -14 -23 -29 -34 -57 -39
-34 -6 -162 6 -220 22 -19 5 -24 0 -37 -47 -32 -112 -34 -103 31 -123 65 -21
149 -61 176 -84 12 -10 17 -30 17 -63 0 -72 -40 -102 -199 -150 -23 -7 -45
-19 -48 -26 -3 -7 5 -45 16 -83 18 -57 25 -70 39 -66 85 25 220 33 253 16 23
-13 49 -61 49 -93 0 -27 -40 -93 -98 -160 -23 -27 -42 -54 -42 -60 0 -7 22
-35 50 -62 l50 -49 27 22 c91 74 147 112 179 122 32 11 39 9 74 -14 51 -34 58
-69 37 -195 -9 -53 -12 -100 -8 -104 9 -9 108 -37 134 -37 9 0 17 5 17 10 0
29 66 176 92 206 25 28 37 34 69 34 62 0 104 -53 145 -184 10 -32 24 -61 32
-63 7 -3 43 2 79 12 l65 18 -6 41 c-12 78 -19 194 -12 220 4 16 20 33 45 46
59 30 97 14 219 -89 l53 -45 56 56 55 55 -65 80 c-82 102 -96 141 -71 190 11
19 29 39 42 44 33 13 105 11 187 -5 39 -8 73 -11 77 -8 7 7 38 118 38 138 0 7
-24 20 -52 30 -69 22 -147 61 -175 87 -17 15 -23 32 -23 63 0 35 5 47 34 72
30 26 177 92 206 92 15 0 11 37 -9 100 -14 44 -21 55 -37 53 -10 -1 -57 -8
-104 -14 -47 -7 -103 -9 -123 -5 -32 6 -41 14 -60 52 l-22 45 28 52 c15 29 50
78 77 110 l50 58 -24 32 c-14 18 -39 43 -56 55 l-31 23 -35 -28 c-95 -76 -156
-113 -187 -113 -31 0 -73 21 -89 44 -11 16 -9 118 3 197 7 38 9 72 5 76 -3 4
-37 14 -74 24 -62 16 -68 16 -74 1 -4 -10 -21 -54 -38 -98 -41 -110 -65 -134
-129 -134 -42 0 -53 4 -74 30 -23 26 -87 174 -87 199 0 19 -15 19 -83 1z m335
-481 c137 -28 259 -126 321 -256 30 -65 32 -74 32 -188 0 -113 -2 -124 -31
-185 -87 -184 -285 -291 -481 -260 -179 29 -322 159 -368 335 -83 319 204 621
527 554z"/>
<path d="M5905 3217 c-90 -30 -162 -92 -206 -177 -33 -62 -34 -193 -3 -261
116 -252 464 -259 586 -11 19 39 23 63 23 142 0 87 -3 100 -30 149 -34 61 -87
110 -153 141 -56 27 -162 35 -217 17z m164 -167 c101 -51 117 -186 32 -263
-55 -50 -113 -58 -178 -26 -59 30 -84 64 -90 122 -7 59 1 88 34 128 50 59 132
75 202 39z"/>
<path d="M4197 3415 c-27 -7 -51 -15 -53 -18 -2 -2 0 -28 6 -57 15 -80 13
-156 -6 -174 -20 -21 -58 -30 -88 -22 -14 3 -55 31 -93 61 l-68 54 -42 -41
c-24 -23 -43 -45 -43 -48 0 -4 22 -34 48 -67 66 -82 80 -117 60 -152 -28 -47
-59 -55 -152 -40 -44 8 -85 14 -91 14 -5 0 -17 -27 -26 -61 l-17 -61 72 -28
c39 -15 86 -38 104 -52 29 -22 33 -29 30 -66 -4 -55 -36 -77 -195 -132 -8 -3
-8 -19 4 -62 8 -32 16 -59 18 -61 2 -2 39 2 82 9 107 16 145 8 169 -36 18 -34
18 -35 -3 -77 -11 -24 -40 -64 -63 -91 l-42 -47 26 -35 c47 -62 58 -62 131 -5
71 53 101 66 139 56 50 -13 59 -33 52 -120 -3 -45 -8 -93 -12 -107 -6 -27 -11
-25 107 -55 11 -3 19 8 28 38 17 55 55 131 74 147 9 7 34 11 58 9 52 -4 76
-33 109 -134 17 -50 26 -64 38 -60 10 3 39 10 65 17 43 10 48 14 42 33 -3 12
-9 60 -12 107 -5 81 -4 87 18 107 43 41 102 24 197 -59 18 -16 36 -29 40 -29
4 0 27 20 51 43 l42 44 -45 53 c-76 89 -89 135 -52 185 11 16 26 20 73 20 32
0 82 -4 110 -8 51 -9 53 -8 63 18 5 14 13 43 16 63 l5 37 -74 28 c-102 37
-127 59 -127 106 0 24 7 44 18 53 22 20 87 52 137 68 22 7 43 15 47 19 3 3 -2
33 -13 67 l-19 61 -80 -15 c-105 -19 -146 -11 -167 32 -22 46 -13 71 53 156
l56 71 -47 46 -47 45 -37 -35 c-51 -49 -112 -87 -138 -87 -37 0 -73 22 -80 48
-6 27 2 168 12 194 7 17 -2 20 -96 43 -24 6 -27 2 -48 -57 -13 -35 -34 -80
-47 -100 -22 -35 -28 -38 -68 -38 -55 0 -74 21 -113 126 -16 41 -32 73 -38 73
-5 0 -32 -7 -58 -14z m358 -419 c77 -35 147 -104 181 -179 26 -55 29 -73 29
-157 0 -88 -3 -101 -33 -162 -64 -131 -179 -201 -327 -201 -104 0 -176 27
-250 94 -78 72 -108 139 -113 253 -3 75 0 101 18 148 39 104 147 200 257 228
63 16 176 5 238 -24z"/>
<path d="M4347 2919 c-85 -20 -146 -72 -185 -158 -43 -94 -19 -213 60 -288
140 -134 379 -73 433 111 20 67 19 105 -5 170 -23 59 -87 128 -143 151 -46 19
-116 25 -160 14z m138 -151 c29 -23 55 -74 55 -109 0 -36 -32 -90 -64 -110
-17 -10 -48 -19 -69 -19 -132 0 -185 157 -81 239 38 30 121 29 159 -1z"/>
<path d="M4990 2705 c-6 -8 -10 -19 -8 -24 1 -6 8 1 15 14 13 28 11 31 -7 10z"/>
</g>
</svg>
