<?xml version="1.0" standalone="no"?>
<!DOCTYPE svg PUBLIC "-//W3C//DTD SVG 20010904//EN"
 "http://www.w3.org/TR/2001/REC-SVG-20010904/DTD/svg10.dtd">
<svg version="1.0" xmlns="http://www.w3.org/2000/svg"
 width="512.000000pt" height="512.000000pt" viewBox="0 0 512.000000 512.000000"
 preserveAspectRatio="xMidYMid meet">

<g transform="translate(0.000000,512.000000) scale(0.100000,-0.100000)"
fill="white" stroke="none">
<path d="M1875 4870 c-145 -27 -271 -94 -381 -204 -90 -90 -144 -177 -179
-289 l-23 -72 -44 5 c-23 3 -92 4 -153 4 -191 -3 -340 -67 -481 -208 -90 -90
-143 -175 -182 -294 -22 -66 -25 -96 -26 -207 -1 -110 3 -142 23 -205 13 -41
30 -88 38 -103 14 -28 13 -29 -56 -98 -225 -222 -227 -571 -5 -793 78 -77 190
-138 288 -155 33 -6 184 -11 338 -11 l279 0 24 25 c30 29 32 74 6 106 l-19 24
-309 5 -309 5 -76 37 c-91 45 -147 103 -191 196 -29 61 -32 76 -32 163 0 90 2
99 37 171 24 47 55 91 83 117 l46 42 64 -60 c76 -71 168 -124 273 -159 63 -20
98 -25 192 -26 115 -1 117 -1 192 36 91 45 147 103 191 196 29 61 32 76 32
163 0 90 -2 99 -37 171 -45 91 -103 147 -196 191 -61 29 -76 32 -162 32 -98 0
-166 -20 -212 -62 -29 -26 -24 -87 8 -112 33 -26 46 -26 112 -1 101 38 181 21
257 -55 52 -51 75 -102 75 -165 0 -63 -23 -114 -75 -165 -53 -54 -102 -75
-172 -75 -264 0 -506 212 -545 479 -52 353 244 669 596 637 111 -9 112 -10
125 -73 25 -125 108 -229 229 -286 61 -29 76 -32 162 -32 86 0 101 3 162 32
93 44 151 100 196 191 35 72 37 81 37 171 -1 79 -5 106 -24 149 -40 89 -98
116 -146 67 -30 -29 -31 -54 -5 -123 38 -101 21 -181 -55 -257 -51 -52 -102
-75 -165 -75 -63 0 -114 23 -165 75 -73 72 -88 138 -64 271 39 216 234 407
453 445 200 34 414 -48 535 -205 l41 -53 0 -322 0 -322 25 -24 c15 -16 36 -25
55 -25 19 0 40 9 55 25 l25 24 0 322 0 322 41 53 c202 261 596 284 833 48 128
-128 194 -330 154 -468 -16 -55 -99 -138 -154 -154 -94 -28 -169 -8 -239 63
-76 76 -93 156 -55 257 26 69 25 94 -5 123 -48 49 -106 22 -146 -67 -19 -43
-23 -70 -24 -148 0 -86 3 -101 32 -162 44 -93 100 -151 191 -196 72 -35 81
-37 171 -37 87 0 102 3 163 32 121 57 204 161 229 286 13 63 14 64 125 73 353
32 648 -284 596 -637 -39 -267 -281 -479 -545 -479 -70 0 -119 21 -172 75
-102 101 -102 229 0 330 76 76 156 93 257 55 66 -25 79 -25 112 1 32 25 37 86
8 112 -46 42 -114 62 -212 62 -86 0 -101 -3 -162 -32 -93 -44 -151 -100 -196
-191 -35 -72 -37 -81 -37 -171 0 -87 3 -102 32 -163 44 -93 100 -151 191 -196
75 -37 77 -37 192 -36 94 1 129 6 192 26 105 35 197 88 273 159 l64 60 46 -42
c28 -26 59 -70 83 -117 35 -72 37 -81 37 -171 0 -87 -3 -102 -32 -163 -44 -93
-100 -151 -191 -196 l-76 -37 -309 -5 -309 -5 -19 -24 c-26 -32 -24 -77 6
-106 l24 -25 279 0 c154 0 305 5 338 11 98 17 210 78 288 155 222 222 220 571
-5 793 -69 69 -70 70 -56 98 8 15 25 62 38 103 20 63 24 95 23 205 -1 111 -4
141 -26 207 -39 119 -92 204 -182 294 -141 141 -290 205 -481 208 -60 0 -130
-1 -153 -4 l-44 -5 -23 72 c-35 112 -89 199 -179 289 -90 90 -175 143 -294
182 -67 22 -94 26 -212 26 -118 0 -145 -4 -212 -26 -108 -36 -199 -89 -279
-165 l-69 -65 -68 63 c-135 127 -280 188 -462 194 -58 2 -127 0 -155 -5z"/>
<path d="M1065 4615 c-50 -49 -15 -135 55 -135 41 0 80 39 80 80 0 41 -39 80
-80 80 -19 0 -40 -9 -55 -25z"/>
<path d="M3945 4615 c-16 -15 -25 -36 -25 -55 0 -19 9 -40 25 -55 15 -16 36
-25 55 -25 19 0 40 9 55 25 16 15 25 36 25 55 0 19 -9 40 -25 55 -15 16 -36
25 -55 25 -19 0 -40 -9 -55 -25z"/>
<path d="M2185 3575 c-24 -23 -25 -29 -25 -160 l0 -135 -56 0 c-87 0 -133 -18
-189 -75 -57 -56 -75 -102 -75 -189 l0 -56 -135 0 c-131 0 -137 -1 -160 -25
-33 -32 -33 -78 0 -110 23 -24 29 -25 160 -25 l135 0 0 -80 0 -80 -135 0
c-131 0 -137 -1 -160 -25 -33 -32 -33 -78 0 -110 23 -24 29 -25 160 -25 l135
0 0 -80 0 -80 -135 0 c-131 0 -137 -1 -160 -25 -33 -32 -33 -78 0 -110 23 -24
29 -25 160 -25 l135 0 0 -56 c0 -87 18 -133 75 -189 56 -57 102 -75 189 -75
l56 0 0 -135 c0 -131 1 -137 25 -160 15 -16 36 -25 55 -25 19 0 40 9 55 25 24
23 25 29 25 160 l0 135 80 0 80 0 0 -135 c0 -131 1 -137 25 -160 32 -33 78
-33 110 0 24 23 25 29 25 160 l0 135 80 0 80 0 0 -135 c0 -131 1 -137 25 -160
32 -33 78 -33 110 0 24 23 25 29 25 160 l0 135 58 0 c87 0 144 23 195 80 49
55 67 103 67 184 l0 56 135 0 c131 0 137 1 160 25 33 32 33 78 0 110 -23 24
-29 25 -160 25 l-135 0 0 80 0 80 135 0 c131 0 137 1 160 25 33 32 33 78 0
110 -23 24 -29 25 -160 25 l-135 0 0 80 0 80 135 0 c131 0 137 1 160 25 33 32
33 78 0 110 -23 24 -29 25 -160 25 l-135 0 0 56 c0 81 -18 129 -67 184 -51 57
-108 80 -195 80 l-58 0 0 135 c0 131 -1 137 -25 160 -15 16 -36 25 -55 25 -19
0 -40 -9 -55 -25 -24 -23 -25 -29 -25 -160 l0 -135 -80 0 -80 0 0 135 c0 131
-1 137 -25 160 -15 16 -36 25 -55 25 -19 0 -40 -9 -55 -25 -24 -23 -25 -29
-25 -160 l0 -135 -80 0 -80 0 0 135 c0 131 -1 137 -25 160 -15 16 -36 25 -55
25 -19 0 -40 -9 -55 -25z m910 -480 l25 -24 0 -511 0 -511 -25 -24 -24 -25
-511 0 -511 0 -24 25 -25 24 0 511 0 511 25 24 24 25 511 0 511 0 24 -25z"/>
<path d="M2265 2855 l-25 -24 0 -271 0 -271 25 -24 24 -25 271 0 271 0 24 25
25 24 0 271 0 271 -25 24 -24 25 -271 0 -271 0 -24 -25z m455 -295 l0 -160
-160 0 -160 0 0 160 0 160 160 0 160 0 0 -160z"/>
<path d="M585 2055 c-23 -23 -25 -31 -25 -130 0 -89 -2 -105 -16 -105 -27 0
-119 -101 -132 -146 -28 -94 -8 -169 63 -239 102 -103 243 -101 338 5 63 70
81 146 55 232 -14 48 -90 136 -124 144 -21 5 -24 12 -24 55 l0 49 295 0 296 0
24 25 c16 15 25 36 25 55 0 19 -9 40 -25 55 l-24 25 -351 0 -351 0 -24 -25z
m110 -400 c16 -15 25 -36 25 -55 0 -19 -9 -40 -25 -55 -49 -50 -135 -15 -135
55 0 41 39 80 80 80 19 0 40 -9 55 -25z"/>
<path d="M3785 2055 c-16 -15 -25 -36 -25 -55 0 -19 9 -40 25 -55 l24 -25 296
0 295 0 0 -50 c0 -39 -4 -50 -16 -50 -27 0 -119 -101 -132 -146 -28 -94 -8
-169 63 -239 102 -103 243 -101 338 5 63 70 81 146 55 232 -14 48 -90 136
-124 144 -23 6 -24 9 -24 111 0 97 -2 106 -25 128 l-24 25 -351 0 -351 0 -24
-25z m750 -400 c50 -49 15 -135 -55 -135 -41 0 -80 39 -80 80 0 41 39 80 80
80 19 0 40 -9 55 -25z"/>
<path d="M1545 2015 c-24 -24 -25 -28 -25 -180 l0 -155 -215 0 c-286 0 -265
18 -265 -235 0 -161 -2 -185 -16 -185 -27 0 -119 -101 -132 -146 -28 -94 -8
-169 63 -239 102 -103 243 -101 338 5 63 70 81 146 55 232 -14 48 -90 136
-124 144 -24 6 -24 7 -24 135 l0 129 215 0 c288 0 265 -22 265 260 0 211 0
211 -25 235 -15 16 -36 25 -55 25 -19 0 -40 -9 -55 -25z m-370 -920 c16 -15
25 -36 25 -55 0 -19 -9 -40 -25 -55 -15 -16 -36 -25 -55 -25 -19 0 -40 9 -55
25 -16 15 -25 36 -25 55 0 19 9 40 25 55 15 16 36 25 55 25 19 0 40 -9 55 -25z"/>
<path d="M3465 2015 c-25 -24 -25 -24 -25 -235 0 -282 -23 -260 265 -260 l215
0 0 -130 c0 -111 -2 -130 -16 -130 -27 0 -119 -101 -132 -146 -28 -94 -8 -169
63 -239 102 -103 243 -101 338 5 63 70 81 146 55 232 -14 48 -90 136 -124 144
l-24 6 0 185 c0 251 20 233 -265 233 l-215 0 0 155 c0 152 -1 156 -25 180 -15
16 -36 25 -55 25 -19 0 -40 -9 -55 -25z m590 -920 c50 -49 15 -135 -55 -135
-41 0 -80 39 -80 80 0 41 39 80 80 80 19 0 40 -9 55 -25z"/>
<path d="M1625 1335 l-25 -24 0 -306 c0 -270 -2 -305 -16 -305 -27 0 -119
-101 -132 -146 -28 -94 -8 -169 63 -239 102 -103 243 -101 338 5 63 70 81 146
55 232 -14 48 -90 136 -124 144 l-24 6 0 249 0 249 255 0 256 0 24 25 c16 15
25 36 25 55 0 19 -9 40 -25 55 l-24 25 -311 0 -311 0 -24 -25z m110 -800 c50
-49 15 -135 -55 -135 -41 0 -80 39 -80 80 0 41 39 80 80 80 19 0 40 -9 55 -25z"/>
<path d="M2505 1335 l-25 -24 0 -306 c0 -270 -2 -305 -16 -305 -27 0 -119
-101 -132 -146 -28 -94 -8 -169 63 -239 102 -103 243 -101 338 5 90 100 90
220 -1 321 -24 27 -55 52 -68 55 l-24 6 0 305 0 304 -25 24 c-15 16 -36 25
-55 25 -19 0 -40 -9 -55 -25z m110 -800 c50 -49 15 -135 -55 -135 -19 0 -40 9
-55 25 -50 49 -15 135 55 135 19 0 40 -9 55 -25z"/>
<path d="M2825 1335 c-16 -15 -25 -36 -25 -55 0 -19 9 -40 25 -55 l24 -25 256
0 255 0 0 -250 c0 -220 -2 -250 -16 -250 -27 0 -119 -101 -132 -146 -28 -94
-8 -169 63 -239 102 -103 243 -101 338 5 63 70 81 146 55 232 -14 48 -90 136
-124 144 l-24 6 0 305 0 304 -25 24 -24 25 -311 0 -311 0 -24 -25z m670 -800
c50 -49 15 -135 -55 -135 -41 0 -80 39 -80 80 0 41 39 80 80 80 19 0 40 -9 55
-25z"/>
<path d="M1065 535 c-16 -15 -25 -36 -25 -55 0 -19 9 -40 25 -55 49 -50 135
-15 135 55 0 41 -39 80 -80 80 -19 0 -40 -9 -55 -25z"/>
<path d="M3945 535 c-50 -49 -15 -135 55 -135 41 0 80 39 80 80 0 41 -39 80
-80 80 -19 0 -40 -9 -55 -25z"/>
</g>
</svg>
