<svg width="77" height="72" viewBox="0 0 77 72" fill="none" xmlns="http://www.w3.org/2000/svg">
<g clip-path="url(#clip0_193_498)">
<path d="M2.93476 47.9108C2.77868 47.6146 2.64239 47.3801 2.52588 47.1929C2.59842 47.413 2.69515 47.6866 2.82924 48.0219C2.93257 48.2832 3.04248 48.5382 3.1502 48.7974C3.20076 48.7275 3.24912 48.6596 3.30188 48.5897C3.17878 48.3654 3.05347 48.1392 2.93257 47.9108H2.93476Z" fill="#5D5D5D"/>
<path d="M22.2292 65.3101L22.6996 65.3142C22.2402 65.1558 21.7763 64.983 21.3125 64.7979L22.2292 65.3101Z" fill="#5D5D5D"/>
<path d="M16.4895 65.2609L21.5082 65.3041L8.7998 58.1946C11.0311 60.9203 13.6185 63.2881 16.4895 65.2609Z" fill="#6B76D2"/>
<path d="M17.0039 65.6064C20.9147 68.1964 25.3333 70.0622 30.1014 71.0867L30.0948 71.0373C30.5411 70.9797 30.9631 70.9077 31.3676 70.8192L22.126 65.6517L17.0017 65.6064H17.0039Z" fill="#5564A0"/>
<path d="M3.49301 48.9292C3.43145 49.0115 3.3721 49.0958 3.31274 49.1802C4.62953 52.2062 6.28705 54.9834 8.23255 57.4807L13.7679 60.5767C9.90326 57.7317 6.29145 53.8725 3.49301 48.9292Z" fill="#793EA3"/>
<path d="M38.4637 64.187C37.7207 64.9667 36.7138 65.5797 35.485 65.9994C34.1572 66.5013 32.5502 66.7708 30.7213 66.7708C28.5911 66.7708 26.2301 66.4067 23.779 65.664L22.8469 65.6558L31.8666 70.702C32.1545 70.6279 32.4315 70.5477 32.6975 70.4592C36.0829 69.2332 37.736 66.7996 38.4637 64.187Z" fill="#2D899E"/>
<path d="M59.5014 39.2092L52.3394 50.0812C52.3438 50.1882 52.3481 50.2931 52.3525 50.398L59.4091 52.0417C59.4267 51.9018 59.4465 51.7619 59.4619 51.622C60.0268 46.508 59.9323 42.4389 59.5036 39.2092H59.5014Z" fill="#3AAACC"/>
<path d="M44.8235 67.7932C42.9901 69.476 40.882 70.8995 38.5693 71.998C38.6573 71.998 38.7452 72.0001 38.8331 72.0001C38.9518 72.0001 39.0705 72.0001 39.1915 72.0001C40.4994 71.9898 42.1042 71.7018 43.8343 71.1217C44.7905 70.7864 45.7798 70.3646 46.7778 69.8483L44.8257 67.7953L44.8235 67.7932Z" fill="#5564A0"/>
<path d="M47.0986 69.6754C52.5438 66.7625 58.1209 61.1465 59.3629 52.383L52.357 50.7517C52.357 50.8443 52.3591 50.9348 52.3591 51.0274C52.3591 57.4642 49.5761 63.3023 45.0806 67.5503L47.0986 69.6733V69.6754Z" fill="#2D899E"/>
<path d="M37.9646 71.8972C40.4223 70.7864 42.658 69.3094 44.5837 67.5382L42.3722 65.2095L37.9668 71.8972H37.9646Z" fill="#2D899E"/>
<path d="M39.9784 62.6914C39.4662 65.9293 37.7735 69.7165 32.9197 71.2903L33.6099 71.677C34.8828 71.8354 36.1754 71.9362 37.4856 71.9774L42.1196 64.946L39.9784 62.6914Z" fill="#5564A0"/>
<path d="M39.7167 56.16L39.7607 56.1518C39.7783 56.2217 40.1762 57.8756 40.1762 60.1179C40.1762 60.7639 40.141 61.4859 40.0421 62.2471L42.3173 64.6436L51.5876 50.5748L51.6008 50.5563L33.1548 44.4836C33.1548 44.4836 33.1702 44.5022 33.179 44.5104C36.7116 48.565 38.9143 52.5086 39.7189 56.16H39.7167Z" fill="#2D899E"/>
<path d="M51.9701 49.9906C51.4073 38.1168 41.2467 28.5408 28.5889 27.9031C28.1426 28.8247 27.8437 29.7915 27.7008 30.8078C26.9665 36.0247 30.3409 41.1161 32.7261 43.9796L51.7964 50.258L51.9722 49.9906H51.9701Z" fill="#3AAACC"/>
<path d="M32.293 71.492C32.4183 71.5125 32.5458 71.529 32.6711 71.5475L32.4754 71.4385C32.4161 71.457 32.3545 71.4734 32.293 71.492Z" fill="#5D5D5D"/>
<path d="M51.992 50.6655L51.959 50.6572L42.5701 64.905L44.8387 67.2954C49.2595 63.1091 51.9964 57.3615 51.9964 51.0255C51.9964 50.9041 51.9942 50.7848 51.992 50.6634V50.6655Z" fill="#3AAACC"/>
<path d="M56.3821 14.3054C54.0189 11.0407 50.6203 8.49811 46.6304 7.07251L47.2987 12.8819C49.453 13.3015 51.7019 14.0092 53.8804 14.9493L56.3821 14.3075V14.3054Z" fill="#27C46A"/>
<path d="M67.057 25.6052C67.0438 25.5723 67.0328 25.5373 67.0196 25.5044C66.9779 25.3892 66.9339 25.2761 66.8921 25.1629C66.835 25.0066 66.7756 24.8523 66.7163 24.698C66.6701 24.5808 66.6262 24.4635 66.58 24.3483C66.5206 24.2002 66.4635 24.0521 66.4041 23.904C66.358 23.7867 66.3096 23.6715 66.2634 23.5542C66.2041 23.4082 66.1447 23.2642 66.0832 23.1202C66.037 23.005 65.9886 22.8918 65.9403 22.7787C65.8787 22.6326 65.8172 22.4886 65.7534 22.3446C65.7051 22.2356 65.6589 22.1245 65.6105 22.0155C65.5446 21.8653 65.4764 21.7152 65.4083 21.567C65.3643 21.4662 65.3182 21.3675 65.272 21.2667C65.1885 21.0857 65.1049 20.9067 65.0214 20.7277C64.9906 20.6619 64.9598 20.5961 64.9291 20.5323C64.8147 20.2937 64.7004 20.0592 64.5839 19.8246C64.5378 19.7341 64.4938 19.6436 64.4476 19.5531C64.3751 19.407 64.3003 19.261 64.2256 19.117C64.1728 19.0141 64.1201 18.9133 64.0673 18.8125C64.03 18.7405 63.9926 18.6706 63.9552 18.5986C63.9288 18.5492 63.9003 18.4978 63.8739 18.4484C63.8057 18.3229 63.7376 18.1995 63.6694 18.0761C63.6123 17.9732 63.5529 17.8683 63.4958 17.7654C63.4276 17.6441 63.3573 17.5248 63.2891 17.4034C63.2298 17.3005 63.1704 17.1997 63.1111 17.0969C63.0407 16.9776 62.9704 16.8603 62.9 16.741C62.8407 16.6422 62.7813 16.5414 62.7198 16.4427C62.6472 16.3234 62.5725 16.2041 62.4977 16.0868C62.4384 15.9922 62.3812 15.8976 62.3219 15.805C62.2405 15.6774 62.1592 15.5499 62.0757 15.4244C62.0229 15.3421 61.9701 15.2598 61.9174 15.1796C61.7855 14.9801 61.6514 14.7805 61.5173 14.583C61.4689 14.5131 61.4206 14.4432 61.3722 14.3732C61.2821 14.2436 61.1919 14.112 61.0996 13.9844C61.0381 13.898 60.9765 13.8137 60.915 13.7293C60.8666 13.6614 60.8182 13.5956 60.7699 13.5298L56.9514 14.511C57.5977 15.447 58.1539 16.4304 58.6199 17.4507C61.3634 19.2013 64.5949 21.8468 67.0614 25.6052H67.057Z" fill="#1AAD71"/>
<path d="M54.386 15.1714C55.65 15.7413 56.8855 16.3893 58.0594 17.1051C57.6351 16.235 57.1449 15.3998 56.5931 14.6057L54.386 15.1714Z" fill="#52CC52"/>
<path d="M73.0605 53.5598C73.3881 52.9879 73.6585 52.525 73.9201 52.1918C75.7777 47.8368 76.7867 43.3563 76.9669 38.9026L73.2628 32.9102L73.0605 53.5598Z" fill="#7FD0EA"/>
<path d="M62.0187 64.8288C61.59 65.2341 61.3746 65.5571 61.2756 65.7875C61.4361 65.7422 61.6757 65.6435 61.9989 65.4213C67.6727 61.5395 70.4382 57.8695 72.0187 55.331L69.2489 54.6851C67.7277 58.3427 65.3425 61.6876 62.0187 64.8288Z" fill="#7FD0EA"/>
<path d="M65.0017 18.6089C65.2523 19.0882 65.5007 19.5717 65.7425 20.0695L68.6201 24.7227L72.1286 19.3947C71.4757 18.2757 70.7634 17.1751 69.9852 16.0992C62.7001 6.0192 51.3898 0 39.7322 0C45.6104 0.571886 50.838 2.67017 55.305 6.25989C59.1014 9.30857 62.3417 13.4393 65.0017 18.6069V18.6089Z" fill="#00F5DA"/>
<path d="M72.3286 19.7424L68.8267 25.056L72.9111 31.6615L73.0144 21.0055C72.9507 20.88 72.8803 20.7545 72.8144 20.6291C72.6561 20.3328 72.4934 20.0366 72.3264 19.7424H72.3286Z" fill="#40BDED"/>
<path d="M76.9891 38.2588C77.1166 32.5914 75.8987 26.9795 73.3707 21.7358L73.2673 32.2417L76.9891 38.2588Z" fill="#00F5DA"/>
<path d="M68.6091 25.3853L68.2178 25.9798C68.974 28.0781 69.6599 30.2998 70.271 32.6429L70.4732 33.4225L70.4556 33.4163C70.6777 34.3585 70.8425 35.3171 70.9481 36.2758C71.4053 40.4538 71.7614 45.9176 70.4293 51.1448C70.1479 52.2454 69.794 53.3171 69.3763 54.3642L72.2055 55.0225C72.3814 54.7325 72.5418 54.4589 72.6891 54.2038L72.9024 32.3302L68.6069 25.3853H68.6091Z" fill="#A4F4E7"/>
<path d="M68.066 25.5621L68.4023 25.0519L66.9075 22.6348C67.3098 23.5811 67.6945 24.5582 68.0638 25.5621H68.066Z" fill="#5D5D5D"/>
<path d="M19.6617 24.5458C18.9099 23.9204 18.1801 23.4781 17.4326 23.1963C16.7402 22.9351 16.0235 22.8096 15.2431 22.8096C14.0209 22.8096 12.6337 23.1161 10.8817 23.7703C10.6113 23.8731 10.3387 23.9595 10.0661 24.0356C9.38465 24.2249 8.69877 24.3339 7.98872 24.3648C7.84583 24.3709 7.70514 24.3751 7.56005 24.3751C6.3312 24.3751 5.20127 24.1447 4.20544 23.9431L3.88229 23.8772C3.80975 23.8628 3.735 23.8423 3.66246 23.8176C3.63828 23.8093 3.6141 23.7991 3.58992 23.7908C3.53935 23.7723 3.48879 23.7559 3.44043 23.7332C3.41185 23.7209 3.38328 23.7085 3.3547 23.6941C3.30853 23.6715 3.26457 23.6489 3.2184 23.6263C3.18982 23.6098 3.16125 23.5933 3.13267 23.5769C3.0887 23.5522 3.04474 23.5255 3.00297 23.4967C2.97659 23.4781 2.94801 23.4596 2.92163 23.4411C2.87767 23.4103 2.8381 23.3794 2.79633 23.3465C2.77215 23.328 2.74797 23.3095 2.72378 23.2889C2.67762 23.2498 2.63365 23.2087 2.58969 23.1675C2.5743 23.1511 2.55451 23.1367 2.53913 23.1202C2.48197 23.0647 2.42921 23.0071 2.37865 22.9453C1.74994 24.3154 1.24213 25.6114 0.853027 26.8375C1.91481 29.989 6.3378 32.3609 11.6181 32.3609C16.3665 32.3609 20.4201 30.4457 21.9633 27.7693C21.4511 26.5001 20.6729 25.3913 19.6573 24.5479L19.6617 24.5458Z" fill="#F805D1"/>
<path d="M19.1758 39.8839L19.0351 39.8386L18.6724 39.7193C18.6724 39.7193 18.6724 39.7193 18.6768 39.7152L0 33.5664C0.153881 34.7513 0.507808 35.8108 1.06838 36.7344C3.29306 40.3941 7.30277 42.6693 11.5367 42.6693C13.0008 42.6693 14.4758 42.406 15.9179 41.8834C16.2015 41.7806 16.4763 41.6654 16.7467 41.5378C16.7533 41.5317 16.7599 41.5275 16.7643 41.5214C17.2479 41.291 17.7073 41.0215 18.1426 40.717C18.5053 40.464 18.8505 40.1842 19.1758 39.8839Z" fill="#8F239B"/>
<path d="M22.3984 28.2733C20.6837 30.9208 16.6213 32.7866 11.8949 32.7866C6.7069 32.7866 2.32129 30.5382 0.960537 27.4751C0.323029 29.6536 0.079017 31.5894 0.232898 33.2783L19.2175 39.53L19.5912 39.6513L19.745 39.7028C20.2551 39.1926 20.7123 38.6248 21.1124 38.0077C21.4136 37.5428 21.6818 37.0511 21.9148 36.5348C22.2819 35.7181 22.5611 34.8417 22.7413 33.916C23.1282 31.9226 22.9897 29.9704 22.3984 28.2753V28.2733Z" fill="#DA26DD"/>
<path d="M42.6405 19.0881C41.2556 18.1912 39.8465 17.3395 38.4176 16.5475C37.5866 16.0867 36.7447 15.6691 35.8939 15.2886C34.9376 15.9304 34.1616 16.6669 33.3681 17.4198C32.6492 18.1027 31.9062 18.8083 31.0203 19.4296C29.9255 20.1969 28.7538 20.7318 27.3975 21.0815C28.3669 21.2317 29.3759 21.4456 30.4267 21.7192C30.5674 21.6781 30.7081 21.6349 30.8488 21.5958C32.17 21.2296 33.5571 20.9539 35.0893 20.7544C35.1047 20.7523 35.1201 20.7503 35.1377 20.7482C37.3997 19.6374 39.6904 19.0717 41.9766 19.0717C42.1986 19.0717 42.4185 19.0758 42.6383 19.0881H42.6405Z" fill="#9948C9"/>
<path d="M18.8416 21.6741C19.2966 21.5115 19.6 21.3552 20.1188 21.2894C20.2265 21.2606 20.3364 21.2318 20.4463 21.205C20.1649 20.9664 19.8594 20.7422 19.534 20.5282C19.3911 20.4665 19.2504 20.4048 19.1097 20.3369C19.0548 20.5447 18.9009 21.131 18.8416 21.672V21.6741Z" fill="#B127BB"/>
<path d="M16.4874 19.1169L14.8035 21.9723C14.953 21.964 15.098 21.9579 15.2431 21.9579C15.3508 21.9579 15.4564 21.9599 15.5641 21.964C15.5971 21.964 15.6322 21.9681 15.6652 21.9702C15.7355 21.9743 15.8059 21.9784 15.8784 21.9846C15.9202 21.9887 15.9598 21.9928 15.9993 21.9969C16.0631 22.0031 16.1246 22.0093 16.1884 22.0175C16.2302 22.0237 16.2719 22.0299 16.3159 22.036C16.3753 22.0443 16.4346 22.0545 16.494 22.0628C16.5357 22.071 16.5797 22.0792 16.6215 22.0854C16.6808 22.0957 16.738 22.108 16.7951 22.1204C16.8369 22.1286 16.8809 22.1389 16.9226 22.1492C16.9798 22.1615 17.0369 22.1759 17.0941 22.1924C17.1359 22.2047 17.1776 22.215 17.2194 22.2273C17.2766 22.2438 17.3337 22.2603 17.3909 22.2788C17.4326 22.2911 17.4722 22.3035 17.5118 22.3179C17.5272 22.322 17.5426 22.3261 17.5557 22.3323C18.2262 21.9558 18.2416 21.9208 18.3559 21.8571C18.3559 21.8571 18.5977 20.6577 18.7714 20.1743C18.4065 19.9871 18.0526 19.7835 17.7118 19.5675C17.3205 19.4029 16.9116 19.2507 16.4874 19.119V19.1169Z" fill="#793EA3"/>
<path d="M2.83569 21.8613L2.88186 21.8778C2.85328 21.9827 2.89505 22.1287 3.00057 22.2912C3.22919 22.6389 3.70183 22.9701 4.07554 23.0462L4.40089 23.112C5.27361 23.289 6.17272 23.472 7.14217 23.5152C7.28066 23.5214 7.41916 23.5235 7.56205 23.5235C8.59305 23.5235 9.5691 23.3445 10.5451 22.9804C12.0158 22.4311 13.2535 22.1143 14.3702 22.0053L16.1354 19.0101C14.7571 18.6172 13.2315 18.395 11.6245 18.395C8.43697 18.395 5.56379 19.259 3.55234 20.6352C3.31492 20.9644 3.11048 21.2915 2.9522 21.6124C2.91044 21.6947 2.87306 21.777 2.83789 21.8613H2.83569Z" fill="#B127BB"/>
<path d="M32.68 22.1802C33.1966 21.8305 33.7154 21.5137 34.2364 21.2236C33.1174 21.3985 32.071 21.6207 31.0664 21.8922C31.5302 22.0218 32.0029 22.1658 32.4821 22.318C32.5481 22.2728 32.6118 22.2255 32.6778 22.1802H32.68Z" fill="#8F239B"/>
<path d="M60.6754 38.7873C61.4734 39.5032 62.2494 40.2294 62.9968 40.9679C63.2298 41.1983 63.4738 41.4472 63.7156 41.6961C64.3509 42.3462 65.3973 43.4179 65.7952 43.527C65.8524 43.4673 65.8656 43.3871 65.771 43.1053C65.593 42.5848 65.0896 41.692 64.1355 40.2088C63.2914 38.8963 62.3769 37.5983 61.4052 36.3208L60.5061 37.6847C60.5677 38.0406 60.6226 38.4088 60.6754 38.7873Z" fill="#5564A0"/>
<path d="M13.9922 14.0483C13.9812 14.0525 13.9702 14.0545 13.9592 14.0586C14.0142 14.1821 14.0713 14.3034 14.1329 14.4269C14.1922 14.5462 14.256 14.6634 14.3241 14.7827C14.3219 14.7786 14.3176 14.7725 14.3154 14.7683C14.1944 14.5277 14.0889 14.287 13.9922 14.0483Z" fill="#5D5D5D"/>
<path d="M13.3107 14.791C13.2382 14.6449 13.17 14.4988 13.1063 14.3528C11.8994 14.7868 10.8464 15.2518 9.96708 15.6899C7.54675 16.8995 5.5265 18.3683 4.20312 19.833C6.19479 18.7263 8.78879 18.0536 11.6224 18.0536C13.2931 18.0536 14.8803 18.2881 16.3114 18.7078L16.3817 18.5884C15.0342 17.4611 13.9856 16.1219 13.3107 14.7889V14.791Z" fill="#793EA3"/>
<path d="M61.1745 36.0207C60.6953 35.3994 60.2007 34.7843 59.6929 34.1733C59.9589 35.0703 60.2051 36.0659 60.4139 37.1768L61.1745 36.0207Z" fill="#8F239B"/>
<path d="M59.2356 37.5305C58.7674 34.9817 58.0925 33.0397 57.4264 31.5668C56.7757 30.1288 56.1338 29.1394 55.7007 28.4729C53.9619 25.7945 49.884 21.5341 44.5245 20.3492C44.1223 20.2607 43.7134 20.1887 43.2957 20.1373C42.7879 20.1353 40.3082 19.7197 37.0613 20.8532C35.8764 21.2975 34.6959 21.9064 33.522 22.6696C33.4187 22.7375 33.3132 22.8034 33.2077 22.8754C31.172 24.2495 29.6838 25.8233 28.7517 27.5759C41.3524 28.2795 51.48 37.7156 52.2999 49.4886L59.4202 38.6804C59.3631 38.2854 59.2993 37.9028 59.2312 37.5346L59.2356 37.5305Z" fill="#7FD0EA"/>
<path d="M45.4851 2.30609C45.3664 2.27111 45.2477 2.23409 45.129 2.20117C45.0388 2.17443 44.9487 2.14974 44.8564 2.123C44.7355 2.09009 44.6124 2.05717 44.4893 2.02426C44.4013 2.00163 44.3112 1.97694 44.2233 1.95431C44.0936 1.9214 43.9617 1.89054 43.832 1.85969C43.7484 1.83911 43.6671 1.81854 43.5857 1.80003C43.4297 1.76506 43.2736 1.73214 43.1197 1.69717C43.0604 1.68483 43.001 1.67249 42.9416 1.65809C42.7262 1.61489 42.5108 1.57169 42.2931 1.5326C42.2382 1.52231 42.181 1.51409 42.1261 1.5038C41.9634 1.475 41.8007 1.4462 41.6358 1.42151C41.5545 1.40917 41.471 1.39683 41.3896 1.38449C41.2511 1.36391 41.1105 1.34334 40.972 1.32483C40.8818 1.31249 40.7895 1.30014 40.6994 1.28986C40.5653 1.2734 40.4334 1.25694 40.3015 1.24049C40.207 1.2302 40.1124 1.21991 40.0157 1.20963C39.8838 1.19523 39.7519 1.18289 39.62 1.17054C39.5233 1.16231 39.4288 1.15409 39.332 1.14586C39.1979 1.13557 39.0638 1.12529 38.9297 1.115C38.8352 1.10883 38.7407 1.10266 38.6462 1.09649C38.5055 1.08826 38.3648 1.08003 38.2241 1.07386C38.134 1.06974 38.0438 1.06357 37.9515 1.06151C37.7976 1.05534 37.6415 1.05123 37.4855 1.04711C37.4085 1.04506 37.3316 1.04094 37.2546 1.04094C37.0216 1.03683 36.7864 1.03271 36.5512 1.03271C36.316 1.03271 36.0939 1.03477 35.8675 1.03889C35.7708 1.03889 35.674 1.04506 35.5773 1.04711C35.4476 1.05123 35.3179 1.05329 35.1882 1.0574C35.1047 1.06151 35.0234 1.06563 34.942 1.06974C34.7991 1.07591 34.6562 1.08209 34.5133 1.09031C34.432 1.09443 34.3529 1.1006 34.2715 1.10677C34.1286 1.115 33.9858 1.12323 33.8429 1.13351C33.7417 1.14174 33.6406 1.14997 33.5395 1.1582C33.4186 1.16849 33.2977 1.17671 33.1768 1.187C33.0713 1.19729 32.9657 1.20757 32.8624 1.21786C32.7481 1.22814 32.6316 1.23843 32.5173 1.25077C32.4162 1.26106 32.315 1.2734 32.2139 1.28574C32.0952 1.29809 31.9787 1.31249 31.8622 1.32689C31.7655 1.33923 31.6687 1.35157 31.572 1.36391C31.4533 1.38037 31.3324 1.39477 31.2159 1.41123C31.1214 1.42357 31.029 1.43797 30.9345 1.45237C30.8158 1.47089 30.6949 1.48734 30.5762 1.50586C30.4795 1.52231 30.3827 1.53671 30.286 1.55317C30.1717 1.57169 30.0574 1.58814 29.9453 1.60871C29.8485 1.62517 29.754 1.64163 29.6595 1.66014C29.5452 1.68071 29.4309 1.69923 29.3166 1.7198C29.2264 1.73626 29.1385 1.75477 29.0484 1.77123C28.9319 1.79386 28.8153 1.81649 28.6966 1.83911C28.6131 1.85557 28.5296 1.87409 28.446 1.89054C28.3273 1.91523 28.2064 1.93991 28.0855 1.9646C28.0042 1.98106 27.925 1.99957 27.8437 2.01809C27.7228 2.04483 27.6019 2.06951 27.4832 2.09831C27.3996 2.11683 27.3183 2.1374 27.237 2.15591C27.1204 2.18266 27.0039 2.2094 26.8896 2.2382C26.8061 2.25877 26.7248 2.27934 26.6412 2.29991C26.5511 2.32254 26.461 2.34517 26.3708 2.3678L20.2573 12.7379L17.116 18.0659C17.7029 18.5431 18.347 18.9772 19.0439 19.3454C19.866 16.8768 21.207 14.5728 22.9744 12.5815C23.8801 11.5612 24.8958 10.6211 26.0103 9.78586C29.787 6.95317 34.3485 5.45557 39.2001 5.45557C41.6205 5.45557 43.9858 5.8382 46.2127 6.57054L45.7159 2.37809C45.6412 2.35546 45.5664 2.33283 45.4917 2.30814L45.4851 2.30609Z" fill="#29E57E"/>
<path d="M60.4731 13.137C60.394 13.0321 60.317 12.9292 60.2379 12.8284C60.1697 12.74 60.1016 12.6515 60.0334 12.5651C59.9565 12.4643 59.8773 12.3656 59.7982 12.2668C59.7279 12.1804 59.6597 12.094 59.5894 12.0076C59.5102 11.9109 59.4289 11.8143 59.3498 11.7176C59.2794 11.6332 59.2091 11.5509 59.1387 11.4666C59.0574 11.3699 58.9739 11.2753 58.8903 11.1807C58.82 11.1004 58.7518 11.0202 58.6815 10.94C58.5935 10.8412 58.5056 10.7425 58.4155 10.6458C58.3495 10.5738 58.2836 10.4997 58.2176 10.4277C58.1077 10.3105 57.9978 10.1932 57.8879 10.076C57.8219 10.0081 57.7582 9.93814 57.6922 9.87025C57.5559 9.73037 57.4196 9.59048 57.2834 9.45471C57.2174 9.38888 57.1515 9.32511 57.0855 9.26134C56.991 9.16671 56.8943 9.07414 56.7997 8.98157C56.7272 8.91163 56.6546 8.84374 56.5799 8.77585C56.4898 8.69151 56.3996 8.60511 56.3073 8.52283C56.2326 8.45288 56.1556 8.385 56.0787 8.31711C55.9886 8.23688 55.8984 8.15665 55.8083 8.07643C55.7313 8.00854 55.6522 7.94065 55.5753 7.87483C55.4851 7.79665 55.3928 7.72054 55.3005 7.64237C55.2213 7.57654 55.1444 7.51071 55.0653 7.44488C54.9707 7.36877 54.8784 7.29265 54.7839 7.2186C54.7069 7.15688 54.6278 7.09311 54.5509 7.0314C54.4519 6.95528 54.3552 6.87917 54.2541 6.80305C54.1793 6.74545 54.1046 6.68785 54.0277 6.63025C53.9178 6.54797 53.8056 6.46774 53.6935 6.38545C53.6298 6.33814 53.566 6.29083 53.5001 6.24557C53.3264 6.12214 53.1527 6.00077 52.9769 5.88145C52.9175 5.84031 52.8582 5.80328 52.7988 5.76214C52.6779 5.68191 52.557 5.59963 52.4361 5.52145C52.3592 5.47208 52.2822 5.42477 52.2075 5.37745C52.0998 5.30957 51.9942 5.24168 51.8865 5.17791C51.8052 5.12854 51.7238 5.07917 51.6425 5.0298C51.5392 4.96808 51.4359 4.90637 51.3303 4.84465C51.2468 4.79528 51.1611 4.74797 51.0775 4.6986C50.9742 4.641 50.8709 4.5834 50.7676 4.5258C50.6818 4.47848 50.5961 4.43323 50.5104 4.38591C50.4049 4.32831 50.2993 4.27483 50.1938 4.21723C50.1081 4.17403 50.0246 4.12877 49.9388 4.08557C49.8289 4.03003 49.719 3.97654 49.6091 3.921C49.5255 3.87985 49.4442 3.84077 49.3607 3.79963C49.242 3.74203 49.121 3.68648 49.0001 3.63094C48.9254 3.59597 48.8529 3.561 48.7781 3.52808C48.6132 3.45403 48.4484 3.38203 48.2835 3.31208C48.2439 3.29563 48.2044 3.27711 48.1626 3.26065C47.9757 3.18248 47.7867 3.10637 47.5976 3.03025C47.5251 3.00145 47.4525 2.97471 47.38 2.94797C47.2503 2.8986 47.1228 2.84923 46.9931 2.80191C46.9096 2.77105 46.826 2.74225 46.7425 2.7114C46.6238 2.6682 46.5029 2.62705 46.382 2.58591C46.294 2.55711 46.2061 2.52831 46.1182 2.49951L46.593 6.69197C49.2551 7.6218 51.7085 9.05768 53.81 10.9441C54.9224 11.9418 55.9028 13.0362 56.7448 14.2088L60.5544 13.2316C60.5302 13.1987 60.5061 13.1658 60.4819 13.1349L60.4731 13.137Z" fill="#52CC52"/>
<path d="M25.7202 2.53019C25.6477 2.54871 25.5751 2.56928 25.5004 2.58985C25.3839 2.62071 25.2674 2.65362 25.1509 2.68448C25.0827 2.70299 25.0146 2.72356 24.9464 2.74414C24.8277 2.77705 24.709 2.81202 24.5925 2.84699C24.5222 2.86756 24.454 2.88814 24.3859 2.90871C24.2715 2.94368 24.1572 2.97659 24.0429 3.01156C23.9814 3.03008 23.9198 3.04859 23.8583 3.06916C23.7396 3.10619 23.6208 3.14322 23.5043 3.18025C23.4472 3.19876 23.3922 3.21728 23.3351 3.23374C23.2142 3.27282 23.0933 3.31191 22.9767 3.35099C22.924 3.36745 22.8734 3.38596 22.8207 3.40448C22.6998 3.44356 22.5767 3.48471 22.4579 3.52585C22.4096 3.54231 22.3612 3.55876 22.3129 3.57728C22.1919 3.61842 22.071 3.65956 21.9523 3.70276C21.904 3.71922 21.8578 3.73774 21.8116 3.75419C21.6929 3.79739 21.5742 3.83854 21.4577 3.88174C21.4159 3.89614 21.3764 3.91259 21.3368 3.92699C21.2159 3.97225 21.0928 4.01545 20.9741 4.06276C20.9455 4.07305 20.9147 4.08539 20.884 4.09774C20.7565 4.14711 20.629 4.19442 20.5015 4.24379C20.4773 4.25202 20.4531 4.26231 20.4267 4.27259C20.297 4.32402 20.1673 4.37339 20.0398 4.42482C20.0222 4.43099 20.0068 4.43922 19.9892 4.44539C19.8552 4.49888 19.7233 4.55236 19.5914 4.60585C19.5848 4.60791 19.5804 4.60996 19.5738 4.61202C19.1495 4.78482 18.7428 4.95762 18.3559 5.12836C18.29 5.16745 18.2262 5.20654 18.1625 5.24562C18.1141 5.27442 18.0613 5.30528 18.013 5.33614C17.936 5.38345 17.8613 5.43076 17.7865 5.47602C17.747 5.50071 17.7074 5.52539 17.6678 5.55008C17.5865 5.60151 17.5074 5.65294 17.426 5.70436C17.3974 5.72288 17.3667 5.74139 17.3381 5.76196C17.2524 5.81545 17.171 5.87099 17.0897 5.92448C17.0655 5.93888 17.0435 5.95534 17.0193 5.96974C16.9314 6.02734 16.8457 6.08494 16.7599 6.14254C16.7445 6.15282 16.727 6.16311 16.7116 6.17339C16.6258 6.23099 16.5423 6.28654 16.4588 6.34414C16.4456 6.35442 16.4302 6.36265 16.417 6.37294C16.3269 6.43259 16.2411 6.49431 16.1532 6.55191C16.1466 6.55602 16.14 6.56014 16.1334 6.56631C16.0411 6.63008 15.951 6.69179 15.863 6.75145C15.4344 7.04562 15.0519 7.38505 14.7265 7.75328C13.2756 9.40311 13.0228 11.668 13.9901 14.0522C14.0868 14.2909 14.1923 14.5295 14.3132 14.7722C14.3132 14.7764 14.3198 14.7825 14.322 14.7866C14.9178 15.8564 15.7685 16.9137 16.8281 17.8312L19.8024 12.7851L25.8697 2.49316C25.8192 2.50551 25.7664 2.51991 25.7158 2.53431L25.7202 2.53019Z" fill="#5CEA5C"/>
<path d="M46.2478 6.9388C44.0451 6.19823 41.6687 5.79297 39.1935 5.79297C32.9327 5.79297 27.2457 8.37057 23.4096 12.5754C21.6026 14.5564 20.2089 16.8995 19.3582 19.5059C20.7958 20.2115 22.4424 20.6497 24.2406 20.6497C24.8583 20.6497 25.4826 20.5962 26.0982 20.4892C27.8106 20.195 29.2 19.6417 30.4728 18.7489C31.3037 18.1667 31.9896 17.5146 32.7172 16.8234C33.4119 16.163 34.1154 15.4965 34.9529 14.8855C36.3818 13.8426 38.202 12.9621 41.0378 12.5671C41.6534 12.4807 42.326 12.4375 43.0317 12.4375C44.2605 12.4375 45.5707 12.5671 46.9249 12.8099L46.2478 6.9388Z" fill="#22F4A8"/>
</g>
<defs>
<clipPath id="clip0_193_498">
<rect width="77" height="72" fill="white"/>
</clipPath>
</defs>
</svg>
