<svg width="1141" height="780" viewBox="0 0 1141 780" fill="none" xmlns="http://www.w3.org/2000/svg">
<path d="M1176.92 675.547L1035.26 890.592C1035.35 892.708 1035.43 894.783 1035.52 896.859L1175.1 929.37C1175.44 926.603 1175.84 923.836 1176.14 921.069C1187.31 819.914 1185.45 739.43 1176.97 675.547H1176.92Z" fill="#3AAACC"/>
<path d="M785.587 1010.83L786.456 1010.67C786.804 1012.05 794.674 1044.76 794.674 1089.12C794.674 1101.89 793.979 1116.17 792.022 1131.23L837.026 1178.63L1020.39 900.356L1020.65 899.99L655.793 779.874C655.793 779.874 656.098 780.24 656.272 780.403C726.147 860.602 769.716 938.605 785.63 1010.83H785.587Z" fill="#2D899E"/>
<path d="M1027.95 888.8C1016.82 653.939 815.85 464.529 565.481 451.915C556.654 470.144 550.741 489.268 547.915 509.369C533.392 612.558 600.136 713.265 647.314 769.905L1024.52 894.09L1028 888.8H1027.95Z" fill="#3AAACC"/>
<path d="M1115.22 182.957C1068.48 118.383 1001.26 68.0903 922.337 39.8923L935.555 154.8C978.168 163.101 1022.65 177.098 1065.74 195.693L1115.22 182.998V182.957Z" fill="#27C46A"/>
<path d="M1326.37 406.464C1326.11 405.813 1325.89 405.121 1325.63 404.47C1324.8 402.192 1323.94 399.954 1323.11 397.716C1321.98 394.623 1320.8 391.572 1319.63 388.52C1318.72 386.201 1317.85 383.881 1316.93 381.603C1315.76 378.673 1314.63 375.743 1313.46 372.814C1312.54 370.494 1311.59 368.216 1310.67 365.896C1309.5 363.007 1308.33 360.159 1307.11 357.311C1306.19 355.032 1305.24 352.794 1304.28 350.556C1303.06 347.667 1301.85 344.819 1300.59 341.971C1299.63 339.814 1298.72 337.617 1297.76 335.461C1296.45 332.49 1295.11 329.52 1293.76 326.59C1292.89 324.596 1291.98 322.643 1291.06 320.649C1289.41 317.069 1287.76 313.529 1286.11 309.989C1285.5 308.687 1284.89 307.385 1284.28 306.123C1282.02 301.403 1279.76 296.765 1277.45 292.126C1276.54 290.336 1275.67 288.545 1274.76 286.755C1273.32 283.866 1271.84 280.977 1270.37 278.129C1269.32 276.094 1268.28 274.1 1267.24 272.107C1266.5 270.683 1265.76 269.299 1265.02 267.875C1264.5 266.898 1263.93 265.881 1263.41 264.905C1262.06 262.423 1260.71 259.981 1259.36 257.54C1258.23 255.505 1257.06 253.43 1255.93 251.396C1254.58 248.995 1253.19 246.635 1251.84 244.234C1250.67 242.2 1249.49 240.206 1248.32 238.171C1246.93 235.811 1245.54 233.492 1244.15 231.132C1242.97 229.179 1241.8 227.185 1240.58 225.232C1239.15 222.872 1237.67 220.512 1236.19 218.193C1235.01 216.321 1233.88 214.449 1232.71 212.618C1231.1 210.096 1229.49 207.573 1227.84 205.091C1226.8 203.463 1225.75 201.836 1224.71 200.249C1222.1 196.302 1219.45 192.355 1216.8 188.449C1215.84 187.065 1214.88 185.682 1213.93 184.298C1212.14 181.735 1210.36 179.131 1208.53 176.608C1207.32 174.899 1206.1 173.231 1204.88 171.562C1203.93 170.22 1202.97 168.918 1202.01 167.615L1126.48 187.024C1139.27 205.538 1150.27 224.988 1159.49 245.17C1213.75 279.797 1277.67 332.124 1326.46 406.464H1326.37Z" fill="#1AAD71"/>
<path d="M1075.74 200.087C1100.74 211.358 1125.18 224.175 1148.4 238.335C1140.01 221.123 1130.31 204.603 1119.4 188.897L1075.74 200.087Z" fill="#52CC52"/>
<path d="M1285.71 268.079C1290.67 277.56 1295.59 287.122 1300.37 296.969L1357.29 389.009L1426.68 283.623C1413.77 261.487 1399.68 239.718 1384.29 218.438C1240.19 19.0581 1016.48 -100 785.891 -100C902.162 -88.6883 1005.56 -47.1848 1093.92 23.8188C1169.01 84.1209 1233.1 165.826 1285.71 268.038V268.079Z" fill="#00F5DA"/>
<path d="M388.902 385.509C374.031 373.139 359.595 364.391 344.811 358.816C331.115 353.649 316.939 351.167 301.503 351.167C277.328 351.167 249.89 357.229 215.235 370.169C209.887 372.203 204.495 373.912 199.104 375.418C185.624 379.161 172.058 381.318 158.013 381.928C155.187 382.05 152.404 382.131 149.534 382.131C125.228 382.131 102.878 377.574 83.1811 373.587L76.7893 372.284C75.3544 372 73.876 371.593 72.4411 371.104C71.9628 370.942 71.4845 370.738 71.0062 370.576C70.0061 370.209 69.0061 369.884 68.0494 369.436C67.4842 369.192 66.9189 368.948 66.3537 368.663C65.4405 368.216 64.5709 367.768 63.6578 367.32C63.0925 366.995 62.5273 366.669 61.962 366.344C61.0924 365.856 60.2227 365.327 59.3966 364.757C58.8748 364.391 58.3095 364.024 57.7877 363.658C56.9181 363.048 56.1354 362.438 55.3093 361.787C54.831 361.42 54.3527 361.054 53.8744 360.647C52.9613 359.874 52.0916 359.06 51.222 358.247C50.9176 357.921 50.5263 357.636 50.2219 357.311C49.0914 356.212 48.0478 355.073 47.0477 353.852C34.6119 380.951 24.5676 406.586 16.8713 430.837C37.8731 493.174 125.358 540.089 229.802 540.089C323.723 540.089 403.903 502.207 434.427 449.269C424.296 424.164 408.904 402.232 388.815 385.549L388.902 385.509Z" fill="#F805D1"/>
<path d="M379.292 688.892L376.509 687.997L369.335 685.637C369.335 685.637 369.335 685.637 369.422 685.556L0 563.934C3.04373 587.372 10.0443 608.327 21.1322 626.597C65.1358 698.983 144.447 743.986 228.193 743.986C257.151 743.986 286.328 738.778 314.852 728.443C320.461 726.408 325.896 724.13 331.245 721.607C331.375 721.485 331.505 721.403 331.592 721.281C341.158 716.724 350.246 711.394 358.855 705.372C366.03 700.367 372.857 694.833 379.292 688.892Z" fill="#8F239B"/>
<path d="M443.036 459.238C409.121 511.605 328.766 548.511 235.28 548.511C132.663 548.511 45.9168 504.037 19.0016 443.45C6.39182 486.541 1.56534 524.83 4.60907 558.236L380.118 681.892L387.51 684.293L390.554 685.31C400.642 675.219 409.686 663.988 417.6 651.781C423.557 642.586 428.861 632.861 433.47 622.648C440.732 606.494 446.254 589.16 449.82 570.85C457.472 531.421 454.733 492.807 443.036 459.278V459.238Z" fill="#DA26DD"/>
<path d="M843.417 277.558C816.024 259.817 788.152 242.971 759.888 227.306C743.452 218.191 726.799 209.931 709.971 202.404C691.057 215.099 675.708 229.666 660.011 244.558C645.792 258.067 631.095 272.024 613.572 284.312C591.918 299.489 568.742 310.069 541.914 316.986C561.09 319.956 581.048 324.188 601.832 329.6C604.615 328.786 607.398 327.932 610.181 327.158C636.313 319.916 663.75 314.463 694.057 310.516C694.361 310.476 694.666 310.435 695.014 310.394C739.756 288.422 785.064 277.232 830.286 277.232C834.677 277.232 839.025 277.314 843.374 277.558H843.417Z" fill="#9948C9"/>
<path d="M372.683 328.707C381.684 325.492 387.684 322.4 397.946 321.098C400.077 320.528 402.251 319.958 404.425 319.429C398.859 314.709 392.815 310.274 386.38 306.042C383.554 304.822 380.771 303.601 377.988 302.258C376.901 306.368 373.857 317.965 372.683 328.666V328.707Z" fill="#B127BB"/>
<path d="M326.114 278.128L292.807 334.605C295.764 334.442 298.634 334.32 301.503 334.32C303.634 334.32 305.721 334.361 307.852 334.442C308.504 334.442 309.2 334.524 309.852 334.565C311.243 334.646 312.635 334.727 314.07 334.849C314.896 334.931 315.679 335.012 316.461 335.094C317.722 335.216 318.94 335.338 320.201 335.5C321.027 335.622 321.853 335.745 322.723 335.867C323.897 336.029 325.071 336.233 326.245 336.396C327.071 336.558 327.94 336.721 328.767 336.843C329.941 337.047 331.071 337.291 332.202 337.535C333.028 337.698 333.897 337.901 334.724 338.105C335.854 338.349 336.985 338.634 338.115 338.959C338.941 339.203 339.768 339.407 340.594 339.651C341.724 339.976 342.855 340.302 343.985 340.668C344.811 340.912 345.594 341.156 346.377 341.441C346.681 341.522 346.986 341.604 347.246 341.726C360.508 334.28 360.813 333.588 363.074 332.327C363.074 332.327 367.857 308.605 371.292 299.042C364.074 295.34 357.073 291.311 350.334 287.039C342.594 283.784 334.506 280.773 326.114 278.169V278.128Z" fill="#793EA3"/>
<path d="M56.0918 332.411L57.0049 332.736C56.4397 334.811 57.2658 337.7 59.3529 340.915C63.875 347.791 73.2236 354.343 80.6156 355.848L87.0509 357.15C104.313 360.649 122.097 364.271 141.273 365.125C144.012 365.247 146.751 365.288 149.578 365.288C169.971 365.288 189.277 361.748 208.583 354.546C237.672 343.682 262.152 337.416 284.241 335.259L319.157 276.015C291.894 268.243 261.717 263.849 229.932 263.849C166.884 263.849 110.053 280.938 70.2669 308.16C65.5708 314.67 61.527 321.14 58.3963 327.487C57.5702 329.115 56.831 330.743 56.1353 332.411H56.0918Z" fill="#B127BB"/>
<path d="M646.4 338.718C656.618 331.801 666.88 325.534 677.185 319.797C655.053 323.256 634.356 327.65 614.485 333.021C623.659 335.585 633.008 338.433 642.487 341.444C643.791 340.549 645.052 339.613 646.357 338.718H646.4Z" fill="#8F239B"/>
<path d="M276.762 177.872C276.544 177.954 276.327 177.994 276.109 178.076C277.196 180.517 278.327 182.918 279.544 185.359C280.718 187.719 281.979 190.039 283.327 192.399C283.284 192.317 283.197 192.195 283.153 192.114C280.762 187.353 278.675 182.592 276.762 177.872Z" fill="#5D5D5D"/>
<path d="M263.283 192.561C261.848 189.672 260.5 186.783 259.239 183.894C235.368 192.48 214.54 201.676 197.147 210.343C149.274 234.268 109.314 263.321 83.1379 292.292C122.532 270.401 173.841 257.095 229.889 257.095C262.935 257.095 294.329 261.734 322.636 270.034L324.027 267.674C297.373 245.376 276.632 218.887 263.283 192.521V192.561Z" fill="#793EA3"/>
<path d="M1171.66 642.341C1162.4 591.927 1149.05 553.516 1135.88 524.382C1123.01 495.94 1110.31 476.368 1101.74 463.185C1067.35 410.207 986.69 325.938 880.681 302.501C872.724 300.751 864.637 299.327 856.375 298.31C846.331 298.269 797.283 290.05 733.061 312.47C709.624 321.259 686.274 333.303 663.055 348.399C661.011 349.742 658.924 351.044 656.837 352.468C616.573 379.649 587.136 410.776 568.699 445.444C817.937 459.36 1018.26 646.004 1034.48 878.871L1175.31 665.087C1174.18 657.275 1172.92 649.706 1171.57 642.423L1171.66 642.341Z" fill="#7FD0EA"/>
<path d="M899.683 -54.3866C897.335 -55.0783 894.987 -55.8107 892.639 -56.4617C890.856 -56.9907 889.074 -57.479 887.247 -58.0079C884.856 -58.659 882.421 -59.31 879.986 -59.9611C878.247 -60.4086 876.464 -60.8969 874.724 -61.3445C872.159 -61.9955 869.55 -62.6059 866.985 -63.2162C865.332 -63.6231 863.724 -64.03 862.115 -64.3962C859.028 -65.088 855.94 -65.739 852.897 -66.4307C851.723 -66.6749 850.549 -66.919 849.375 -67.2038C845.113 -68.0583 840.852 -68.9128 836.547 -69.6859C835.46 -69.8893 834.33 -70.0521 833.243 -70.2555C830.025 -70.8252 826.807 -71.3949 823.546 -71.8831C821.938 -72.1273 820.285 -72.3714 818.676 -72.6155C815.937 -73.0224 813.154 -73.4293 810.415 -73.7955C808.632 -74.0397 806.806 -74.2838 805.023 -74.4873C802.371 -74.8128 799.762 -75.1383 797.153 -75.4638C795.283 -75.6673 793.413 -75.8707 791.5 -76.0742C788.891 -76.359 786.282 -76.6031 783.674 -76.8473C781.76 -77.01 779.891 -77.1728 777.977 -77.3356C775.325 -77.539 772.673 -77.7424 770.02 -77.9459C768.151 -78.068 766.281 -78.19 764.411 -78.3121C761.628 -78.4749 758.845 -78.6376 756.063 -78.7597C754.28 -78.8411 752.497 -78.9631 750.671 -79.0038C747.627 -79.1259 744.54 -79.2073 741.453 -79.2887C739.931 -79.3293 738.409 -79.4107 736.887 -79.4107C732.278 -79.4921 727.625 -79.5735 722.973 -79.5735C718.32 -79.5735 713.929 -79.5328 709.45 -79.4514C707.537 -79.4514 705.624 -79.3293 703.71 -79.2887C701.145 -79.2073 698.58 -79.1666 696.014 -79.0852C694.362 -79.0038 692.753 -78.9225 691.144 -78.8411C688.318 -78.719 685.492 -78.5969 682.665 -78.4342C681.056 -78.3528 679.491 -78.2307 677.882 -78.1087C675.056 -77.9459 672.23 -77.7831 669.403 -77.5797C667.403 -77.4169 665.403 -77.2542 663.403 -77.0914C661.011 -76.888 658.62 -76.7252 656.228 -76.5218C654.141 -76.3183 652.054 -76.1149 650.01 -75.9114C647.749 -75.708 645.445 -75.5045 643.184 -75.2604C641.184 -75.0569 639.183 -74.8128 637.183 -74.5687C634.835 -74.3245 632.531 -74.0397 630.226 -73.7549C628.313 -73.5107 626.4 -73.2666 624.487 -73.0224C622.139 -72.6969 619.747 -72.4121 617.443 -72.0866C615.573 -71.8424 613.747 -71.5576 611.877 -71.2728C609.529 -70.9066 607.137 -70.5811 604.789 -70.2149C602.876 -69.8893 600.963 -69.6045 599.05 -69.279C596.789 -68.9128 594.528 -68.5873 592.31 -68.1804C590.397 -67.8549 588.527 -67.5293 586.657 -67.1631C584.396 -66.7562 582.135 -66.39 579.874 -65.9831C578.091 -65.6576 576.352 -65.2914 574.569 -64.9659C572.265 -64.5183 569.96 -64.0707 567.612 -63.6231C565.96 -63.2976 564.308 -62.9314 562.655 -62.6059C560.307 -62.1176 557.916 -61.6293 555.524 -61.1411C553.916 -60.8155 552.35 -60.4493 550.741 -60.0831C548.35 -59.5542 545.958 -59.0659 543.61 -58.4962C541.958 -58.13 540.349 -57.7231 538.74 -57.3569C536.436 -56.8279 534.131 -56.299 531.87 -55.7293C530.218 -55.3224 528.609 -54.9155 526.957 -54.5086C525.174 -54.061 523.391 -53.6135 521.609 -53.1659L400.686 151.951L338.55 257.337C350.16 266.777 362.9 275.363 376.684 282.646C392.946 233.819 419.47 188.246 454.429 148.858C472.344 128.676 492.432 110.081 514.478 93.5612C589.179 37.5315 679.404 7.90936 775.369 7.90936C823.242 7.90936 870.029 15.4776 914.076 29.9632L904.249 -52.9624C902.77 -53.41 901.292 -53.8576 899.814 -54.3459L899.683 -54.3866Z" fill="#29E57E"/>
<path d="M1196.14 159.846C1194.58 157.771 1193.05 155.737 1191.49 153.743C1190.14 151.993 1188.79 150.243 1187.45 148.534C1185.92 146.541 1184.36 144.588 1182.79 142.634C1181.4 140.925 1180.05 139.216 1178.66 137.508C1177.1 135.595 1175.49 133.683 1173.92 131.77C1172.53 130.102 1171.14 128.474 1169.75 126.806C1168.14 124.894 1166.49 123.022 1164.83 121.15C1163.44 119.563 1162.1 117.976 1160.7 116.39C1158.96 114.436 1157.23 112.483 1155.44 110.571C1154.14 109.147 1152.83 107.682 1151.53 106.258C1149.36 103.939 1147.18 101.619 1145.01 99.2999C1143.7 97.9571 1142.44 96.5737 1141.14 95.2309C1138.44 92.464 1135.75 89.6971 1133.05 87.0116C1131.74 85.7095 1130.44 84.4482 1129.14 83.1868C1127.27 81.315 1125.35 79.484 1123.48 77.653C1122.05 76.2695 1120.61 74.9268 1119.14 73.584C1117.35 71.9157 1115.57 70.2067 1113.74 68.5792C1112.27 67.1957 1110.74 65.853 1109.22 64.5102C1107.44 62.9233 1105.66 61.3364 1103.87 59.7495C1102.35 58.4067 1100.79 57.064 1099.26 55.7619C1097.48 54.2157 1095.65 52.7102 1093.83 51.164C1092.26 49.8619 1090.74 48.5598 1089.18 47.2578C1087.31 45.7522 1085.48 44.2467 1083.61 42.7819C1082.09 41.5612 1080.52 40.2998 1079 39.0791C1077.04 37.5736 1075.13 36.0681 1073.13 34.5626C1071.65 33.4233 1070.17 32.2839 1068.65 31.1446C1066.48 29.517 1064.26 27.9301 1062.04 26.3026C1060.78 25.3667 1059.52 24.4308 1058.22 23.5357C1054.78 21.0943 1051.35 18.6936 1047.87 16.3336C1046.69 15.5198 1045.52 14.7874 1044.35 13.9736C1041.95 12.3867 1039.56 10.7591 1037.17 9.21288C1035.65 8.23632 1034.13 7.30046 1032.65 6.3646C1030.52 5.02184 1028.43 3.67908 1026.3 2.4177C1024.69 1.44114 1023.08 0.464596 1021.47 -0.511959C1019.43 -1.73265 1017.39 -2.95335 1015.3 -4.17404C1013.65 -5.15059 1011.95 -6.08645 1010.3 -7.063C1008.26 -8.20232 1006.21 -9.34163 1004.17 -10.4809C1002.47 -11.4168 1000.78 -12.312 999.082 -13.2478C996.995 -14.3872 994.908 -15.4451 992.82 -16.5844C991.125 -17.4389 989.472 -18.334 987.777 -19.1885C985.602 -20.2872 983.428 -21.3451 981.254 -22.4437C979.602 -23.2575 977.993 -24.0306 976.341 -24.8444C973.993 -25.9837 971.601 -27.0823 969.21 -28.181C967.731 -28.8727 966.297 -29.5644 964.818 -30.2155C961.557 -31.6803 958.296 -33.1044 955.035 -34.4879C954.252 -34.8134 953.469 -35.1796 952.643 -35.5051C948.947 -37.0513 945.208 -38.5568 941.468 -40.0624C940.034 -40.632 938.599 -41.161 937.164 -41.6899C934.598 -42.6665 932.076 -43.6431 929.511 -44.5789C927.859 -45.1893 926.206 -45.7589 924.554 -46.3693C922.206 -47.2237 919.814 -48.0375 917.423 -48.8513C915.684 -49.421 913.944 -49.9906 912.205 -50.5603L921.597 32.3653C974.254 50.7571 1022.78 79.1585 1064.35 116.471C1086.35 136.205 1105.74 157.852 1122.4 181.046L1197.75 161.718C1197.27 161.067 1196.79 160.416 1196.32 159.805L1196.14 159.846Z" fill="#52CC52"/>
<path d="M508.738 -49.9534C507.303 -49.5872 505.868 -49.1803 504.389 -48.7734C502.085 -48.163 499.78 -47.512 497.476 -46.9016C496.128 -46.5354 494.78 -46.1285 493.432 -45.7216C491.084 -45.0706 488.736 -44.3789 486.431 -43.6872C485.04 -43.2803 483.692 -42.8734 482.344 -42.4665C480.083 -41.7747 477.822 -41.1237 475.561 -40.432C474.343 -40.0658 473.126 -39.6996 471.908 -39.2927C469.56 -38.5603 467.212 -37.8278 464.908 -37.0954C463.777 -36.7292 462.69 -36.363 461.56 -36.0375C459.168 -35.2644 456.777 -34.4913 454.472 -33.7182C453.429 -33.3927 452.429 -33.0265 451.385 -32.6603C448.993 -31.8872 446.559 -31.0734 444.211 -30.2596C443.254 -29.934 442.297 -29.6085 441.341 -29.2423C438.949 -28.4285 436.558 -27.6147 434.21 -26.7602C433.253 -26.4347 432.34 -26.0685 431.427 -25.743C429.079 -24.8885 426.731 -24.0747 424.426 -23.2202C423.6 -22.9354 422.817 -22.6099 422.035 -22.3251C419.643 -21.4299 417.208 -20.5754 414.86 -19.6395C414.295 -19.4361 413.686 -19.192 413.077 -18.9478C410.556 -17.9713 408.034 -17.0354 405.512 -16.0589C405.033 -15.8961 404.555 -15.6926 404.033 -15.4892C401.468 -14.472 398.902 -13.4954 396.38 -12.4782C396.033 -12.3561 395.728 -12.1933 395.38 -12.0713C392.728 -11.0133 390.119 -9.9554 387.51 -8.89747C387.38 -8.85678 387.293 -8.81609 387.162 -8.7754C378.77 -5.35746 370.726 -1.93953 363.073 1.43772C361.769 2.21082 360.508 2.98392 359.247 3.75703C358.29 4.32669 357.247 4.93703 356.29 5.54738C354.768 6.48324 353.29 7.41911 351.812 8.31428C351.029 8.80256 350.246 9.29083 349.464 9.77911C347.855 10.7963 346.289 11.8136 344.681 12.8308C344.115 13.197 343.507 13.5632 342.941 13.9701C341.246 15.0281 339.637 16.1267 338.028 17.1846C337.55 17.4695 337.115 17.795 336.636 18.0798C334.897 19.2191 333.201 20.3584 331.506 21.4977C331.201 21.7012 330.853 21.9046 330.549 22.1081C328.853 23.2474 327.201 24.346 325.549 25.4853C325.288 25.6888 324.983 25.8515 324.722 26.055C322.94 27.235 321.244 28.4557 319.505 29.595C319.374 29.6764 319.244 29.7577 319.113 29.8798C317.287 31.1412 315.504 32.3619 313.765 33.5419C305.286 39.3605 297.72 46.0743 291.285 53.3578C262.587 85.9909 257.586 130.79 276.718 177.95C278.632 182.67 280.719 187.39 283.11 192.191C283.11 192.272 283.241 192.394 283.284 192.476C295.068 213.634 311.895 234.549 332.854 252.697L391.684 152.885L511.694 -50.6858C510.694 -50.4417 509.651 -50.1568 508.651 -49.872L508.738 -49.9534Z" fill="#5CEA5C"/>
<path d="M914.771 37.2477C871.202 22.5994 824.198 14.5835 775.238 14.5835C651.402 14.5835 538.914 65.5677 463.038 148.737C427.296 187.922 399.729 234.267 382.901 285.821C411.338 299.778 443.906 308.445 479.475 308.445C491.693 308.445 504.042 307.387 516.217 305.271C550.089 299.452 577.57 288.507 602.745 270.847C619.182 259.332 632.748 246.433 647.14 232.762C660.881 219.7 674.795 206.517 691.361 194.432C719.625 173.802 755.628 156.387 811.719 148.575C823.894 146.866 837.2 146.011 851.157 146.011C875.464 146.011 901.379 148.575 928.164 153.376L914.771 37.2477Z" fill="#22F4A8"/>
</svg>
