<svg width="1144" height="781" viewBox="0 0 1144 781" fill="none" xmlns="http://www.w3.org/2000/svg">
<g opacity="0.49">
<path d="M1179.92 676.047L1038.26 891.092C1038.35 893.208 1038.43 895.283 1038.52 897.359L1178.1 929.87C1178.44 927.103 1178.84 924.336 1179.14 921.569C1190.31 820.414 1188.45 739.93 1179.97 676.047H1179.92Z" fill="#3AAACC"/>
<path d="M788.587 1011.33L789.456 1011.17C789.804 1012.55 797.674 1045.26 797.674 1089.62C797.674 1102.39 796.979 1116.67 795.022 1131.73L840.026 1179.13L1023.39 900.856L1023.65 900.49L658.793 780.374C658.793 780.374 659.098 780.74 659.272 780.903C729.147 861.102 772.716 939.105 788.63 1011.33H788.587Z" fill="#2D899E"/>
<path d="M1030.95 889.3C1019.82 654.439 818.85 465.029 568.481 452.415C559.654 470.644 553.741 489.768 550.915 509.869C536.392 613.058 603.136 713.765 650.314 770.405L1027.52 894.59L1031 889.3H1030.95Z" fill="#3AAACC"/>
<path d="M1118.22 183.457C1071.48 118.883 1004.26 68.5901 925.337 40.3921L938.555 155.3C981.168 163.6 1025.65 177.598 1068.74 196.193L1118.22 183.498V183.457Z" fill="#27C46A"/>
<path d="M1329.37 406.964C1329.11 406.313 1328.89 405.621 1328.63 404.97C1327.8 402.692 1326.94 400.454 1326.11 398.216C1324.98 395.123 1323.8 392.072 1322.63 389.02C1321.72 386.701 1320.85 384.381 1319.93 382.103C1318.76 379.173 1317.63 376.243 1316.46 373.314C1315.54 370.994 1314.59 368.716 1313.67 366.396C1312.5 363.507 1311.33 360.659 1310.11 357.811C1309.19 355.532 1308.24 353.294 1307.28 351.056C1306.06 348.167 1304.85 345.319 1303.59 342.471C1302.63 340.314 1301.72 338.117 1300.76 335.961C1299.45 332.99 1298.11 330.02 1296.76 327.09C1295.89 325.096 1294.98 323.143 1294.06 321.149C1292.41 317.569 1290.76 314.029 1289.11 310.489C1288.5 309.187 1287.89 307.885 1287.28 306.623C1285.02 301.903 1282.76 297.265 1280.45 292.626C1279.54 290.836 1278.67 289.045 1277.76 287.255C1276.32 284.366 1274.84 281.477 1273.37 278.629C1272.32 276.594 1271.28 274.6 1270.24 272.607C1269.5 271.183 1268.76 269.799 1268.02 268.375C1267.5 267.398 1266.93 266.381 1266.41 265.405C1265.06 262.923 1263.71 260.481 1262.36 258.04C1261.23 256.005 1260.06 253.93 1258.93 251.896C1257.58 249.495 1256.19 247.135 1254.84 244.734C1253.67 242.7 1252.49 240.706 1251.32 238.671C1249.93 236.311 1248.54 233.992 1247.15 231.632C1245.97 229.679 1244.8 227.685 1243.58 225.732C1242.15 223.372 1240.67 221.012 1239.19 218.693C1238.01 216.821 1236.88 214.949 1235.71 213.118C1234.1 210.596 1232.49 208.073 1230.84 205.591C1229.8 203.963 1228.75 202.336 1227.71 200.749C1225.1 196.802 1222.45 192.855 1219.8 188.949C1218.84 187.565 1217.88 186.182 1216.93 184.798C1215.14 182.235 1213.36 179.631 1211.53 177.108C1210.32 175.399 1209.1 173.731 1207.88 172.062C1206.93 170.72 1205.97 169.418 1205.01 168.115L1129.48 187.524C1142.27 206.038 1153.27 225.488 1162.49 245.67C1216.75 280.297 1280.67 332.624 1329.46 406.964H1329.37Z" fill="#1AAD71"/>
<path d="M1078.74 200.587C1103.74 211.858 1128.18 224.675 1151.4 238.835C1143.01 221.623 1133.31 205.103 1122.4 189.397L1078.74 200.587Z" fill="#52CC52"/>
<path d="M1288.71 268.579C1293.67 278.06 1298.59 287.622 1303.37 297.469L1360.29 389.509L1429.68 284.123C1416.77 261.987 1402.68 240.218 1387.29 218.938C1243.19 19.5581 1019.48 -99.5 788.891 -99.5C905.162 -88.1883 1008.56 -46.6848 1096.92 24.3188C1172.01 84.6209 1236.1 166.326 1288.71 268.538V268.579Z" fill="#00F5DA"/>
<path d="M391.902 386.008C377.031 373.639 362.595 364.89 347.811 359.316C334.115 354.148 319.939 351.666 304.503 351.666C280.328 351.666 252.89 357.729 218.235 370.668C212.887 372.703 207.495 374.412 202.104 375.917C188.624 379.661 175.058 381.817 161.013 382.428C158.187 382.55 155.404 382.631 152.534 382.631C128.228 382.631 105.878 378.074 86.1811 374.086L79.7893 372.784C78.3544 372.499 76.876 372.092 75.4411 371.604C74.9628 371.441 74.4845 371.238 74.0062 371.075C73.0061 370.709 72.0061 370.384 71.0495 369.936C70.4842 369.692 69.9189 369.448 69.3537 369.163C68.4405 368.715 67.5709 368.268 66.6578 367.82C66.0925 367.495 65.5273 367.169 64.962 366.844C64.0924 366.355 63.2227 365.826 62.3966 365.257C61.8748 364.89 61.3095 364.524 60.7877 364.158C59.9181 363.548 59.1354 362.937 58.3093 362.286C57.831 361.92 57.3527 361.554 56.8744 361.147C55.9613 360.374 55.0916 359.56 54.222 358.746C53.9176 358.421 53.5263 358.136 53.2219 357.81C52.0914 356.712 51.0478 355.572 50.0477 354.352C37.6119 381.451 27.5676 407.086 19.8713 431.337C40.8731 493.673 128.358 540.589 232.802 540.589C326.723 540.589 406.903 502.706 437.427 449.769C427.296 424.664 411.904 402.732 391.815 386.049L391.902 386.008Z" fill="#F805D1"/>
<path d="M382.292 689.392L379.509 688.497L372.335 686.137C372.335 686.137 372.335 686.137 372.422 686.056L3 564.434C6.04373 587.871 13.0443 608.827 24.1322 627.096C68.1358 699.483 147.447 744.486 231.193 744.486C260.151 744.486 289.328 739.278 317.852 728.943C323.461 726.908 328.896 724.629 334.245 722.107C334.375 721.985 334.505 721.903 334.592 721.781C344.158 717.224 353.246 711.894 361.855 705.871C369.03 700.867 375.857 695.333 382.292 689.392Z" fill="#8F239B"/>
<path d="M440.036 457.738C406.121 510.105 325.766 547.011 232.28 547.011C129.663 547.011 42.9168 502.537 16.0016 441.95C3.39182 485.041 -1.43466 523.33 1.60907 556.736L377.118 680.392L384.51 682.793L387.554 683.81C397.642 673.719 406.686 662.488 414.6 650.281C420.557 641.086 425.861 631.361 430.47 621.148C437.732 604.994 443.254 587.66 446.82 569.35C454.472 529.921 451.733 491.307 440.036 457.778V457.738Z" fill="#DA26DD"/>
<path d="M846.417 278.058C819.024 260.317 791.152 243.471 762.888 227.806C746.452 218.691 729.799 210.431 712.971 202.904C694.057 215.599 678.708 230.166 663.011 245.058C648.792 258.567 634.095 272.524 616.572 284.812C594.918 299.989 571.742 310.569 544.914 317.486C564.09 320.456 584.048 324.688 604.832 330.1C607.615 329.286 610.398 328.432 613.181 327.658C639.313 320.416 666.75 314.963 697.057 311.016C697.361 310.976 697.666 310.935 698.014 310.894C742.756 288.922 788.064 277.732 833.286 277.732C837.677 277.732 842.025 277.814 846.374 278.058H846.417Z" fill="#9948C9"/>
<path d="M375.683 329.207C384.684 325.992 390.684 322.9 400.946 321.598C403.077 321.028 405.251 320.458 407.425 319.929C401.859 315.209 395.815 310.774 389.38 306.542C386.554 305.322 383.771 304.101 380.988 302.758C379.901 306.868 376.857 318.465 375.683 329.166V329.207Z" fill="#B127BB"/>
<path d="M329.114 278.628L295.807 335.105C298.764 334.942 301.634 334.82 304.503 334.82C306.634 334.82 308.721 334.861 310.852 334.942C311.504 334.942 312.2 335.024 312.852 335.064C314.243 335.146 315.635 335.227 317.07 335.349C317.896 335.431 318.679 335.512 319.461 335.593C320.722 335.715 321.94 335.837 323.201 336C324.027 336.122 324.853 336.244 325.723 336.366C326.897 336.529 328.071 336.733 329.245 336.895C330.071 337.058 330.94 337.221 331.767 337.343C332.941 337.546 334.071 337.791 335.202 338.035C336.028 338.197 336.897 338.401 337.724 338.604C338.854 338.848 339.985 339.133 341.115 339.459C341.941 339.703 342.768 339.906 343.594 340.151C344.724 340.476 345.855 340.802 346.985 341.168C347.811 341.412 348.594 341.656 349.377 341.941C349.681 342.022 349.986 342.104 350.246 342.226C363.508 334.779 363.813 334.088 366.074 332.826C366.074 332.826 370.857 309.104 374.292 299.542C367.074 295.839 360.073 291.811 353.334 287.539C345.594 284.284 337.506 281.273 329.114 278.668V278.628Z" fill="#793EA3"/>
<path d="M59.0918 332.911L60.0049 333.236C59.4397 335.311 60.2658 338.2 62.3529 341.415C66.875 348.291 76.2236 354.842 83.6156 356.348L90.0509 357.65C107.313 361.149 125.097 364.771 144.273 365.625C147.012 365.747 149.751 365.788 152.578 365.788C172.971 365.788 192.277 362.248 211.583 355.046C240.672 344.182 265.152 337.915 287.241 335.759L322.157 276.515C294.894 268.743 264.717 264.348 232.932 264.348C169.884 264.348 113.053 281.438 73.2669 308.659C68.5708 315.17 64.527 321.639 61.3963 327.987C60.5702 329.615 59.831 331.242 59.1353 332.911H59.0918Z" fill="#B127BB"/>
<path d="M649.4 339.218C659.618 332.301 669.88 326.034 680.185 320.297C658.053 323.756 637.356 328.15 617.485 333.521C626.659 336.085 636.008 338.933 645.487 341.944C646.791 341.049 648.052 340.113 649.357 339.218H649.4Z" fill="#8F239B"/>
<path d="M279.762 178.372C279.544 178.454 279.327 178.494 279.109 178.576C280.196 181.017 281.327 183.418 282.544 185.859C283.718 188.219 284.979 190.539 286.327 192.899C286.284 192.817 286.197 192.695 286.153 192.614C283.762 187.853 281.675 183.092 279.762 178.372Z" fill="#5D5D5D"/>
<path d="M266.283 193.061C264.848 190.172 263.5 187.283 262.239 184.394C238.368 192.98 217.54 202.175 200.147 210.842C152.274 234.768 112.314 263.82 86.1379 292.791C125.532 270.9 176.841 257.595 232.889 257.595C265.935 257.595 297.329 262.233 325.636 270.534L327.027 268.174C300.373 245.876 279.632 219.387 266.283 193.02V193.061Z" fill="#793EA3"/>
<path d="M1174.66 642.841C1165.4 592.427 1152.05 554.016 1138.88 524.882C1126.01 496.44 1113.31 476.868 1104.74 463.685C1070.35 410.707 989.69 326.438 883.681 303.001C875.724 301.251 867.637 299.827 859.375 298.81C849.331 298.769 800.283 290.55 736.061 312.97C712.624 321.759 689.274 333.803 666.055 348.899C664.011 350.242 661.924 351.544 659.837 352.968C619.573 380.149 590.136 411.276 571.699 445.944C820.937 459.86 1021.26 646.504 1037.48 879.371L1178.31 665.587C1177.18 657.775 1175.92 650.206 1174.57 642.923L1174.66 642.841Z" fill="#7FD0EA"/>
<path d="M902.683 -53.8866C900.335 -54.5783 897.987 -55.3107 895.639 -55.9617C893.856 -56.4907 892.074 -56.979 890.247 -57.5079C887.856 -58.159 885.421 -58.81 882.986 -59.4611C881.247 -59.9086 879.464 -60.3969 877.725 -60.8445C875.159 -61.4955 872.55 -62.1059 869.985 -62.7162C868.332 -63.1231 866.724 -63.53 865.115 -63.8962C862.028 -64.588 858.94 -65.239 855.897 -65.9307C854.723 -66.1749 853.549 -66.419 852.375 -66.7038C848.113 -67.5583 843.852 -68.4128 839.547 -69.1859C838.46 -69.3893 837.33 -69.5521 836.243 -69.7555C833.025 -70.3252 829.808 -70.8949 826.546 -71.3831C824.938 -71.6273 823.285 -71.8714 821.676 -72.1155C818.937 -72.5224 816.154 -72.9293 813.415 -73.2955C811.632 -73.5397 809.806 -73.7838 808.023 -73.9873C805.371 -74.3128 802.762 -74.6383 800.153 -74.9638C798.283 -75.1673 796.413 -75.3707 794.5 -75.5742C791.891 -75.859 789.282 -76.1031 786.674 -76.3473C784.76 -76.51 782.891 -76.6728 780.977 -76.8356C778.325 -77.039 775.673 -77.2424 773.02 -77.4459C771.151 -77.568 769.281 -77.69 767.411 -77.8121C764.628 -77.9749 761.845 -78.1376 759.063 -78.2597C757.28 -78.3411 755.497 -78.4631 753.671 -78.5038C750.627 -78.6259 747.54 -78.7073 744.453 -78.7887C742.931 -78.8293 741.409 -78.9107 739.887 -78.9107C735.278 -78.9921 730.625 -79.0735 725.973 -79.0735C721.32 -79.0735 716.929 -79.0328 712.45 -78.9514C710.537 -78.9514 708.624 -78.8293 706.71 -78.7887C704.145 -78.7073 701.58 -78.6666 699.014 -78.5852C697.362 -78.5038 695.753 -78.4225 694.144 -78.3411C691.318 -78.219 688.492 -78.0969 685.665 -77.9342C684.056 -77.8528 682.491 -77.7307 680.882 -77.6087C678.056 -77.4459 675.23 -77.2831 672.403 -77.0797C670.403 -76.9169 668.403 -76.7542 666.403 -76.5914C664.011 -76.388 661.62 -76.2252 659.228 -76.0218C657.141 -75.8183 655.054 -75.6149 653.01 -75.4114C650.749 -75.208 648.445 -75.0045 646.184 -74.7604C644.184 -74.5569 642.183 -74.3128 640.183 -74.0687C637.835 -73.8245 635.531 -73.5397 633.226 -73.2549C631.313 -73.0107 629.4 -72.7666 627.487 -72.5224C625.139 -72.1969 622.747 -71.9121 620.443 -71.5866C618.573 -71.3424 616.747 -71.0576 614.877 -70.7728C612.529 -70.4066 610.137 -70.0811 607.789 -69.7149C605.876 -69.3893 603.963 -69.1045 602.05 -68.779C599.789 -68.4128 597.528 -68.0873 595.31 -67.6804C593.397 -67.3549 591.527 -67.0293 589.657 -66.6631C587.396 -66.2562 585.135 -65.89 582.874 -65.4831C581.091 -65.1576 579.352 -64.7914 577.569 -64.4659C575.265 -64.0183 572.96 -63.5707 570.612 -63.1231C568.96 -62.7976 567.308 -62.4314 565.655 -62.1059C563.307 -61.6176 560.916 -61.1293 558.524 -60.6411C556.916 -60.3155 555.35 -59.9493 553.741 -59.5831C551.35 -59.0542 548.958 -58.5659 546.61 -57.9962C544.958 -57.63 543.349 -57.2231 541.74 -56.8569C539.436 -56.3279 537.131 -55.799 534.87 -55.2293C533.218 -54.8224 531.609 -54.4155 529.957 -54.0086C528.174 -53.561 526.391 -53.1135 524.609 -52.6659L403.686 152.451L341.55 257.837C353.16 267.277 365.9 275.863 379.684 283.146C395.946 234.319 422.47 188.746 457.429 149.358C475.344 129.176 495.432 110.581 517.478 94.0612C592.179 38.0315 682.404 8.40936 778.369 8.40936C826.242 8.40936 873.028 15.9776 917.076 30.4632L907.249 -52.4624C905.77 -52.91 904.292 -53.3576 902.814 -53.8459L902.683 -53.8866Z" fill="#29E57E"/>
<path d="M1199.14 160.346C1197.58 158.271 1196.05 156.236 1194.49 154.242C1193.14 152.493 1191.79 150.743 1190.45 149.034C1188.92 147.04 1187.36 145.087 1185.79 143.134C1184.4 141.425 1183.05 139.716 1181.66 138.007C1180.1 136.095 1178.49 134.182 1176.92 132.27C1175.53 130.602 1174.14 128.974 1172.75 127.306C1171.14 125.393 1169.49 123.522 1167.83 121.65C1166.44 120.063 1165.1 118.476 1163.7 116.889C1161.96 114.936 1160.23 112.983 1158.44 111.071C1157.14 109.647 1155.83 108.182 1154.53 106.758C1152.36 104.438 1150.18 102.119 1148.01 99.7997C1146.7 98.4569 1145.44 97.0734 1144.14 95.7307C1141.44 92.9638 1138.75 90.1969 1136.05 87.5113C1134.74 86.2093 1133.44 84.9479 1132.14 83.6865C1130.27 81.8148 1128.35 79.9838 1126.48 78.1527C1125.05 76.7693 1123.61 75.4265 1122.14 74.0837C1120.35 72.4155 1118.57 70.7065 1116.74 69.0789C1115.27 67.6955 1113.74 66.3527 1112.22 65.0099C1110.44 63.423 1108.66 61.8361 1106.87 60.2492C1105.35 58.9065 1103.79 57.5637 1102.26 56.2617C1100.48 54.7154 1098.65 53.2099 1096.83 51.6637C1095.26 50.3617 1093.74 49.0596 1092.18 47.7575C1090.31 46.252 1088.48 44.7465 1086.61 43.2816C1085.09 42.061 1083.52 40.7996 1082 39.5789C1080.04 38.0734 1078.13 36.5678 1076.13 35.0623C1074.65 33.923 1073.17 32.7837 1071.65 31.6444C1069.48 30.0168 1067.26 28.4299 1065.04 26.8023C1063.78 25.8665 1062.52 24.9306 1061.22 24.0354C1057.78 21.594 1054.35 19.1933 1050.87 16.8333C1049.69 16.0195 1048.52 15.2871 1047.35 14.4733C1044.95 12.8864 1042.56 11.2588 1040.17 9.71263C1038.65 8.73608 1037.13 7.80022 1035.65 6.86435C1033.52 5.52159 1031.43 4.17883 1029.3 2.91745C1027.69 1.9409 1026.08 0.96435 1024.47 -0.0122029C1022.43 -1.23289 1020.39 -2.45359 1018.3 -3.67428C1016.65 -4.65084 1014.95 -5.5867 1013.3 -6.56325C1011.26 -7.70256 1009.21 -8.84187 1007.17 -9.98118C1005.47 -10.917 1003.78 -11.8122 1002.08 -12.7481C999.995 -13.8874 997.908 -14.9453 995.82 -16.0846C994.125 -16.9391 992.472 -17.8343 990.777 -18.6888C988.602 -19.7874 986.428 -20.8453 984.254 -21.944C982.602 -22.7578 980.993 -23.5309 979.341 -24.3447C976.993 -25.484 974.601 -26.5826 972.21 -27.6812C970.731 -28.3729 969.297 -29.0647 967.818 -29.7157C964.557 -31.1805 961.296 -32.6047 958.035 -33.9881C957.252 -34.3136 956.469 -34.6798 955.643 -35.0054C951.947 -36.5516 948.208 -38.0571 944.468 -39.5626C943.034 -40.1323 941.599 -40.6612 940.164 -41.1902C937.598 -42.1667 935.076 -43.1433 932.511 -44.0792C930.859 -44.6895 929.206 -45.2592 927.554 -45.8695C925.206 -46.724 922.814 -47.5378 920.423 -48.3516C918.684 -48.9212 916.944 -49.4909 915.205 -50.0605L924.597 32.8651C977.254 51.2568 1025.78 79.6583 1067.35 116.971C1089.35 136.705 1108.74 158.352 1125.4 181.545L1200.75 162.218C1200.27 161.567 1199.79 160.916 1199.32 160.305L1199.14 160.346Z" fill="#52CC52"/>
<path d="M511.738 -49.4534C510.303 -49.0872 508.868 -48.6803 507.389 -48.2734C505.085 -47.663 502.78 -47.012 500.476 -46.4016C499.128 -46.0354 497.78 -45.6285 496.432 -45.2216C494.084 -44.5706 491.736 -43.8789 489.431 -43.1872C488.04 -42.7803 486.692 -42.3734 485.344 -41.9665C483.083 -41.2747 480.822 -40.6237 478.561 -39.932C477.343 -39.5658 476.126 -39.1996 474.908 -38.7927C472.56 -38.0603 470.212 -37.3278 467.908 -36.5954C466.777 -36.2292 465.69 -35.863 464.56 -35.5375C462.168 -34.7644 459.777 -33.9913 457.472 -33.2182C456.429 -32.8927 455.429 -32.5265 454.385 -32.1603C451.994 -31.3872 449.559 -30.5734 447.211 -29.7596C446.254 -29.434 445.297 -29.1085 444.341 -28.7423C441.949 -27.9285 439.558 -27.1147 437.21 -26.2602C436.253 -25.9347 435.34 -25.5685 434.427 -25.243C432.079 -24.3885 429.731 -23.5747 427.426 -22.7202C426.6 -22.4354 425.817 -22.1099 425.035 -21.8251C422.643 -20.9299 420.208 -20.0754 417.86 -19.1395C417.295 -18.9361 416.686 -18.692 416.078 -18.4478C413.556 -17.4713 411.034 -16.5354 408.512 -15.5589C408.033 -15.3961 407.555 -15.1926 407.033 -14.9892C404.468 -13.972 401.902 -12.9954 399.38 -11.9782C399.033 -11.8561 398.728 -11.6933 398.38 -11.5713C395.728 -10.5133 393.119 -9.4554 390.51 -8.39747C390.38 -8.35678 390.293 -8.31609 390.162 -8.2754C381.77 -4.85746 373.726 -1.43953 366.073 1.93772C364.769 2.71082 363.508 3.48393 362.247 4.25703C361.29 4.82669 360.247 5.43703 359.29 6.04738C357.768 6.98324 356.29 7.91911 354.812 8.81428C354.029 9.30256 353.246 9.79083 352.464 10.2791C350.855 11.2963 349.289 12.3136 347.681 13.3308C347.115 13.697 346.507 14.0632 345.941 14.4701C344.246 15.5281 342.637 16.6267 341.028 17.6846C340.55 17.9695 340.115 18.295 339.636 18.5798C337.897 19.7191 336.201 20.8584 334.506 21.9977C334.201 22.2012 333.853 22.4046 333.549 22.6081C331.853 23.7474 330.201 24.846 328.549 25.9853C328.288 26.1888 327.983 26.3515 327.722 26.555C325.94 27.735 324.244 28.9557 322.505 30.095C322.374 30.1764 322.244 30.2577 322.113 30.3798C320.287 31.6412 318.504 32.8619 316.765 34.0419C308.286 39.8605 300.72 46.5743 294.285 53.8578C265.587 86.4909 260.586 131.29 279.718 178.45C281.632 183.17 283.719 187.89 286.11 192.691C286.11 192.772 286.241 192.894 286.284 192.976C298.068 214.135 314.895 235.049 335.854 253.197L394.684 153.385L514.694 -50.1858C513.694 -49.9417 512.651 -49.6568 511.651 -49.372L511.738 -49.4534Z" fill="#5CEA5C"/>
<path d="M917.771 37.7477C874.202 23.0994 827.198 15.0835 778.238 15.0835C654.402 15.0835 541.914 66.0677 466.038 149.237C430.296 188.422 402.729 234.767 385.901 286.321C414.338 300.278 446.906 308.945 482.475 308.945C494.693 308.945 507.042 307.887 519.217 305.771C553.089 299.952 580.57 289.007 605.745 271.347C622.182 259.832 635.748 246.933 650.14 233.262C663.881 220.2 677.795 207.017 694.361 194.932C722.625 174.302 758.628 156.887 814.719 149.075C826.894 147.366 840.2 146.511 854.157 146.511C878.464 146.511 904.379 149.075 931.164 153.876L917.771 37.7477Z" fill="#22F4A8"/>
</g>
</svg>
