<svg width="1920" height="2110" viewBox="0 0 1920 2110" fill="none" xmlns="http://www.w3.org/2000/svg">
<g clip-path="url(#clip0_505_114)">
<path fill-rule="evenodd" clip-rule="evenodd" d="M1626.63 -542.879L1612.98 -553.297L1599.78 -564.175L1586.99 -575.524L1574.61 -587.372L1562.61 -599.73L1550.96 -612.617L1539.62 -626.025L1528.57 -639.963L1517.78 -654.42L1507.17 -669.388L1496.72 -684.835L1486.4 -700.752L1476.14 -717.12L1465.91 -733.877L1455.66 -751.014L1445.33 -768.481L1434.89 -786.238L1424.29 -804.225L1413.5 -822.392L1402.46 -840.699L1391.14 -859.056L1379.5 -877.402L1367.49 -895.669L1355.08 -913.766L1342.24 -931.633L1328.95 -949.19L1315.18 -966.347L1300.91 -983.055L1286.14 -999.222L1270.85 -1014.77L1255.03 -1029.63L1238.69 -1043.72L1221.82 -1056.97L1204.42 -1069.3L1186.52 -1080.63L1168.11 -1090.91L1149.23 -1100.06L1129.89 -1108.05L1110.14 -1114.81L1090 -1120.3L1069.49 -1124.49L1048.67 -1127.34L1027.57 -1128.85L1006.25 -1129L984.741 -1127.78L963.097 -1125.19L941.365 -1121.26L919.594 -1116L897.835 -1109.44L876.133 -1101.62L854.537 -1092.58L833.092 -1082.36L811.843 -1071.02L790.831 -1058.62L770.093 -1045.23L749.667 -1030.94L729.587 -1015.79L709.878 -999.882L690.567 -983.294L671.676 -966.107L653.223 -948.42L635.219 -930.303L617.673 -911.867L600.591 -893.19L583.971 -874.363L567.811 -855.476L552.101 -836.619L536.831 -817.873L521.984 -799.316L507.538 -781.029L493.473 -763.102L479.761 -745.585L466.372 -728.568L453.274 -712.091L440.434 -696.233L427.815 -681.036L415.377 -666.558L403.082 -652.821L390.89 -639.883L378.76 -627.755L366.648 -616.467L354.514 -606.038L342.32 -596.48L330.023 -587.791L317.584 -579.973L304.967 -573.024L292.136 -566.935L279.059 -561.666L265.704 -557.217L252.045 -553.537L238.055 -550.608L223.712 -548.378L209 -546.818L193.904 -545.869L178.412 -545.479L162.518 -545.589L146.22 -546.159L129.518 -547.108L112.42 -548.378L94.9361 -549.908L77.0806 -551.638L58.8733 -553.477L40.3381 -555.377L21.5027 -557.257L2.39875 -559.046L-16.9383 -560.686L-36.4691 -562.106L-56.1508 -563.246L-75.9386 -564.026L-95.7858 -564.406L-115.644 -564.325L-135.467 -563.726L-155.208 -562.586L-174.818 -560.866L-194.252 -558.517L-213.459 -555.517L-232.39 -551.838L-250.993 -547.448L-269.216 -542.329L-287.009 -536.46L-304.321 -529.831L-321.103 -522.433L-337.309 -514.244L-352.894 -505.286L-367.818 -495.547L-382.041 -485.049L-395.53 -473.791L-408.254 -461.803L-420.188 -449.105L-431.311 -435.717L-441.606 -421.68L-451.062 -407.012L-459.675 -391.765L-467.446 -375.977L-474.379 -359.7L-480.486 -342.963L-485.783 -325.816L-490.295 -308.319L-494.046 -290.512L-497.072 -272.455L-499.41 -254.178L-501.101 -235.751L-502.193 -217.224L-502.738 -198.627L-502.789 -180.021L-502.405 -161.444L-501.648 -142.947L-500.578 -124.55L-499.262 -106.313L-497.766 -88.2561L-496.159 -70.4091L-494.506 -52.8021L-492.878 -35.4651L-491.339 -18.3979L-489.957 -1.64076L-488.796 14.8164L-487.919 30.9637L-487.386 46.781L-487.254 62.2783L-487.577 77.4658L-488.407 92.3532L-489.789 106.931L-491.766 121.238L-494.379 135.27L-497.657 149.061L-501.631 162.628L-506.326 175.998L-511.761 189.197L-517.95 202.253L-524.903 215.195L-532.623 228.056L-541.114 240.867L-550.367 253.66L-560.377 266.468L-571.127 279.324L-582.601 292.259L-594.779 305.309L-607.634 318.503L-621.138 331.871L-635.256 345.444L-649.956 359.251L-665.196 373.318L-680.935 387.67L-697.125 402.333L-713.719 417.326L-730.662 432.671L-747.897 448.385L-765.364 464.483L-782.995 480.98L-800.723 497.882L-818.474 515.197L-836.169 532.929L-853.723 551.077L-871.045 569.636L-888.041 588.599L-904.616 607.952L-920.672 627.678L-936.109 647.753L-950.83 668.153L-964.739 688.847L-977.739 709.8L-989.741 730.972L-1000.66 752.324L-1010.42 773.81L-1018.95 795.382L-1026.18 816.99L-1032.05 838.584L-1036.51 860.108L-1039.5 881.509L-1041 902.729L-1040.96 923.712L-1039.36 944.402L-1036.19 964.742L-1031.42 984.675L-1025.07 1004.15L-1017.12 1023.11L-1007.61 1041.51L-996.537 1059.29L-983.945 1076.42L-969.865 1092.84L-954.343 1108.53L-937.432 1123.45L-919.19 1137.57L-899.683 1150.87L-878.984 1163.32L-857.171 1174.91L-834.328 1185.65L-810.544 1195.52L-785.913 1204.52L-760.533 1212.68L-734.502 1220.01L-707.924 1226.53L-680.903 1232.27L-653.546 1237.26L-625.958 1241.56L-598.244 1245.19L-570.508 1248.23L-542.855 1250.71L-515.381 1252.71L-488.185 1254.29L-461.359 1255.52L-434.992 1256.48L-409.165 1257.23L-383.957 1257.85L-359.439 1258.43L-335.675 1259.04L-312.723 1259.77L-290.631 1260.68L-269.443 1261.87L-249.193 1263.39L-229.907 1265.34L-211.606 1267.77L-194.296 1270.76L-177.981 1274.37L-162.656 1278.65L-148.306 1283.66L-134.909 1289.44L-122.439 1296.03L-110.859 1303.47L-100.127 1311.77L-90.1955 1320.97L-81.0113 1331.06L-72.5161 1342.06L-64.6475 1353.96L-57.3395 1366.74L-50.5232 1380.39L-44.1273 1394.88L-38.0789 1410.18L-32.3048 1426.24L-26.7313 1443.02L-21.2856 1460.47L-15.8962 1478.52L-10.494 1497.13L-5.01244 1516.21L0.611362 1535.72L6.43734 1555.57L12.5234 1575.69L18.9254 1596L25.6967 1616.42L32.8874 1636.85L40.5429 1657.21L48.7034 1677.4L57.4034 1697.34L66.6713 1716.93L76.5287 1736.1L86.992 1754.76L98.0729 1772.83L109.778 1790.24L122.109 1806.9L135.064 1822.75L148.635 1837.7L162.809 1851.71L177.571 1864.71L192.898 1876.63L208.764 1887.45L225.141 1897.1L241.996 1905.56L259.294 1912.79L276.993 1918.77L295.055 1923.49L313.435 1926.93L332.09 1929.1L350.972 1930L370.036 1929.64L389.235 1928.04L408.523 1925.22L427.852 1921.22L447.179 1916.08L466.461 1909.83L485.653 1902.53L504.719 1894.23L523.618 1884.99L542.316 1874.87L560.783 1863.94L578.989 1852.27L596.907 1839.93L614.517 1827L631.8 1813.54L648.741 1799.65L665.328 1785.4L681.556 1770.86L697.42 1756.13L712.922 1741.28L728.065 1726.38L742.856 1711.52L757.311 1696.76L771.44 1682.18L785.263 1667.86L798.803 1653.85L812.081 1640.23L825.127 1627.04L837.967 1614.35L850.636 1602.21L863.164 1590.66L875.586 1579.74L887.938 1569.49L900.257 1559.94L912.578 1551.11L924.941 1543.02L937.38 1535.69L949.932 1529.12L962.632 1523.31L975.514 1518.26L988.609 1513.96L1001.95 1510.38L1015.56 1507.51L1029.46 1505.32L1043.68 1503.78L1058.24 1502.84L1073.15 1502.47L1088.42 1502.62L1104.05 1503.24L1120.07 1504.27L1136.46 1505.65L1153.21 1507.34L1170.34 1509.26L1187.8 1511.37L1205.6 1513.59L1223.73 1515.86L1242.16 1518.14L1260.87 1520.36L1279.82 1522.47L1299.01 1524.43L1318.41 1526.17L1337.98 1527.66L1357.69 1528.86L1377.53 1529.73L1397.46 1530.23L1417.45 1530.33L1437.48 1530L1457.51 1529.22L1477.5 1527.97L1497.45 1526.23L1517.31 1523.97L1537.05 1521.18L1556.65 1517.84L1576.06 1513.94L1595.26 1509.46L1614.21 1504.4L1632.88 1498.74L1651.24 1492.48L1669.26 1485.61L1686.91 1478.15L1704.17 1470.09L1721.02 1461.44L1737.44 1452.22L1753.4 1442.42L1768.89 1432.08L1783.9 1421.2L1798.42 1409.8L1812.45 1397.9L1825.97 1385.53L1838.99 1372.71L1851.49 1359.47L1863.5 1345.82L1875.02 1331.8L1886.04 1317.43L1896.59 1302.73L1906.67 1287.74L1916.3 1272.48L1925.49 1256.97L1934.26 1241.25L1942.62 1225.32L1950.61 1209.23L1958.24 1192.98L1965.52 1176.61L1972.49 1160.12L1979.18 1143.55L1985.59 1126.91L1991.77 1110.21L1997.72 1093.47L2003.49 1076.71L2009.08 1059.93L2014.52 1043.14L2019.86 1026.36L2025.09 1009.59L2030.26 992.848L2035.38 976.125L2040.47 959.427L2045.55 942.761L2050.65 926.124L2055.78 909.518L2060.97 892.939L2066.21 876.385L2071.55 859.852L2076.99 843.337L2082.53 826.832L2088.21 810.33L2094 793.824L2099.93 777.306L2106.02 760.768L2112.25 744.2L2118.62 727.591L2125.15 710.932L2131.83 694.211L2138.65 677.42L2145.6 660.547L2152.7 643.582L2159.91 626.514L2167.23 609.333L2174.65 592.029L2182.14 574.594L2189.69 557.019L2197.29 539.296L2204.9 521.418L2212.5 503.379L2220.08 485.173L2227.58 466.798L2235 448.251L2242.3 429.529L2249.45 410.634L2256.42 391.567L2263.17 372.33L2269.68 352.927L2275.9 333.364L2281.8 313.651L2287.34 293.794L2292.5 273.806L2297.22 253.697L2301.48 233.484L2305.23 213.184L2308.44 192.813L2311.05 172.393L2313.03 151.944L2314.36 131.492L2315 111.06L2314.91 90.6736L2314.05 70.3569L2312.42 50.1504L2309.98 30.0738L2306.71 10.1472L2302.61 -9.58949L2297.66 -29.1062L2291.85 -48.3828L2285.18 -67.3896L2277.64 -86.0966L2269.26 -104.473L2260.02 -122.5L2249.94 -140.157L2239.05 -157.424L2227.35 -174.272L2214.88 -190.689L2201.67 -206.656L2187.73 -222.153L2173.1 -237.191L2157.84 -251.748L2141.95 -265.816L2125.51 -279.394L2108.54 -292.492L2091.08 -305.099L2073.21 -317.237L2054.94 -328.905L2036.35 -340.123L2017.47 -350.902L1998.37 -361.26L1979.1 -371.228L1959.71 -380.827L1940.24 -390.085L1920.75 -399.034L1901.3 -407.712L1881.92 -416.141L1862.68 -424.379L1843.6 -432.448L1824.74 -440.407L1806.14 -448.285L1787.82 -456.134L1769.85 -464.003L1752.22 -471.931L1735 -479.96L1718.17 -488.148L1701.78 -496.537L1685.83 -505.156L1670.33 -514.064L1655.3 -523.302L1640.74 -532.891L1626.63 -542.879Z" fill="#002653"/>
</g>
<g clip-path="url(#clip1_505_114)">
<path fill-rule="evenodd" clip-rule="evenodd" d="M-35.9409 2075.18L-25.4071 2086.43L-15.4133 2097.99L-5.93249 2109.87L3.04841 2122.1L11.5367 2134.69L19.5576 2147.66L27.1637 2161.01L34.3622 2174.75L41.1959 2188.88L47.7269 2203.41L53.9823 2218.31L60.0145 2233.59L65.8685 2249.23L71.6085 2265.2L77.2767 2281.49L82.9355 2298.07L88.6343 2314.91L94.4273 2331.98L100.357 2349.23L106.493 2366.65L112.886 2384.16L119.591 2401.72L126.665 2419.28L134.16 2436.77L142.119 2454.15L150.593 2471.34L159.613 2488.29L169.221 2504.95L179.438 2521.25L190.304 2537.12L201.835 2552.51L214.06 2567.35L226.988 2581.57L240.638 2595.12L255.018 2607.92L270.13 2619.92L285.962 2631.07L302.516 2641.32L319.765 2650.61L337.69 2658.91L356.278 2666.17L375.488 2672.37L395.281 2677.49L415.619 2681.5L436.467 2684.4L457.774 2686.17L479.487 2686.83L501.559 2686.38L523.933 2684.83L546.555 2682.21L569.372 2678.54L592.328 2673.85L615.366 2668.19L638.433 2661.59L661.476 2654.11L684.44 2645.81L707.28 2636.73L729.948 2626.94L752.398 2616.51L774.593 2605.49L796.489 2593.98L818.06 2582.02L839.27 2569.71L860.095 2557.11L880.514 2544.31L900.509 2531.36L920.065 2518.36L939.176 2505.38L957.836 2492.47L976.048 2479.72L993.809 2467.21L1011.13 2454.97L1028.03 2443.1L1044.52 2431.62L1060.61 2420.62L1076.33 2410.14L1091.7 2400.23L1106.76 2390.91L1121.53 2382.25L1136.05 2374.26L1150.34 2366.97L1164.45 2360.41L1178.41 2354.59L1192.25 2349.53L1206.02 2345.22L1219.75 2341.67L1233.48 2338.89L1247.25 2336.85L1261.08 2335.54L1275.02 2334.94L1289.1 2335.02L1303.34 2335.76L1317.77 2337.14L1332.43 2339.09L1347.33 2341.59L1362.49 2344.58L1377.93 2348.03L1393.66 2351.88L1409.69 2356.07L1426.03 2360.55L1442.67 2365.26L1459.63 2370.13L1476.88 2375.11L1494.43 2380.13L1512.25 2385.12L1530.34 2390.03L1548.66 2394.78L1567.19 2399.33L1585.91 2403.6L1604.78 2407.54L1623.78 2411.1L1642.87 2414.21L1662.01 2416.85L1681.16 2418.98L1700.3 2420.55L1719.37 2421.53L1738.35 2421.89L1757.18 2421.59L1775.83 2420.61L1794.25 2418.92L1812.39 2416.5L1830.21 2413.33L1847.67 2409.4L1864.72 2404.71L1881.33 2399.24L1897.45 2393L1913.05 2385.99L1928.1 2378.22L1942.57 2369.72L1956.42 2360.48L1969.64 2350.55L1982.22 2339.93L1994.12 2328.68L2005.35 2316.81L2015.9 2304.38L2025.77 2291.41L2034.96 2277.95L2043.49 2264.06L2051.37 2249.76L2058.61 2235.12L2065.25 2220.17L2071.31 2204.97L2076.82 2189.58L2081.82 2174.04L2086.35 2158.39L2090.46 2142.69L2094.2 2126.99L2097.61 2111.32L2100.75 2095.73L2103.67 2080.27L2106.44 2064.96L2109.1 2049.84L2111.72 2034.96L2114.37 2020.32L2117.08 2005.97L2119.94 1991.91L2123 1978.16L2126.3 1964.76L2129.91 1951.69L2133.88 1938.98L2138.26 1926.6L2143.09 1914.59L2148.43 1902.91L2154.31 1891.58L2160.76 1880.58L2167.83 1869.89L2175.54 1859.49L2183.92 1849.38L2192.98 1839.53L2202.74 1829.91L2213.22 1820.49L2224.42 1811.26L2236.34 1802.19L2249 1793.24L2262.37 1784.38L2276.45 1775.59L2291.23 1766.84L2306.69 1758.08L2322.82 1749.3L2339.58 1740.45L2356.96 1731.52L2374.91 1722.46L2393.41 1713.26L2412.42 1703.88L2431.89 1694.29L2451.78 1684.47L2472.03 1674.39L2492.6 1664.04L2513.43 1653.37L2534.44 1642.39L2555.58 1631.06L2576.76 1619.37L2597.91 1607.3L2618.93 1594.84L2639.75 1581.99L2660.25 1568.73L2680.35 1555.07L2699.94 1540.99L2718.92 1526.51L2737.2 1511.64L2754.67 1496.38L2771.24 1480.76L2786.83 1464.79L2801.33 1448.49L2814.68 1431.9L2826.8 1415.03L2837.61 1397.94L2847.06 1380.64L2855.08 1363.18L2861.62 1345.6L2866.64 1327.94L2870.1 1310.24L2871.97 1292.55L2872.22 1274.91L2870.84 1257.36L2867.82 1239.96L2863.16 1222.75L2856.87 1205.77L2848.96 1189.06L2839.47 1172.67L2828.42 1156.64L2815.85 1141L2801.82 1125.79L2786.39 1111.05L2769.61 1096.79L2751.56 1083.06L2732.32 1069.86L2711.97 1057.22L2690.6 1045.14L2668.32 1033.65L2645.21 1022.73L2621.38 1012.4L2596.95 1002.64L2572.01 993.446L2546.68 984.802L2521.07 976.685L2495.3 969.074L2469.47 961.937L2443.7 955.241L2418.09 948.95L2392.76 943.02L2367.79 937.407L2343.29 932.063L2319.35 926.937L2296.07 921.977L2273.5 917.127L2251.75 912.33L2230.86 907.53L2210.89 902.669L2191.91 897.689L2173.95 892.533L2157.05 887.145L2141.23 881.472L2126.51 875.461L2112.9 869.063L2100.39 862.232L2088.98 854.925L2078.65 847.103L2069.38 838.734L2061.13 829.788L2053.85 820.239L2047.51 810.069L2042.04 799.266L2037.39 787.821L2033.49 775.733L2030.26 763.004L2027.65 749.646L2025.55 735.672L2023.91 721.106L2022.62 705.971L2021.63 690.298L2020.83 674.123L2020.15 657.486L2019.51 640.426L2018.84 622.99L2018.05 605.227L2017.09 587.187L2015.87 568.93L2014.32 550.517L2012.37 532.013L2009.96 513.486L2007.03 495.007L2003.52 476.645L1999.39 458.468L1994.59 440.542L1989.09 422.933L1982.85 405.706L1975.86 388.928L1968.1 372.66L1959.54 356.965L1950.17 341.903L1940 327.532L1929.03 313.904L1917.26 301.072L1904.7 289.08L1891.38 277.97L1877.31 267.779L1862.53 258.539L1847.06 250.276L1830.93 243.011L1814.2 236.76L1796.9 231.532L1779.07 227.333L1760.76 224.158L1742.03 222.003L1722.92 220.854L1703.49 220.691L1683.78 221.494L1663.85 223.231L1643.75 225.871L1623.53 229.376L1603.24 233.701L1582.94 238.803L1562.66 244.63L1542.45 251.129L1522.35 258.243L1502.4 265.914L1482.65 274.08L1463.11 282.678L1443.82 291.643L1424.81 300.909L1406.1 310.41L1387.71 320.08L1369.65 329.852L1351.93 339.659L1334.56 349.438L1317.55 359.122L1300.89 368.651L1284.57 377.966L1268.6 387.007L1252.96 395.72L1237.63 404.054L1222.59 411.96L1207.84 419.393L1193.34 426.314L1179.06 432.685L1164.99 438.473L1151.09 443.653L1137.32 448.201L1123.67 452.101L1110.09 455.339L1096.56 457.908L1083.03 459.808L1069.48 461.041L1055.87 461.616L1042.18 461.546L1028.36 460.85L1014.4 459.555L1000.26 457.686L985.929 455.277L971.372 452.366L956.578 448.995L941.523 445.207L926.195 441.05L910.59 436.575L894.693 431.832L878.508 426.878L862.033 421.762L845.261 416.54L828.2 411.262L810.856 405.979L793.257 400.744L775.388 395.599L757.27 390.592L738.931 385.766L720.382 381.16L701.632 376.812L682.705 372.755L663.631 369.024L644.414 365.645L625.089 362.646L605.679 360.05L586.201 357.879L566.678 356.155L547.138 354.899L527.605 354.132L508.116 353.873L488.688 354.137L469.357 354.942L450.154 356.299L431.105 358.218L412.231 360.704L393.561 363.762L375.128 367.394L356.942 371.595L339.027 376.362L321.413 381.69L304.117 387.569L287.151 393.986L270.529 400.928L254.258 408.376L238.362 416.317L222.826 424.726L207.687 433.59L192.921 442.881L178.534 452.576L164.543 462.658L150.923 473.097L137.671 483.87L124.793 494.954L112.275 506.325L100.105 517.957L88.2758 529.829L76.7651 541.914L65.5582 554.191L54.6497 566.638L44.0146 579.234L33.6279 591.956L23.4935 604.79L13.5657 617.713L3.84789 630.711L-5.70664 643.764L-15.0949 656.862L-24.3443 669.991L-33.4825 683.135L-42.5278 696.287L-51.4986 709.435L-60.4235 722.571L-69.3124 735.691L-78.1835 748.786L-87.0679 761.853L-95.9745 774.889L-104.925 787.892L-113.929 800.862L-123.018 813.797L-132.192 826.701L-141.464 839.577L-150.865 852.426L-160.377 865.256L-170.031 878.071L-179.831 890.875L-189.777 903.679L-199.873 916.49L-210.121 929.316L-220.534 942.165L-231.103 955.047L-241.812 967.975L-252.684 980.954L-263.689 993.999L-274.822 1007.12L-286.085 1020.32L-297.449 1033.63L-308.896 1047.04L-320.429 1060.56L-332.01 1074.21L-343.619 1088.01L-355.249 1101.94L-366.849 1116.03L-378.412 1130.28L-389.896 1144.7L-401.282 1159.3L-412.54 1174.07L-423.629 1189.02L-434.518 1204.16L-445.176 1219.48L-455.571 1234.99L-465.651 1250.69L-475.393 1266.56L-484.754 1282.62L-493.701 1298.85L-502.17 1315.25L-510.146 1331.8L-517.565 1348.5L-524.391 1365.35L-530.589 1382.31L-536.123 1399.39L-540.946 1416.56L-545.024 1433.81L-548.336 1451.1L-550.848 1468.44L-552.524 1485.8L-553.365 1503.16L-553.335 1520.48L-552.427 1537.76L-550.635 1554.97L-547.942 1572.08L-544.361 1589.07L-539.876 1605.93L-534.503 1622.62L-528.256 1639.14L-521.139 1655.44L-513.18 1671.53L-504.403 1687.38L-494.813 1702.96L-484.464 1718.28L-473.389 1733.31L-461.597 1748.05L-449.158 1762.47L-436.093 1776.59L-422.451 1790.38L-408.296 1803.85L-393.659 1817L-378.593 1829.83L-363.151 1842.35L-347.399 1854.55L-331.382 1866.45L-315.167 1878.06L-298.79 1889.41L-282.328 1900.49L-265.831 1911.34L-249.344 1921.97L-232.941 1932.41L-216.657 1942.68L-200.555 1952.82L-184.675 1962.84L-169.067 1972.78L-153.783 1982.68L-138.853 1992.57L-124.327 2002.47L-110.219 2012.43L-96.5792 2022.48L-83.4139 2032.64L-70.758 2042.96L-58.6212 2053.47L-47.018 2064.2L-35.9409 2075.18Z" fill="#002653"/>
</g>
<rect width="1920" height="299" transform="translate(0 841)" fill="#002653"/>
<defs>
<clipPath id="clip0_505_114">
<rect width="1920" height="815" fill="white" transform="translate(0 1130)"/>
</clipPath>
<clipPath id="clip1_505_114">
<rect width="1920" height="701" fill="white" transform="translate(0 159)"/>
</clipPath>
</defs>
</svg>
