<svg width="476" height="624" viewBox="0 0 476 624" fill="none" xmlns="http://www.w3.org/2000/svg">
<path fill-rule="evenodd" clip-rule="evenodd" d="M910.946 178.21L910.604 183.569L910.459 188.925L910.512 194.288L910.763 199.668L911.211 205.071L911.853 210.509L912.682 215.987L913.692 221.515L914.873 227.1L916.214 232.748L917.701 238.467L919.321 244.259L921.059 250.132L922.895 256.087L924.814 262.127L926.796 268.254L928.821 274.468L930.871 280.769L932.923 287.156L934.956 293.625L936.944 300.171L938.864 306.789L940.69 313.472L942.397 320.21L943.962 326.995L945.361 333.816L946.571 340.661L947.573 347.519L948.347 354.376L948.871 361.218L949.128 368.031L949.097 374.797L948.761 381.501L948.104 388.124L947.111 394.649L945.77 401.058L944.071 407.333L942.004 413.457L939.566 419.413L936.751 425.183L933.56 430.753L929.993 436.106L926.055 441.23L921.752 446.112L917.092 450.74L912.086 455.104L906.748 459.197L901.091 463.011L895.132 466.542L888.89 469.785L882.383 472.74L875.633 475.406L868.661 477.786L861.491 479.884L854.145 481.705L846.648 483.257L839.023 484.547L831.297 485.589L823.492 486.392L815.634 486.971L807.746 487.341L799.852 487.519L791.974 487.521L784.135 487.365L776.355 487.073L768.654 486.662L761.051 486.155L753.563 485.572L746.206 484.935L738.995 484.265L731.944 483.585L725.062 482.916L718.36 482.278L711.847 481.694L705.529 481.184L699.411 480.767L693.496 480.462L687.786 480.287L682.281 480.26L676.979 480.396L671.878 480.709L666.973 481.212L662.258 481.918L657.727 482.836L653.371 483.975L649.181 485.341L645.147 486.941L641.257 488.776L637.5 490.85L633.863 493.162L630.332 495.71L626.895 498.49L623.537 501.498L620.244 504.726L617.002 508.165L613.796 511.805L610.613 515.634L607.439 519.638L604.259 523.803L601.061 528.111L597.832 532.545L594.56 537.085L591.234 541.711L587.842 546.402L584.376 551.135L580.826 555.888L577.186 560.638L573.448 565.359L569.606 570.03L565.658 574.625L561.6 579.124L557.43 583.505L553.148 587.748L548.756 591.835L544.255 595.747L539.647 599.467L534.936 602.976L530.127 606.258L525.225 609.296L520.235 612.074L515.165 614.577L510.021 616.793L504.813 618.709L499.549 620.315L494.238 621.603L488.891 622.566L483.517 623.2L478.127 623.5L472.731 623.466L467.34 623.1L461.965 622.404L456.615 621.383L451.3 620.044L446.03 618.396L440.814 616.451L435.66 614.219L430.576 611.715L425.569 608.955L420.644 605.956L415.807 602.737L411.062 599.316L406.412 595.715L401.858 591.954L397.401 588.055L393.042 584.042L388.779 579.936L384.609 575.761L380.528 571.539L376.533 567.294L372.617 563.047L368.773 558.821L364.995 554.636L361.273 550.514L357.598 546.473L353.961 542.532L350.351 538.708L346.758 535.017L343.168 531.473L339.572 528.089L335.957 524.877L332.31 521.847L328.621 519.007L324.876 516.363L321.065 513.92L317.175 511.682L313.195 509.651L309.116 507.827L304.926 506.207L300.616 504.791L296.177 503.572L291.601 502.546L286.88 501.706L282.008 501.043L276.979 500.548L271.788 500.212L266.43 500.024L260.904 499.97L255.206 500.04L249.335 500.219L243.291 500.494L237.074 500.851L230.687 501.274L224.132 501.749L217.412 502.259L210.533 502.79L203.5 503.324L196.322 503.844L189.007 504.334L181.566 504.776L174.01 505.152L166.353 505.443L158.61 505.632L150.798 505.698L142.937 505.623L135.049 505.386L127.155 504.97L119.279 504.354L111.447 503.522L103.685 502.457L96.0201 501.144L88.4791 499.568L81.0896 497.717L73.8782 495.582L66.8715 493.154L60.0952 490.427L53.5746 487.396L47.3339 484.06L41.3968 480.418L35.7858 476.47L30.522 472.219L25.6255 467.671L21.115 462.832L17.0072 457.709L13.3174 452.313L10.059 446.654L7.24326 440.746L4.87939 434.602L2.97439 428.237L1.53293 421.667L0.557263 414.911L0.0471921 407.987L0 400.913L0.410426 393.709L1.27065 386.396L2.57032 378.994L4.29653 371.524L6.43393 364.007L8.96475 356.463L11.8689 348.911L15.1241 341.374L18.7059 333.868L22.588 326.412L26.7422 319.025L31.1389 311.722L35.7468 304.519L40.5335 297.428L45.4658 290.464L50.5094 283.636L55.6296 276.955L60.7913 270.427L65.9597 264.06L71.0997 257.856L76.1769 251.82L81.1576 245.951L86.009 240.249L90.6994 234.711L95.1986 229.334L99.478 224.112L103.511 219.037L107.272 214.1L110.74 209.293L113.893 204.604L116.715 200.02L119.19 195.529L121.307 191.117L123.055 186.77L124.429 182.472L125.425 178.21L126.042 173.967L126.283 169.73L126.154 165.481L125.663 161.208L124.82 156.897L123.64 152.534L122.139 148.106L120.335 143.603L118.249 139.013L115.904 134.328L113.325 129.54L110.537 124.643L107.567 119.63L104.443 114.498L101.194 109.244L97.8475 103.868L94.4331 98.37L90.9789 92.7508L87.5141 87.0137L84.069 81.1634L80.6745 75.2064L77.3614 69.1504L74.1601 63.0048L71.1002 56.78L68.2098 50.4879L65.5151 44.1408L63.0401 37.752L60.8072 31.3354L58.8373 24.9056L57.1502 18.4781L55.7642 12.069L54.6959 5.69464L53.9599 -0.628113L53.5691 -6.88232L53.5341 -13.0511L53.8634 -19.1177L54.5634 -25.0657L55.6382 -30.879L57.0897 -36.5423L58.9176 -42.0408L61.1193 -47.361L63.6902 -52.4897L66.6236 -57.4153L69.9109 -62.1272L73.5416 -66.6161L77.5034 -70.874L81.7825 -74.8943L86.3635 -78.672L91.2296 -82.2033L96.3629 -85.4863L101.744 -88.5204L107.354 -91.3065L113.171 -93.8474L119.175 -96.1471L125.342 -98.2112L131.653 -100.047L138.083 -101.663L144.612 -103.068L151.217 -104.275L157.876 -105.296L164.569 -106.143L171.274 -106.833L177.971 -107.38L184.64 -107.801L191.265 -108.113L197.827 -108.334L204.309 -108.483L210.698 -108.578L216.978 -108.639L223.137 -108.684L229.164 -108.734L235.049 -108.806L240.784 -108.921L246.362 -109.096L251.776 -109.351L257.024 -109.701L262.103 -110.164L267.011 -110.756L271.748 -111.492L276.318 -112.384L280.722 -113.447L284.966 -114.69L289.054 -116.123L292.995 -117.755L296.795 -119.592L300.465 -121.64L304.013 -123.9L307.451 -126.375L310.791 -129.064L314.044 -131.965L317.223 -135.073L320.342 -138.384L323.413 -141.889L326.45 -145.58L329.466 -149.445L332.475 -153.472L335.489 -157.648L338.521 -161.957L341.583 -166.385L344.686 -170.915L347.84 -175.53L351.056 -180.214L354.341 -184.949L357.703 -189.718L361.15 -194.505L364.686 -199.294L368.318 -204.068L372.048 -208.812L375.88 -213.512L379.817 -218.153L383.859 -222.721L388.008 -227.204L392.263 -231.591L396.623 -235.87L401.088 -240.029L405.655 -244.058L410.323 -247.946L415.088 -251.681L419.948 -255.252L424.9 -258.649L429.938 -261.863L435.058 -264.885L440.255 -267.706L445.524 -270.32L450.859 -272.721L456.253 -274.904L461.701 -276.865L467.196 -278.603L472.731 -280.114L478.301 -281.4L483.897 -282.46L489.515 -283.297L495.147 -283.914L500.788 -284.313L506.431 -284.5L512.071 -284.48L517.703 -284.259L523.322 -283.844L528.923 -283.243L534.502 -282.462L540.056 -281.512L545.58 -280.399L551.074 -279.135L556.533 -277.727L561.956 -276.185L567.343 -274.52L572.691 -272.74L578 -270.855L583.271 -268.876L588.503 -266.811L593.697 -264.669L598.855 -262.461L603.979 -260.194L609.069 -257.877L614.128 -255.519L619.16 -253.128L624.165 -250.71L629.149 -248.274L634.114 -245.826L639.063 -243.372L644 -240.917L648.929 -238.468L653.854 -236.028L658.78 -233.603L663.709 -231.196L668.646 -228.809L673.595 -226.447L678.561 -224.11L683.546 -221.801L688.556 -219.52L693.592 -217.267L698.66 -215.044L703.762 -212.849L708.901 -210.681L714.08 -208.539L719.301 -206.42L724.567 -204.321L729.879 -202.24L735.238 -200.173L740.645 -198.116L746.101 -196.064L751.605 -194.012L757.158 -191.955L762.757 -189.888L768.401 -187.804L774.088 -185.697L779.814 -183.561L785.577 -181.388L791.371 -179.171L797.193 -176.904L803.037 -174.579L808.897 -172.19L814.768 -169.728L820.641 -167.188L826.511 -164.562L832.368 -161.844L838.205 -159.027L844.013 -156.104L849.782 -153.07L855.501 -149.918L861.162 -146.642L866.752 -143.238L872.259 -139.698L877.671 -136.02L882.975 -132.197L888.159 -128.225L893.209 -124.103L898.113 -119.827L902.858 -115.395L907.433 -110.807L911.824 -106.063L916.021 -101.164L920.014 -96.1121L923.793 -90.9095L927.348 -85.5602L930.671 -80.0685L933.755 -74.4396L936.595 -68.6796L939.184 -62.7952L941.519 -56.7934L943.597 -50.6824L945.415 -44.4703L946.974 -38.1661L948.275 -31.7789L949.318 -25.3183L950.107 -18.7939L950.647 -12.2159L950.942 -5.59406L951 1.06149L950.829 7.74078L950.437 14.434L949.835 21.1314L949.035 27.8237L948.048 34.5019L946.888 41.1572L945.569 47.7816L944.106 54.3675L942.516 60.9077L940.814 67.3961L939.018 73.8268L937.147 80.1949L935.217 86.4965L933.247 92.728L931.257 98.8872L929.264 104.972L927.287 110.983L925.345 116.919L923.456 122.781L921.637 128.572L919.906 134.295L918.278 139.953L916.77 145.55L915.396 151.092L914.168 156.586L913.099 162.037L912.2 167.453L911.48 172.841L910.946 178.21Z" fill="url(#paint0_linear_290_370)"/>
<defs>
<linearGradient id="paint0_linear_290_370" x1="56.0574" y1="178.705" x2="999.566" y2="64.5212" gradientUnits="userSpaceOnUse">
<stop stop-color="#33D563"/>
<stop offset="1" stop-color="#E8A1FA"/>
</linearGradient>
</defs>
</svg>
