<svg width="1920" height="2110" viewBox="0 0 1920 2110" fill="none" xmlns="http://www.w3.org/2000/svg">
<g clip-path="url(#clip0_468_123)">
<path fill-rule="evenodd" clip-rule="evenodd" d="M1584.24 -506.9L1571.18 -517.32L1558.55 -528.2L1546.32 -539.55L1534.47 -551.4L1522.99 -563.76L1511.85 -576.65L1501 -590.06L1490.43 -604L1480.1 -618.46L1469.95 -633.43L1459.96 -648.88L1450.08 -664.8L1440.27 -681.17L1430.48 -697.93L1420.67 -715.07L1410.79 -732.54L1400.8 -750.3L1390.66 -768.29L1380.34 -786.46L1369.78 -804.77L1358.95 -823.13L1347.81 -841.48L1336.32 -859.75L1324.45 -877.85L1312.17 -895.72L1299.45 -913.28L1286.28 -930.44L1272.63 -947.15L1258.5 -963.32L1243.87 -978.87L1228.74 -993.73L1213.1 -1007.83L1196.96 -1021.08L1180.32 -1033.41L1163.19 -1044.74L1145.58 -1055.02L1127.52 -1064.18L1109.02 -1072.17L1090.12 -1078.93L1070.85 -1084.42L1051.23 -1088.61L1031.31 -1091.46L1011.13 -1092.97L990.732 -1093.12L970.155 -1091.9L949.448 -1089.31L928.658 -1085.38L907.83 -1080.12L887.013 -1073.56L866.251 -1065.74L845.591 -1056.69L825.075 -1046.47L804.746 -1035.13L784.644 -1022.73L764.805 -1009.34L745.264 -995.04L726.053 -979.89L707.198 -963.98L688.724 -947.39L670.651 -930.2L652.997 -912.51L635.773 -894.39L618.987 -875.95L602.645 -857.27L586.745 -838.44L571.285 -819.55L556.256 -800.69L541.647 -781.94L527.443 -763.38L513.623 -745.09L500.167 -727.16L487.049 -709.64L474.24 -692.62L461.71 -676.14L449.426 -660.28L437.353 -645.08L425.454 -630.6L413.692 -616.86L402.028 -603.92L390.423 -591.79L378.836 -580.5L367.228 -570.07L355.562 -560.51L343.797 -551.82L331.897 -544L319.827 -537.05L307.552 -530.96L295.041 -525.69L282.265 -521.24L269.197 -517.56L255.813 -514.63L242.092 -512.4L228.017 -510.84L213.575 -509.89L198.754 -509.5L183.548 -509.61L167.956 -510.18L151.978 -511.13L135.621 -512.4L118.894 -513.93L101.812 -515.66L84.3934 -517.5L66.6611 -519.4L48.6417 -521.28L30.3652 -523.07L11.8658 -524.71L-6.81897 -526.13L-25.6481 -527.27L-44.5787 -528.05L-63.5662 -528.43L-82.5645 -528.35L-101.529 -527.75L-120.414 -526.61L-139.175 -524.89L-157.767 -522.54L-176.142 -519.54L-194.253 -515.86L-212.05 -511.47L-229.484 -506.35L-246.506 -500.48L-263.068 -493.85L-279.123 -486.45L-294.627 -478.26L-309.537 -469.3L-323.815 -459.56L-337.422 -449.06L-350.326 -437.8L-362.499 -425.81L-373.916 -413.11L-384.557 -399.72L-394.406 -385.68L-403.453 -371.01L-411.693 -355.76L-419.127 -339.97L-425.76 -323.69L-431.602 -306.95L-436.67 -289.8L-440.986 -272.3L-444.575 -254.49L-447.47 -236.43L-449.706 -218.15L-451.324 -199.72L-452.369 -181.19L-452.89 -162.59L-452.939 -143.98L-452.572 -125.4L-451.847 -106.9L-450.824 -88.5L-449.565 -70.26L-448.134 -52.2L-446.596 -34.35L-445.015 -16.74L-443.457 0.599976L-441.985 17.67L-440.663 34.4301L-439.552 50.89L-438.713 67.04L-438.203 82.86L-438.077 98.36L-438.386 113.55L-439.18 128.44L-440.502 143.02L-442.394 157.33L-444.893 171.364L-448.029 185.157L-451.831 198.727L-456.323 212.099L-461.522 225.3L-467.443 238.358L-474.095 251.303L-481.481 264.166L-489.604 276.979L-498.456 289.774L-508.032 302.584L-518.317 315.442L-529.294 328.38L-540.944 341.432L-553.242 354.628L-566.161 367.998L-579.668 381.574L-593.731 395.383L-608.311 409.452L-623.368 423.807L-638.857 438.472L-654.732 453.468L-670.941 468.815L-687.43 484.532L-704.14 500.633L-721.007 517.132L-737.967 534.037L-754.949 551.355L-771.878 569.09L-788.671 587.241L-805.243 605.804L-821.503 624.77L-837.36 644.126L-852.72 663.855L-867.489 683.934L-881.572 704.337L-894.878 725.035L-907.315 745.991L-918.797 767.167L-929.245 788.523L-938.582 810.012L-946.741 831.588L-953.658 853.2L-959.273 874.797L-963.538 896.325L-966.405 917.729L-967.836 938.953L-967.8 959.94L-966.271 980.633L-963.233 1000.98L-958.675 1020.91L-952.593 1040.39L-944.994 1059.35L-935.889 1077.75L-925.299 1095.54L-913.252 1112.67L-899.782 1129.1L-884.933 1144.79L-868.754 1159.71L-851.303 1173.83L-832.641 1187.13L-812.838 1199.59L-791.97 1211.18L-770.117 1221.92L-747.363 1231.79L-723.799 1240.8L-699.518 1248.96L-674.615 1256.29L-649.188 1262.81L-623.338 1268.55L-597.166 1273.54L-570.773 1277.84L-544.259 1281.48L-517.725 1284.51L-491.269 1286.99L-464.986 1289L-438.968 1290.58L-413.304 1291.81L-388.079 1292.76L-363.371 1293.51L-339.255 1294.14L-315.799 1294.72L-293.064 1295.33L-271.106 1296.05L-249.971 1296.97L-229.701 1298.15L-210.328 1299.68L-191.878 1301.62L-174.369 1304.06L-157.809 1307.05L-142.201 1310.66L-127.54 1314.94L-113.811 1319.95L-100.995 1325.73L-89.0651 1332.32L-77.9865 1339.76L-67.7194 1348.07L-58.218 1357.26L-49.4316 1367.36L-41.3044 1378.36L-33.7767 1390.26L-26.7853 1403.04L-20.2642 1416.7L-14.1454 1431.19L-8.35901 1446.49L-2.83502 1462.55L2.49701 1479.33L7.70685 1496.78L12.8627 1514.84L18.0309 1533.45L23.2751 1552.54L28.6553 1572.05L34.2289 1591.9L40.0513 1612.02L46.176 1632.34L52.6539 1652.76L59.5332 1673.2L66.8571 1693.56L74.6641 1713.76L82.9872 1733.7L91.8536 1753.3L101.284 1772.47L111.294 1791.13L121.895 1809.21L133.093 1826.61L144.89 1843.28L157.284 1859.12L170.267 1874.09L183.827 1888.1L197.949 1901.09L212.612 1913.02L227.791 1923.84L243.459 1933.49L259.584 1941.95L276.132 1949.19L293.065 1955.17L310.344 1959.89L327.928 1963.33L345.775 1965.5L363.839 1966.4L382.077 1966.04L400.445 1964.44L418.897 1961.62L437.389 1957.62L455.879 1952.47L474.325 1946.23L492.686 1938.93L510.926 1930.62L529.006 1921.38L546.895 1911.26L564.562 1900.33L581.979 1888.66L599.121 1876.31L615.968 1863.38L632.502 1849.92L648.709 1836.02L664.578 1821.77L680.103 1807.23L695.28 1792.5L710.11 1777.64L724.597 1762.74L738.748 1747.88L752.576 1733.12L766.093 1718.54L779.318 1704.21L792.271 1690.21L804.974 1676.58L817.455 1663.39L829.739 1650.7L841.859 1638.55L853.844 1627L865.728 1616.08L877.545 1605.83L889.33 1596.27L901.118 1587.44L912.945 1579.35L924.845 1572.02L936.854 1565.45L949.003 1559.64L961.327 1554.59L973.855 1550.28L986.615 1546.71L999.635 1543.84L1012.94 1541.65L1026.54 1540.11L1040.47 1539.17L1054.73 1538.8L1069.34 1538.95L1084.3 1539.56L1099.62 1540.59L1115.3 1541.98L1131.33 1543.67L1147.71 1545.59L1164.42 1547.69L1181.45 1549.91L1198.79 1552.19L1216.42 1554.47L1234.32 1556.69L1252.45 1558.8L1270.81 1560.76L1289.37 1562.5L1308.09 1563.99L1326.95 1565.19L1345.93 1566.06L1365 1566.56L1384.12 1566.66L1403.28 1566.33L1422.44 1565.55L1441.57 1564.3L1460.65 1562.56L1479.65 1560.3L1498.54 1557.51L1517.29 1554.17L1535.86 1550.27L1554.23 1545.79L1572.36 1540.72L1590.22 1535.06L1607.78 1528.8L1625.02 1521.94L1641.91 1514.47L1658.42 1506.41L1674.54 1497.76L1690.25 1488.53L1705.52 1478.74L1720.34 1468.39L1734.7 1457.51L1748.59 1446.11L1762.01 1434.21L1774.94 1421.84L1787.4 1409.02L1799.36 1395.77L1810.85 1382.12L1821.87 1368.1L1832.41 1353.72L1842.5 1339.02L1852.15 1324.03L1861.36 1308.77L1870.15 1293.26L1878.54 1277.53L1886.54 1261.6L1894.18 1245.5L1901.48 1229.25L1908.45 1212.88L1915.12 1196.39L1921.52 1179.82L1927.65 1163.17L1933.56 1146.47L1939.25 1129.73L1944.77 1112.96L1950.12 1096.18L1955.33 1079.39L1960.43 1062.61L1965.44 1045.84L1970.38 1029.09L1975.28 1012.36L1980.15 995.661L1985.01 978.992L1989.89 962.352L1994.8 945.743L1999.76 929.161L2004.78 912.605L2009.89 896.069L2015.09 879.551L2020.39 863.043L2025.82 846.538L2031.36 830.03L2037.04 813.509L2042.86 796.968L2048.82 780.397L2054.92 763.785L2061.16 747.123L2067.55 730.4L2074.08 713.606L2080.73 696.73L2087.52 679.762L2094.42 662.691L2101.42 645.507L2108.52 628.2L2115.69 610.762L2122.91 593.184L2130.18 575.458L2137.46 557.577L2144.73 539.535L2151.98 521.326L2159.16 502.948L2166.26 484.398L2173.24 465.673L2180.08 446.775L2186.75 427.704L2193.21 408.464L2199.43 389.058L2205.38 369.492L2211.03 349.775L2216.33 329.915L2221.26 309.923L2225.78 289.811L2229.86 269.595L2233.44 249.291L2236.51 228.917L2239.01 208.493L2240.91 188.041L2242.18 167.585L2242.79 147.15L2242.7 126.76L2241.88 106.44L2240.32 86.23L2237.99 66.15L2234.86 46.22L2230.94 26.48L2226.2 6.95996L2220.64 -12.3199L2214.26 -31.33L2207.05 -50.04L2199.03 -68.42L2190.19 -86.45L2180.55 -104.11L2170.13 -121.38L2158.94 -138.23L2147.01 -154.65L2134.37 -170.62L2121.03 -186.12L2107.04 -201.16L2092.44 -215.72L2077.24 -229.79L2061.51 -243.37L2045.27 -256.47L2028.57 -269.08L2011.47 -281.22L1994 -292.89L1976.21 -304.11L1958.15 -314.89L1939.88 -325.25L1921.44 -335.22L1902.89 -344.82L1884.26 -354.08L1865.62 -363.03L1847.01 -371.71L1828.47 -380.14L1810.06 -388.38L1791.81 -396.45L1773.77 -404.41L1755.97 -412.29L1738.45 -420.14L1721.25 -428.01L1704.39 -435.94L1687.91 -443.97L1671.81 -452.16L1656.13 -460.55L1640.87 -469.17L1626.05 -478.08L1611.67 -487.32L1597.74 -496.91L1584.24 -506.9Z" fill="#002653"/>
</g>
<g clip-path="url(#clip1_468_123)">
<path fill-rule="evenodd" clip-rule="evenodd" d="M2156.15 763.408L2147.05 751.032L2138.5 738.391L2130.47 725.467L2122.97 712.229L2115.98 698.668L2109.47 684.756L2103.41 670.49L2097.78 655.858L2092.54 640.856L2087.63 625.477L2083.03 609.74L2078.68 593.64L2074.53 577.183L2070.53 560.404L2066.63 543.3L2062.77 525.901L2058.89 508.228L2054.95 490.32L2050.89 472.211L2046.65 453.918L2042.16 435.508L2037.38 417.02L2032.25 398.501L2026.69 380.018L2020.68 361.615L2014.15 343.348L2007.07 325.292L1999.39 307.478L1991.08 289.984L1982.11 272.87L1972.44 256.195L1962.05 240.015L1950.92 224.408L1939.02 209.433L1926.34 195.159L1912.87 181.633L1898.62 168.919L1883.59 157.064L1867.79 146.128L1851.24 136.154L1833.94 127.171L1815.94 119.229L1797.27 112.338L1777.96 106.525L1758.05 101.812L1737.58 98.2102L1716.61 95.7091L1695.19 94.3119L1673.37 94.0079L1651.2 94.7755L1628.74 96.6026L1606.04 99.4506L1583.18 103.29L1560.19 108.08L1537.14 113.775L1514.08 120.315L1491.07 127.659L1468.16 135.74L1445.39 144.498L1422.82 153.87L1400.49 163.777L1378.42 174.166L1356.68 184.944L1335.28 196.048L1314.25 207.401L1293.61 218.926L1273.4 230.547L1253.62 242.192L1234.29 253.791L1215.4 265.271L1196.98 276.55L1179 287.58L1161.47 298.277L1144.38 308.599L1127.72 318.47L1111.47 327.847L1095.61 336.668L1080.11 344.907L1064.96 352.503L1050.12 359.436L1035.56 365.671L1021.26 371.178L1007.17 375.94L993.265 379.945L979.505 383.183L965.859 385.644L952.289 387.328L938.755 388.258L925.227 388.426L911.666 387.868L898.041 386.593L884.317 384.638L870.469 382.022L856.465 378.792L842.278 374.987L827.884 370.656L813.269 365.831L798.407 360.58L783.286 354.956L767.897 349.01L752.233 342.798L736.286 336.399L720.059 329.863L703.553 323.264L686.776 316.668L669.739 310.136L652.457 303.737L634.949 297.532L617.232 291.601L599.335 285.989L581.282 280.76L563.097 275.976L544.817 271.667L526.472 267.879L508.089 264.666L489.706 262.058L471.359 260.094L453.086 258.813L434.927 258.245L416.922 258.42L399.114 259.361L381.545 261.089L364.248 263.632L347.273 266.987L330.651 271.171L314.426 276.18L298.628 282.022L283.293 288.68L268.452 296.143L254.129 304.402L240.353 313.425L227.139 323.201L214.508 333.688L202.471 344.852L191.039 356.651L180.213 369.055L169.993 382.019L160.375 395.486L151.349 409.416L142.903 423.748L135.013 438.449L127.662 453.448L120.823 468.69L114.459 484.137L108.54 499.724L103.025 515.402L97.8751 531.113L93.0394 546.823L88.4783 562.464L84.1372 578.003L79.9638 593.395L75.907 608.598L71.9137 623.569L67.9238 638.289L63.8894 652.707L59.7496 666.815L55.4494 680.588L50.9412 693.992L46.1696 707.02L41.083 719.668L35.6309 731.929L29.7756 743.783L23.4646 755.251L16.6647 766.319L9.33643 777.008L1.44652 787.323L-7.03562 797.281L-16.1347 806.898L-25.8737 816.194L-36.2708 825.191L-47.3385 833.915L-59.0897 842.392L-71.527 850.65L-84.656 858.719L-98.473 866.63L-112.972 874.416L-128.145 882.11L-143.979 889.744L-160.457 897.35L-177.558 904.965L-195.26 912.621L-213.535 920.35L-232.352 928.187L-251.677 936.162L-271.473 944.308L-291.697 952.654L-312.303 961.233L-333.24 970.072L-354.452 979.201L-375.88 988.645L-397.459 998.428L-419.12 1008.58L-440.782 1019.11L-462.365 1030.05L-483.779 1041.42L-504.934 1053.22L-525.735 1065.48L-546.086 1078.19L-565.887 1091.37L-585.045 1105.01L-603.459 1119.11L-621.037 1133.67L-637.69 1148.66L-653.331 1164.07L-667.882 1179.88L-681.265 1196.07L-693.409 1212.61L-704.249 1229.47L-713.724 1246.61L-721.779 1264L-728.368 1281.61L-733.447 1299.38L-736.983 1317.28L-738.95 1335.26L-739.325 1353.29L-738.098 1371.3L-735.264 1389.26L-730.828 1407.13L-724.802 1424.84L-717.205 1442.37L-708.067 1459.67L-697.423 1476.69L-685.32 1493.39L-671.807 1509.74L-656.946 1525.7L-640.804 1541.24L-623.455 1556.33L-604.979 1570.95L-585.462 1585.07L-564.997 1598.68L-543.679 1611.77L-521.608 1624.32L-498.89 1636.34L-475.632 1647.82L-451.943 1658.78L-427.931 1669.22L-403.71 1679.16L-379.39 1688.62L-355.081 1697.62L-330.892 1706.2L-306.927 1714.39L-283.292 1722.22L-260.084 1729.74L-237.397 1736.99L-215.323 1744.01L-193.942 1750.86L-173.335 1757.59L-153.568 1764.25L-134.707 1770.89L-116.806 1777.57L-99.9132 1784.35L-84.0673 1791.27L-69.2969 1798.39L-55.6246 1805.77L-43.0639 1813.45L-31.6167 1821.47L-21.2798 1829.89L-12.04 1838.74L-3.87423 1848.07L3.24664 1857.89L9.36031 1868.25L14.5115 1879.16L18.7523 1890.65L22.1405 1902.72L24.7403 1915.39L26.6199 1928.65L27.8529 1942.51L28.5159 1956.95L28.6885 1971.95L28.4521 1987.51L27.8892 2003.59L27.0829 2020.17L26.1158 2037.2L25.0676 2054.67L24.0172 2072.52L23.0416 2090.72L22.2159 2109.21L21.617 2127.95L21.3202 2146.87L21.3989 2165.92L21.9228 2185.04L22.9575 2204.14L24.5625 2223.18L26.7916 2242.08L29.6906 2260.78L33.2999 2279.22L37.6554 2297.32L42.7883 2315.04L48.7241 2332.3L55.4838 2349.04L63.0824 2365.2L71.5285 2380.72L80.8273 2395.56L90.9765 2409.64L101.967 2422.94L113.788 2435.4L126.42 2446.99L139.84 2457.67L154.02 2467.4L168.926 2476.18L184.525 2483.97L200.776 2490.76L217.634 2496.55L235.054 2501.33L252.989 2505.11L271.387 2507.89L290.196 2509.69L309.365 2510.53L328.84 2510.44L348.567 2509.44L368.494 2507.56L388.567 2504.86L408.735 2501.36L428.949 2497.12L449.16 2492.19L469.321 2486.62L489.39 2480.47L509.326 2473.8L529.089 2466.67L548.646 2459.14L567.964 2451.29L587.015 2443.17L605.776 2434.85L624.225 2426.39L642.344 2417.88L660.123 2409.36L677.549 2400.91L694.619 2392.58L711.331 2384.45L727.685 2376.57L743.69 2368.99L759.351 2361.78L774.685 2354.98L789.703 2348.63L804.426 2342.79L818.875 2337.49L833.072 2332.77L847.044 2328.65L860.819 2325.17L874.425 2322.34L887.894 2320.18L901.256 2318.69L914.544 2317.89L927.791 2317.78L941.027 2318.34L954.287 2319.56L967.603 2321.44L980.995 2323.93L994.509 2327.03L1008.16 2330.7L1021.97 2334.89L1035.97 2339.58L1050.19 2344.72L1064.63 2350.25L1079.31 2356.13L1094.24 2362.31L1109.44 2368.73L1124.9 2375.34L1140.63 2382.08L1156.64 2388.91L1172.93 2395.76L1189.46 2402.58L1206.27 2409.34L1223.33 2415.98L1240.62 2422.45L1258.14 2428.71L1275.88 2434.73L1293.81 2440.46L1311.93 2445.88L1330.21 2450.94L1348.64 2455.63L1367.18 2459.92L1385.84 2463.77L1404.58 2467.18L1423.39 2470.11L1442.23 2472.53L1461.08 2474.44L1479.93 2475.81L1498.73 2476.61L1517.47 2476.85L1536.1 2476.49L1554.63 2475.54L1573.01 2474L1591.22 2471.84L1609.25 2469.08L1627.07 2465.73L1644.65 2461.77L1661.98 2457.23L1679.04 2452.11L1695.82 2446.42L1712.3 2440.19L1728.48 2433.43L1744.35 2426.15L1759.88 2418.38L1775.09 2410.14L1789.97 2401.46L1804.51 2392.35L1818.72 2382.84L1832.61 2372.96L1846.16 2362.73L1859.4 2352.18L1872.32 2341.33L1884.94 2330.21L1897.27 2318.85L1909.32 2307.26L1921.11 2295.47L1932.64 2283.51L1943.94 2271.4L1955.01 2259.16L1965.89 2246.81L1976.57 2234.36L1987.1 2221.84L1997.47 2209.26L2007.71 2196.64L2017.85 2183.99L2027.89 2171.33L2037.87 2158.67L2047.8 2146.01L2057.69 2133.37L2067.56 2120.75L2077.44 2108.16L2087.34 2095.61L2097.28 2083.09L2107.27 2070.61L2117.33 2058.17L2127.48 2045.78L2137.72 2033.42L2148.08 2021.09L2158.55 2008.8L2169.15 1996.53L2179.89 1984.29L2190.78 1972.06L2201.81 1959.83L2212.99 1947.61L2224.33 1935.37L2235.82 1923.11L2247.46 1910.82L2259.26 1898.49L2271.19 1886.1L2283.25 1873.65L2295.45 1861.12L2307.76 1848.5L2320.16 1835.77L2332.65 1822.94L2345.2 1809.98L2357.79 1796.88L2370.42 1783.64L2383.03 1770.24L2395.62 1756.66L2408.15 1742.91L2420.61 1728.98L2432.95 1714.85L2445.16 1700.52L2457.18 1685.99L2469 1671.24L2480.59 1656.29L2491.88 1641.12L2502.87 1625.73L2513.5 1610.14L2523.76 1594.33L2533.56 1578.3L2542.9 1562.08L2551.72 1545.65L2559.98 1529.04L2567.64 1512.25L2574.66 1495.28L2581.01 1478.17L2586.65 1460.9L2591.54 1443.53L2595.67 1426.04L2598.99 1408.46L2601.5 1390.82L2603.16 1373.14L2603.97 1355.43L2603.91 1337.71L2602.97 1320.02L2601.16 1302.37L2598.47 1284.8L2594.89 1267.3L2590.45 1249.92L2585.15 1232.68L2579.01 1215.59L2572.06 1198.67L2564.29 1181.96L2555.76 1165.45L2546.5 1149.18L2536.52 1133.15L2525.88 1117.38L2514.6 1101.87L2502.73 1086.64L2490.34 1071.7L2477.44 1057.04L2464.1 1042.68L2450.37 1028.61L2436.3 1014.83L2421.95 1001.33L2407.38 988.112L2392.62 975.155L2377.76 962.456L2362.84 949.992L2347.9 937.756L2333.04 925.717L2318.26 913.864L2303.66 902.162L2289.25 890.594L2275.11 879.129L2261.27 867.737L2247.77 856.389L2234.67 845.063L2221.98 833.709L2209.74 822.305L2197.98 810.824L2186.73 799.224L2176 787.469L2165.81 775.546L2156.15 763.408Z" fill="#002653"/>
</g>
<rect width="1920" height="437" transform="translate(0 794)" fill="#002653"/>
<defs>
<clipPath id="clip0_468_123">
<rect width="1920" height="815" fill="white" transform="translate(0 1166)"/>
</clipPath>
<clipPath id="clip1_468_123">
<rect width="1920" height="720" fill="white" transform="translate(0 95)"/>
</clipPath>
</defs>
</svg>
