<svg width="951" height="908" viewBox="0 0 951 908" fill="none" xmlns="http://www.w3.org/2000/svg">
<path fill-rule="evenodd" clip-rule="evenodd" d="M910.946 462.71L910.604 468.069L910.459 473.425L910.512 478.788L910.763 484.168L911.211 489.571L911.853 495.009L912.682 500.487L913.692 506.015L914.873 511.6L916.214 517.248L917.701 522.967L919.321 528.759L921.059 534.632L922.895 540.587L924.814 546.627L926.796 552.754L928.821 558.968L930.871 565.269L932.923 571.656L934.956 578.125L936.944 584.671L938.864 591.289L940.69 597.972L942.397 604.71L943.962 611.495L945.361 618.316L946.571 625.161L947.573 632.019L948.347 638.876L948.871 645.718L949.128 652.531L949.097 659.297L948.761 666.001L948.104 672.624L947.111 679.149L945.77 685.558L944.071 691.833L942.004 697.957L939.566 703.913L936.751 709.683L933.56 715.253L929.993 720.606L926.055 725.73L921.752 730.612L917.092 735.24L912.086 739.604L906.748 743.697L901.091 747.511L895.132 751.042L888.89 754.285L882.383 757.24L875.633 759.906L868.661 762.286L861.491 764.384L854.145 766.205L846.648 767.757L839.023 769.047L831.297 770.089L823.492 770.892L815.634 771.471L807.746 771.841L799.852 772.019L791.974 772.021L784.135 771.865L776.355 771.573L768.654 771.162L761.051 770.655L753.563 770.072L746.206 769.435L738.995 768.765L731.944 768.085L725.062 767.416L718.36 766.778L711.847 766.194L705.529 765.684L699.411 765.267L693.496 764.962L687.786 764.787L682.281 764.76L676.979 764.896L671.878 765.209L666.973 765.712L662.258 766.418L657.727 767.336L653.371 768.475L649.181 769.841L645.147 771.441L641.257 773.276L637.5 775.35L633.863 777.662L630.332 780.21L626.895 782.99L623.537 785.998L620.244 789.226L617.002 792.665L613.796 796.305L610.613 800.134L607.439 804.138L604.259 808.303L601.061 812.611L597.832 817.045L594.56 821.585L591.234 826.211L587.842 830.902L584.376 835.635L580.826 840.388L577.186 845.138L573.448 849.859L569.606 854.53L565.658 859.125L561.6 863.624L557.43 868.005L553.148 872.248L548.756 876.335L544.255 880.247L539.647 883.967L534.936 887.476L530.127 890.758L525.225 893.796L520.235 896.574L515.165 899.077L510.021 901.293L504.813 903.209L499.549 904.815L494.238 906.103L488.891 907.066L483.517 907.7L478.127 908L472.731 907.966L467.34 907.6L461.965 906.904L456.615 905.883L451.3 904.544L446.03 902.896L440.814 900.951L435.66 898.719L430.576 896.215L425.569 893.455L420.644 890.456L415.807 887.237L411.062 883.816L406.412 880.215L401.858 876.454L397.401 872.555L393.042 868.542L388.779 864.436L384.609 860.261L380.528 856.039L376.533 851.794L372.617 847.547L368.773 843.321L364.995 839.136L361.273 835.014L357.598 830.973L353.961 827.032L350.351 823.208L346.758 819.517L343.168 815.973L339.572 812.589L335.957 809.377L332.31 806.347L328.621 803.507L324.876 800.863L321.065 798.42L317.175 796.182L313.195 794.151L309.116 792.327L304.926 790.707L300.616 789.291L296.177 788.072L291.601 787.046L286.88 786.206L282.008 785.543L276.979 785.048L271.788 784.712L266.43 784.524L260.904 784.47L255.206 784.54L249.335 784.719L243.291 784.994L237.074 785.351L230.687 785.774L224.132 786.249L217.412 786.759L210.533 787.29L203.5 787.824L196.322 788.344L189.007 788.834L181.566 789.276L174.01 789.652L166.353 789.943L158.61 790.132L150.798 790.198L142.937 790.123L135.049 789.886L127.155 789.47L119.279 788.854L111.447 788.022L103.685 786.957L96.0201 785.644L88.4791 784.068L81.0896 782.217L73.8782 780.082L66.8715 777.654L60.0952 774.927L53.5746 771.896L47.3339 768.56L41.3968 764.918L35.7858 760.97L30.522 756.719L25.6255 752.171L21.115 747.332L17.0072 742.209L13.3174 736.813L10.059 731.154L7.24326 725.246L4.87939 719.102L2.97439 712.737L1.53293 706.167L0.557263 699.411L0.0471921 692.487L0 685.413L0.410426 678.209L1.27065 670.896L2.57032 663.494L4.29653 656.024L6.43393 648.507L8.96475 640.963L11.8689 633.411L15.1241 625.874L18.7059 618.368L22.588 610.912L26.7422 603.525L31.1389 596.222L35.7468 589.019L40.5335 581.928L45.4658 574.964L50.5094 568.136L55.6296 561.455L60.7913 554.927L65.9597 548.56L71.0997 542.356L76.1769 536.32L81.1576 530.451L86.009 524.749L90.6994 519.211L95.1986 513.834L99.478 508.612L103.511 503.537L107.272 498.6L110.74 493.793L113.893 489.104L116.715 484.52L119.19 480.029L121.307 475.617L123.055 471.27L124.429 466.972L125.425 462.71L126.042 458.467L126.283 454.23L126.154 449.981L125.663 445.708L124.82 441.397L123.64 437.034L122.139 432.606L120.335 428.103L118.249 423.513L115.904 418.828L113.325 414.04L110.537 409.143L107.567 404.13L104.443 398.998L101.194 393.744L97.8475 388.368L94.4331 382.87L90.9789 377.251L87.5141 371.514L84.069 365.663L80.6745 359.706L77.3614 353.65L74.1601 347.505L71.1002 341.28L68.2098 334.988L65.5151 328.641L63.0401 322.252L60.8072 315.835L58.8373 309.406L57.1502 302.978L55.7642 296.569L54.6959 290.195L53.9599 283.872L53.5691 277.618L53.5341 271.449L53.8634 265.382L54.5634 259.434L55.6382 253.621L57.0897 247.958L58.9176 242.459L61.1193 237.139L63.6902 232.01L66.6236 227.085L69.9109 222.373L73.5416 217.884L77.5034 213.626L81.7825 209.606L86.3635 205.828L91.2296 202.297L96.3629 199.014L101.744 195.98L107.354 193.193L113.171 190.653L119.175 188.353L125.342 186.289L131.653 184.453L138.083 182.837L144.612 181.432L151.217 180.225L157.876 179.204L164.569 178.357L171.274 177.667L177.971 177.12L184.64 176.699L191.265 176.387L197.827 176.166L204.309 176.017L210.698 175.922L216.978 175.861L223.137 175.816L229.164 175.766L235.049 175.694L240.784 175.579L246.362 175.404L251.776 175.149L257.024 174.799L262.103 174.336L267.011 173.744L271.748 173.008L276.318 172.116L280.722 171.053L284.966 169.81L289.054 168.377L292.995 166.745L296.795 164.908L300.465 162.86L304.013 160.6L307.451 158.125L310.791 155.436L314.044 152.535L317.223 149.427L320.342 146.116L323.413 142.611L326.45 138.92L329.466 135.055L332.475 131.028L335.489 126.852L338.521 122.543L341.583 118.115L344.686 113.585L347.84 108.97L351.056 104.286L354.341 99.5514L357.703 94.7819L361.15 89.9947L364.686 85.206L368.318 80.4319L372.048 75.6876L375.88 70.988L379.817 66.3473L383.859 61.7789L388.008 57.2955L392.263 52.909L396.623 48.6305L401.088 44.4711L405.655 40.4419L410.323 36.5543L415.088 32.8195L419.948 29.2482L424.9 25.8508L429.938 22.6368L435.058 19.6152L440.255 16.7939L445.524 14.1799L450.859 11.7789L456.253 9.59593L461.701 7.63453L467.196 5.89733L472.731 4.38573L478.301 3.10009L483.897 2.03967L489.515 1.20267L495.147 0.586343L500.788 0.186979L506.431 0L512.071 0.0200179L517.703 0.240901L523.322 0.655844L528.923 1.25744L534.502 2.03776L540.056 2.98842L545.58 4.10063L551.074 5.36532L556.533 6.77316L561.956 8.31465L567.343 9.98015L572.691 11.76L578 13.6445L583.271 15.6242L588.503 17.6894L593.697 19.8308L598.855 22.0394L603.979 24.3063L609.069 26.6228L614.128 28.9808L619.16 31.3722L624.165 33.7896L629.149 36.2258L634.114 38.6741L639.063 41.1284L644 43.5828L648.929 46.0322L653.854 48.4716L658.78 50.8969L663.709 53.3043L668.646 55.6906L673.595 58.0533L678.561 60.3901L683.546 62.6995L688.556 64.9804L693.592 67.2325L698.66 69.4557L703.762 71.6507L708.901 73.8186L714.08 75.9611L719.301 78.0802L724.567 80.1787L729.879 82.2597L735.238 84.3269L740.645 86.3843L746.101 88.4364L751.605 90.4881L757.158 92.5448L762.757 94.6121L768.401 96.696L774.088 98.8029L779.814 100.939L785.577 103.112L791.371 105.329L797.193 107.596L803.037 109.921L808.897 112.31L814.768 114.772L820.641 117.312L826.511 119.938L832.368 122.656L838.205 125.473L844.013 128.396L849.782 131.43L855.501 134.582L861.162 137.858L866.752 141.262L872.259 144.802L877.671 148.48L882.975 152.303L888.159 156.275L893.209 160.397L898.113 164.673L902.858 169.105L907.433 173.693L911.824 178.437L916.021 183.336L920.014 188.388L923.793 193.59L927.348 198.94L930.671 204.432L933.755 210.06L936.595 215.82L939.184 221.705L941.519 227.707L943.597 233.818L945.415 240.03L946.974 246.334L948.275 252.721L949.318 259.182L950.107 265.706L950.647 272.284L950.942 278.906L951 285.561L950.829 292.241L950.437 298.934L949.835 305.631L949.035 312.324L948.048 319.002L946.888 325.657L945.569 332.282L944.106 338.867L942.516 345.408L940.814 351.896L939.018 358.327L937.147 364.695L935.217 370.996L933.247 377.228L931.257 383.387L929.264 389.472L927.287 395.483L925.345 401.419L923.456 407.281L921.637 413.072L919.906 418.795L918.278 424.453L916.77 430.05L915.396 435.592L914.168 441.086L913.099 446.537L912.2 451.953L911.48 457.341L910.946 462.71Z" fill="url(#paint0_linear_464_101)"/>
<defs>
<linearGradient id="paint0_linear_464_101" x1="56.0574" y1="463.205" x2="999.566" y2="349.021" gradientUnits="userSpaceOnUse">
<stop stop-color="#33D563"/>
<stop offset="1" stop-color="#E8A1FA"/>
</linearGradient>
</defs>
</svg>
