<svg width="2713" height="2563" viewBox="0 0 2713 2563" fill="none" xmlns="http://www.w3.org/2000/svg">
<path fill-rule="evenodd" clip-rule="evenodd" d="M2441.26 1305.4L2449.37 1317.66L2457.85 1330.17L2466.69 1342.93L2475.85 1355.98L2485.3 1369.32L2495 1382.96L2504.92 1396.94L2515.02 1411.24L2525.26 1425.89L2535.6 1440.89L2546 1456.25L2556.42 1471.96L2566.81 1488.04L2577.15 1504.47L2587.38 1521.26L2597.46 1538.4L2607.36 1555.89L2617.03 1573.71L2626.45 1591.86L2635.56 1610.32L2644.33 1629.09L2652.74 1648.14L2660.73 1667.45L2668.28 1687.01L2675.35 1706.8L2681.91 1726.8L2687.91 1746.96L2693.33 1767.29L2698.15 1787.73L2702.33 1808.28L2705.85 1828.89L2708.69 1849.55L2710.84 1870.21L2712.28 1890.86L2713 1911.46L2712.99 1931.99L2712.24 1952.42L2710.75 1972.72L2708.52 1992.86L2705.56 2012.83L2701.86 2032.58L2697.43 2052.11L2692.29 2071.39L2686.44 2090.4L2679.88 2109.11L2672.65 2127.51L2664.74 2145.57L2656.17 2163.28L2646.96 2180.62L2637.11 2197.57L2626.65 2214.11L2615.59 2230.23L2603.95 2245.9L2591.73 2261.12L2578.96 2275.86L2565.65 2290.1L2551.81 2303.84L2537.47 2317.04L2522.63 2329.7L2507.31 2341.8L2491.53 2353.32L2475.31 2364.25L2458.66 2374.56L2441.6 2384.25L2424.15 2393.29L2406.32 2401.68L2388.14 2409.39L2369.62 2416.42L2350.79 2422.76L2331.67 2428.39L2312.28 2433.3L2292.64 2437.48L2272.78 2440.94L2252.72 2443.66L2232.49 2445.65L2212.11 2446.9L2191.61 2447.41L2171.02 2447.19L2150.37 2446.24L2129.68 2444.57L2108.98 2442.2L2088.3 2439.14L2067.67 2435.4L2047.12 2431L2026.66 2425.97L2006.34 2420.33L1986.18 2414.11L1966.2 2407.35L1946.43 2400.06L1926.9 2392.3L1907.62 2384.12L1888.63 2375.57L1869.95 2366.73L1851.6 2357.65L1833.6 2348.43L1815.96 2339.14L1798.71 2329.86L1781.84 2320.7L1765.37 2311.73L1749.29 2303.05L1733.59 2294.75L1718.27 2286.93L1703.32 2279.66L1688.7 2273.03L1674.39 2267.12L1660.38 2262L1646.61 2257.74L1633.06 2254.38L1619.68 2251.97L1606.43 2250.57L1593.26 2250.19L1580.13 2250.86L1566.98 2252.6L1553.77 2255.41L1540.45 2259.28L1526.97 2264.19L1513.27 2270.14L1499.33 2277.07L1485.08 2284.96L1470.49 2293.75L1455.52 2303.38L1440.14 2313.8L1424.32 2324.91L1408.02 2336.66L1391.24 2348.94L1373.96 2361.68L1356.16 2374.77L1337.85 2388.12L1319.02 2401.63L1299.68 2415.2L1279.84 2428.72L1259.53 2442.09L1238.76 2455.2L1217.57 2467.96L1195.98 2480.26L1174.05 2492.02L1151.8 2503.13L1129.3 2513.52L1106.58 2523.1L1083.7 2531.79L1060.71 2539.53L1037.68 2546.26L1014.67 2551.91L991.719 2556.45L968.9 2559.83L946.27 2562.02L923.885 2563L901.8 2562.75L880.071 2561.27L858.747 2558.56L837.876 2554.62L817.502 2549.47L797.666 2543.14L778.404 2535.65L759.746 2527.04L741.72 2517.34L724.345 2506.62L707.637 2494.92L691.607 2482.29L676.259 2468.79L661.59 2454.5L647.593 2439.47L634.256 2423.78L621.561 2407.49L609.483 2390.67L597.991 2373.39L587.043 2355.74L576.593 2337.79L566.585 2319.62L556.961 2301.3L547.657 2282.9L538.609 2264.5L529.749 2246.15L521.012 2227.9L512.336 2209.8L503.661 2191.89L494.932 2174.2L486.1 2156.74L477.115 2139.53L467.929 2122.59L458.501 2105.92L448.79 2089.51L438.763 2073.37L428.39 2057.49L417.646 2041.85L406.514 2026.43L394.981 2011.21L383.04 1996.16L370.691 1981.25L357.939 1966.46L344.797 1951.74L331.282 1937.07L317.417 1922.41L303.233 1907.71L288.764 1892.94L274.051 1878.08L259.138 1863.07L244.074 1847.89L228.915 1832.5L213.717 1816.88L198.541 1800.99L183.451 1784.81L168.512 1768.32L153.792 1751.5L139.36 1734.33L125.285 1716.8L111.637 1698.9L98.4854 1680.64L85.8987 1662L73.9439 1643L62.6858 1623.63L52.187 1603.92L42.507 1583.88L33.7018 1563.52L25.8234 1542.87L18.9198 1521.95L13.0339 1500.79L8.20357 1479.43L4.4613 1457.89L1.83381 1436.22L0.341857 1414.44L0 1392.6L0.816499 1370.74L2.7932 1348.89L5.92552 1327.09L10.2025 1305.4L15.6068 1283.83L22.1151 1262.44L29.6981 1241.26L38.3212 1220.32L47.9445 1199.67L58.5237 1179.31L70.0105 1159.3L82.3535 1139.64L95.4989 1120.37L109.392 1101.5L123.975 1083.05L139.191 1065.03L154.979 1047.46L171.281 1030.34L188.033 1013.68L205.171 997.47L222.631 981.715L240.345 966.406L258.247 951.532L276.271 937.081L294.349 923.034L312.416 909.37L330.407 896.065L348.258 883.091L365.906 870.417L383.292 858.008L400.357 845.827L417.049 833.836L433.318 821.995L449.122 810.261L464.422 798.591L479.182 786.943L493.376 775.272L506.98 763.536L519.979 751.693L532.363 739.702L544.132 727.527L555.29 715.132L565.85 702.487L575.831 689.565L585.258 676.343L594.163 662.802L602.584 648.931L610.563 634.721L618.146 620.17L625.386 605.28L632.336 590.061L639.053 574.527L645.596 558.697L652.026 542.595L658.405 526.253L664.794 509.704L671.253 492.989L677.842 476.149L684.621 459.234L691.643 442.293L698.963 425.381L706.631 408.554L714.693 391.871L723.191 375.392L732.163 359.177L741.644 343.289L751.662 327.79L762.241 312.74L773.4 298.199L785.152 284.228L797.507 270.882L810.467 258.215L824.031 246.28L838.192 235.124L852.94 224.793L868.258 215.325L884.126 206.758L900.52 199.123L917.411 192.445L934.768 186.747L952.556 182.044L970.737 178.346L989.27 175.658L1008.11 173.976L1027.22 173.295L1046.55 173.598L1066.06 174.867L1085.69 177.072L1105.4 180.182L1125.14 184.154L1144.86 188.944L1164.52 194.5L1184.08 200.766L1203.49 207.679L1222.71 215.167L1241.71 223.148L1260.44 231.532L1278.87 240.223L1296.98 249.122L1314.74 258.125L1332.13 267.127L1349.14 276.019L1365.76 284.697L1381.99 293.055L1397.84 300.994L1413.31 308.415L1428.42 315.225L1443.2 321.335L1457.67 326.662L1471.86 331.13L1485.82 334.67L1499.57 337.222L1513.17 338.737L1526.66 339.173L1540.09 338.498L1553.51 336.691L1566.98 333.74L1580.55 329.643L1594.27 324.409L1608.19 318.057L1622.36 310.617L1636.84 302.126L1651.66 292.633L1666.88 282.197L1682.52 270.884L1698.63 258.769L1715.24 245.935L1732.36 232.473L1750.02 218.48L1768.24 204.058L1787.01 189.317L1806.34 174.367L1826.22 159.327L1846.64 144.313L1867.57 129.446L1889 114.848L1910.89 100.639L1933.2 86.9381L1955.87 73.8634L1978.87 61.5289L2002.13 50.0451L2025.59 39.517L2049.18 30.0443L2072.84 21.7196L2096.48 14.6282L2120.03 8.84719L2143.42 4.4447L2166.55 1.47941L2189.36 0L2211.76 0.0446873L2233.68 1.64093L2255.04 4.80518L2275.76 9.54276L2295.78 15.8478L2315.04 23.7035L2333.47 33.0821L2351.03 43.9456L2367.67 56.2456L2383.36 69.9249L2398.05 84.9173L2411.74 101.149L2424.4 118.539L2436.04 137.002L2446.64 156.446L2456.23 176.779L2464.82 197.903L2472.43 219.72L2479.1 242.129L2484.86 265.031L2489.76 288.333L2493.84 311.947L2497.13 335.792L2499.7 359.792L2501.56 383.877L2502.78 407.984L2503.4 432.057L2503.44 456.045L2502.96 479.904L2501.98 503.596L2500.53 527.092L2498.65 550.366L2496.34 573.397L2493.65 596.166L2490.59 618.654L2487.19 640.844L2483.47 662.719L2479.47 684.264L2475.21 705.464L2470.73 726.307L2466.05 746.78L2461.2 766.873L2456.22 786.577L2451.14 805.882L2445.99 824.784L2440.81 843.277L2435.62 861.358L2430.47 879.025L2425.38 896.279L2420.38 913.12L2415.52 929.553L2410.81 945.583L2406.29 961.215L2402 976.458L2397.95 991.323L2394.18 1005.82L2390.71 1019.96L2387.57 1033.77L2384.78 1047.24L2382.37 1060.41L2380.35 1073.29L2378.76 1085.9L2377.59 1098.26L2376.88 1110.4L2376.64 1122.32L2376.87 1134.06L2377.6 1145.65L2378.83 1157.09L2380.57 1168.43L2382.83 1179.69L2385.61 1190.88L2388.91 1202.05L2392.73 1213.2L2397.07 1224.38L2401.92 1235.61L2407.29 1246.91L2413.15 1258.31L2419.49 1269.83L2426.3 1281.5L2433.57 1293.35L2441.26 1305.4Z" fill="#002653"/>
</svg>
