<svg width="656" height="697" viewBox="0 0 656 697" fill="none" xmlns="http://www.w3.org/2000/svg">
<path fill-rule="evenodd" clip-rule="evenodd" d="M651.198 278.737V278.737L650.534 281.742L649.839 284.732L649.116 287.707L648.367 290.666L647.594 293.61L646.801 296.538L645.99 299.451L645.165 302.35L644.328 305.234L643.483 308.106L642.634 310.964L641.783 313.812L640.933 316.649L640.089 319.477L639.253 322.298L638.43 325.113L637.621 327.925L636.83 330.734L636.06 333.544L635.315 336.355L634.595 339.172L633.905 341.995L633.247 344.828L632.622 347.674L632.034 350.534L631.482 353.412L630.97 356.31L630.498 359.232L630.067 362.18L629.679 365.157L629.333 368.165L629.031 371.209L628.771 374.29L628.554 377.412L628.38 380.576L628.247 383.786L628.154 387.045L628.101 390.354L628.085 393.716L628.105 397.133L628.158 400.608L628.242 404.141L628.355 407.736L628.494 411.392L628.656 415.112L628.837 418.897L629.034 422.748L629.244 426.664L629.462 430.648L629.684 434.698L629.906 438.815L630.124 442.998L630.333 447.246L630.528 451.559L630.705 455.935L630.858 460.373L630.984 464.871L631.076 469.426L631.129 474.037L631.14 478.7L631.103 483.413L631.012 488.173L630.864 492.975L630.652 497.817L630.374 502.694L630.024 507.602L629.597 512.537L629.089 517.493L628.497 522.467L627.816 527.454L627.042 532.447L626.173 537.442L625.204 542.434L624.133 547.417L622.956 552.385L621.673 557.333L620.279 562.255L618.773 567.145L617.154 571.998L615.419 576.807L613.569 581.568L611.601 586.275L609.516 590.922L607.313 595.503L604.992 600.013L602.554 604.448L599.999 608.801L597.329 613.068L594.543 617.245L591.645 621.327L588.634 625.309L585.515 629.188L582.287 632.96L578.955 636.621L575.521 640.168L571.988 643.598L568.359 646.909L564.637 650.1L560.826 653.169L556.931 656.115L552.954 658.937L548.901 661.636L544.775 664.211L540.58 666.664L536.32 668.996L532 671.208L527.624 673.301L523.196 675.279L518.72 677.143L514.199 678.896L509.639 680.541L505.042 682.081L500.412 683.52L495.753 684.86L491.067 686.107L486.358 687.264L481.628 688.333L476.881 689.321L472.118 690.23L467.342 691.064L462.555 691.827L457.759 692.524L452.956 693.157L448.146 693.731L443.331 694.249L438.513 694.713L433.691 695.128L428.867 695.497L424.042 695.82L419.215 696.101L414.386 696.342L409.557 696.544L404.727 696.708L399.897 696.836L395.065 696.927L390.233 696.982L385.4 697L380.566 696.982L375.731 696.926L370.895 696.833L366.058 696.701L361.221 696.53L356.383 696.318L351.545 696.065L346.707 695.768L341.87 695.427L337.033 695.039L332.197 694.604L327.364 694.119L322.533 693.582L317.706 692.993L312.883 692.347L308.066 691.645L303.255 690.883L298.452 690.06L293.658 689.174L288.875 688.222L284.104 687.203L279.347 686.115L274.605 684.956L269.88 683.724L265.175 682.418L260.49 681.035L255.829 679.575L251.193 678.036L246.584 676.417L242.004 674.717L237.456 672.934L232.942 671.068L228.464 669.118L224.024 667.084L219.625 664.964L215.269 662.76L210.958 660.471L206.694 658.097L202.48 655.638L198.317 653.095L194.208 650.468L190.154 647.759L186.158 644.968L182.221 642.096L178.346 639.144L174.533 636.115L170.785 633.009L167.102 629.829L163.487 626.575L159.939 623.252L156.46 619.86L153.05 616.404L149.71 612.886L146.438 609.309L143.236 605.676L140.103 601.991L137.038 598.258L134.039 594.479L131.107 590.66L128.239 586.802L125.434 582.91L122.69 578.988L120.005 575.038L117.378 571.065L114.806 567.071L112.286 563.061L109.816 559.036L107.395 555L105.018 550.956L102.683 546.907L100.389 542.854L98.1311 538.8L95.9077 534.748L93.7158 530.699L91.5527 526.654L89.4158 522.615L87.3026 518.584L85.2105 514.561L83.1372 510.548L81.0803 506.544L79.0377 502.55L77.0072 498.567L74.9871 494.595L72.9754 490.633L70.9707 486.681L68.9714 482.738L66.9762 478.805L64.9839 474.88L62.9937 470.963L61.0047 467.052L59.0165 463.146L57.0287 459.244L55.0413 455.345L53.0545 451.448L51.0689 447.55L49.0851 443.65L47.1041 439.746L45.1271 435.838L43.1557 431.922L41.1914 427.998L39.2362 424.064L37.2923 420.117L35.362 416.157L33.4478 412.182L31.5526 408.19L29.6791 404.18L27.8305 400.151L26.01 396.101L24.2208 392.03L22.4666 387.936L20.7508 383.819L19.077 379.679L17.4491 375.513L15.8706 371.323L14.3454 367.108L12.8772 362.867L11.4699 358.602L10.1272 354.313L8.85276 349.999L7.65023 345.662L6.52318 341.303L5.47508 336.922L4.50927 332.52L3.629 328.1L2.83733 323.662L2.13721 319.208L1.53139 314.74L1.02244 310.26L0.612756 305.769L0.304514 301.271L0.0996798 296.766L0 292.258L0.00699087 287.749L0.121934 283.241L0.345871 278.737L0.6796 274.239L1.12367 269.75L1.67839 265.274L2.3437 260.811L3.1192 256.365L4.00409 251.939L4.99722 247.535L6.09709 243.156L7.30187 238.804L8.60943 234.481L10.0173 230.189L11.5229 225.931L13.1231 221.708L14.8148 217.523L16.5947 213.376L18.459 209.269L20.4042 205.204L22.4263 201.181L24.5214 197.202L26.6854 193.267L28.9142 189.376L31.2036 185.531L33.5494 181.731L35.9476 177.976L38.394 174.266L40.8845 170.601L43.4152 166.981L45.9822 163.404L48.5816 159.87L51.21 156.378L53.8639 152.928L56.5399 149.517L59.2349 146.146L61.946 142.813L64.6707 139.516L67.4062 136.254L70.1505 133.027L72.9015 129.832L75.6575 126.669L78.4168 123.536L81.1783 120.431L83.9409 117.355L86.7037 114.305L89.4663 111.281L92.2283 108.281L94.9897 105.306L97.7503 102.353L100.511 99.4232L103.271 96.5152L106.032 93.6288L108.794 90.7638L111.558 87.92L114.326 85.0974L117.098 82.2962L119.875 79.5166L122.66 76.7592L125.452 74.0246L128.254 71.3133L131.068 68.6264L133.894 65.9648L136.735 63.3298L139.591 60.7225L142.465 58.1444L145.358 55.597L148.271 53.0821L151.206 50.6012L154.165 48.1563L157.148 45.7493L160.157 43.3822L163.193 41.0571L166.257 38.7761L169.35 36.5413L172.473 34.355L175.627 32.2194L178.811 30.1366L182.027 28.1088L185.275 26.1383L188.554 24.2272L191.866 22.3776L195.209 20.5914L198.584 18.8707L201.989 17.2174L205.425 15.6331L208.89 14.1196L212.384 12.6784L215.905 11.3109L219.453 10.0184L223.026 8.80204L226.623 7.6627L230.242 6.60122L233.881 5.61823L237.539 4.71417L241.214 3.88932L244.905 3.14379L248.608 2.47763L252.322 1.89088L256.046 1.38352L259.778 0.955512L263.515 0.606742L267.256 0.337061L270.999 0.146249L274.742 0.0340162L278.484 0L282.221 0.0437551L285.954 0.16475L289.679 0.362364L293.395 0.635878L297.101 0.984476L300.793 1.40724L304.471 1.90314L308.133 2.47106L311.777 3.10974L315.402 3.81785L319.004 4.59392L322.584 5.43639L326.14 6.34356L329.669 7.31367L333.17 8.34482L336.643 9.43502L340.085 10.5822L343.495 11.7841L346.873 13.0385L350.216 14.3429L353.525 15.6951L356.797 17.0923L360.032 18.532L363.23 20.0116L366.389 21.5282L369.509 23.0792L372.59 24.6615L375.631 26.2725L378.631 27.909L381.592 29.5682L384.512 31.247L387.393 32.9425L390.233 34.6517L393.033 36.3715L395.795 38.099L398.518 39.8312L401.202 41.5652L403.85 43.2982L406.462 45.0273L409.038 46.7499L411.58 48.4632L414.089 50.1647L416.566 51.852L419.013 53.5226L421.431 55.1742L423.822 56.8048L426.188 58.4123L428.529 59.9947L430.849 61.5503L433.148 63.0775L435.428 64.5748L437.693 66.0409L439.942 67.4745L442.179 68.8746L444.405 70.2404L446.622 71.5711L448.832 72.8661L451.038 74.1251L453.241 75.3478L455.444 76.5342L457.647 77.6842L459.853 78.7982L462.064 79.8765L464.282 80.9197L466.508 81.9285L468.745 82.9036L470.993 83.8461L473.254 84.7571L475.53 85.6377L477.822 86.4894L480.131 87.3136L482.459 88.1118L484.807 88.8859L487.175 89.6375L489.565 90.3686L491.977 91.081L494.412 91.7769L496.871 92.4582L499.354 93.1273L501.862 93.7862L504.394 94.4373L506.951 95.0828L509.533 95.7251L512.139 96.3668L514.77 97.0104L517.425 97.6583L520.103 98.3134L522.803 98.9781L525.525 99.6551L528.268 100.347L531.03 101.057L533.81 101.786L536.607 102.539L539.419 103.316L542.245 104.121L545.082 104.956L547.93 105.824L550.786 106.725L553.648 107.663L556.514 108.64L559.383 109.658L562.251 110.717L565.117 111.821L567.979 112.97L570.833 114.166L573.679 115.411L576.513 116.706L579.332 118.051L582.136 119.449L584.92 120.9L587.683 122.404L590.422 123.963L593.135 125.576L595.818 127.246L598.47 128.971L601.088 130.752L603.67 132.59L606.212 134.484L608.713 136.435L611.17 138.441L613.579 140.504L615.94 142.622L618.249 144.796L620.504 147.024L622.702 149.306L624.841 151.641L626.92 154.029L628.935 156.467L630.886 158.956L632.77 161.492L634.586 164.076L636.332 166.706L638.007 169.379L639.61 172.095L641.139 174.851L642.594 177.646L643.975 180.478L645.279 183.344L646.508 186.243L647.66 189.173L648.735 192.132L649.734 195.117L650.656 198.126L651.503 201.159L652.273 204.211L652.969 207.281L653.59 210.368L654.137 213.469L654.611 216.581L655.014 219.704L655.346 222.835L655.609 225.972L655.805 229.113L655.934 232.257L655.998 235.402L656 238.546L655.94 241.688L655.822 244.825L655.646 247.957L655.414 251.083L655.129 254.201L654.794 257.309L654.409 260.408L653.977 263.495L653.501 266.57L652.983 269.633L652.425 272.682L651.829 275.716L651.198 278.737" fill="url(#paint0_linear_464_100)"/>
<defs>
<linearGradient id="paint0_linear_464_100" x1="456.288" y1="221.875" x2="154.835" y2="841.816" gradientUnits="userSpaceOnUse">
<stop stop-color="#33D563"/>
<stop offset="1" stop-color="#2B5278"/>
</linearGradient>
</defs>
</svg>
