<svg width="329" height="529" viewBox="0 0 329 529" fill="none" xmlns="http://www.w3.org/2000/svg">
<path fill-rule="evenodd" clip-rule="evenodd" d="M324.198 278.737L323.534 281.742L322.839 284.732L322.116 287.707L321.367 290.666L320.594 293.61L319.801 296.538L318.99 299.451L318.165 302.35L317.328 305.234L316.483 308.106L315.634 310.964L314.783 313.812L313.933 316.649L313.089 319.477L312.253 322.298L311.43 325.113L310.621 327.925L309.83 330.734L309.06 333.544L308.315 336.355L307.595 339.172L306.905 341.995L306.247 344.828L305.622 347.674L305.034 350.534L304.482 353.412L303.97 356.31L303.498 359.232L303.067 362.18L302.679 365.157L302.333 368.165L302.031 371.209L301.771 374.29L301.554 377.412L301.38 380.576L301.247 383.786L301.154 387.045L301.101 390.354L301.085 393.716L301.105 397.133L301.158 400.608L301.242 404.141L301.355 407.736L301.494 411.392L301.656 415.112L301.837 418.897L302.034 422.748L302.244 426.664L302.462 430.648L302.684 434.698L302.906 438.815L303.124 442.998L303.333 447.246L303.528 451.559L303.705 455.935L303.858 460.373L303.984 464.871L304.076 469.426L304.129 474.037L304.14 478.7L304.103 483.413L304.012 488.173L303.864 492.975L303.652 497.817L303.374 502.694L303.023 507.602L302.597 512.536L302.089 517.493L301.497 522.467L300.816 527.454L300.042 532.447L299.173 537.442L298.204 542.434L297.133 547.417L295.956 552.385L294.673 557.333L293.279 562.255L291.773 567.145L290.154 571.998L288.419 576.807L286.569 581.568L284.601 586.275L282.516 590.922L280.313 595.503L277.992 600.013L275.554 604.448L272.999 608.801L270.329 613.068L267.543 617.245L264.645 621.327L261.634 625.309L258.515 629.188L255.287 632.96L251.955 636.621L248.521 640.168L244.988 643.598L241.359 646.909L237.637 650.1L233.826 653.169L229.931 656.115L225.954 658.937L221.901 661.636L217.775 664.211L213.58 666.664L209.32 668.996L205 671.208L200.624 673.301L196.196 675.279L191.72 677.143L187.199 678.896L182.639 680.541L178.042 682.081L173.412 683.52L168.753 684.86L164.067 686.107L159.358 687.264L154.628 688.333L149.881 689.321L145.118 690.23L140.342 691.064L135.555 691.827L130.759 692.524L125.956 693.157L121.146 693.731L116.331 694.249L111.513 694.713L106.691 695.128L101.867 695.497L97.0416 695.82L92.2145 696.101L87.3863 696.342L82.5572 696.544L77.7273 696.708L72.8965 696.836L68.0651 696.927L63.2327 696.982L58.3996 697L53.5656 696.982L48.7306 696.926L43.8949 696.833L39.0584 696.701L34.2212 696.53L29.3835 696.318L24.5455 696.065L19.7075 695.768L14.8698 695.427L10.033 695.039L5.19751 694.604L0.364014 694.119L-4.46677 693.582L-9.29404 692.993L-14.1168 692.347L-18.9342 691.645L-23.7449 690.883L-28.5478 690.06L-33.3416 689.174L-38.1247 688.222L-42.8958 687.203L-47.6531 686.115L-52.3949 684.956L-57.1196 683.724L-61.8251 682.418L-66.5096 681.035L-71.171 679.575L-75.8073 678.036L-80.4163 676.417L-84.9959 674.717L-89.5439 672.934L-94.058 671.068L-98.536 669.118L-102.976 667.083L-107.375 664.964L-111.731 662.76L-116.042 660.471L-120.306 658.097L-124.52 655.638L-128.683 653.095L-132.792 650.468L-136.846 647.759L-140.842 644.968L-144.779 642.096L-148.654 639.144L-152.467 636.115L-156.215 633.009L-159.898 629.829L-163.513 626.575L-167.061 623.252L-170.54 619.86L-173.95 616.404L-177.29 612.886L-180.562 609.309L-183.764 605.676L-186.897 601.991L-189.962 598.258L-192.961 594.479L-195.893 590.66L-198.761 586.802L-201.566 582.91L-204.31 578.988L-206.995 575.038L-209.622 571.065L-212.194 567.071L-214.714 563.061L-217.184 559.036L-219.605 555L-221.982 550.956L-224.317 546.907L-226.611 542.854L-228.869 538.8L-231.092 534.748L-233.284 530.699L-235.447 526.654L-237.584 522.615L-239.697 518.584L-241.789 514.561L-243.863 510.548L-245.92 506.544L-247.962 502.55L-249.993 498.567L-252.013 494.595L-254.025 490.633L-256.029 486.681L-258.029 482.738L-260.024 478.805L-262.016 474.88L-264.006 470.963L-265.995 467.052L-267.984 463.146L-269.971 459.244L-271.959 455.345L-273.945 451.448L-275.931 447.55L-277.915 443.65L-279.896 439.746L-281.873 435.838L-283.844 431.922L-285.809 427.998L-287.764 424.064L-289.708 420.117L-291.638 416.157L-293.552 412.182L-295.447 408.19L-297.321 404.18L-299.17 400.151L-300.99 396.101L-302.779 392.03L-304.533 387.936L-306.249 383.819L-307.923 379.679L-309.551 375.513L-311.129 371.323L-312.655 367.108L-314.123 362.867L-315.53 358.602L-316.873 354.313L-318.147 349.999L-319.35 345.662L-320.477 341.303L-321.525 336.922L-322.491 332.52L-323.371 328.1L-324.163 323.662L-324.863 319.208L-325.469 314.74L-325.978 310.26L-326.387 305.769L-326.695 301.271L-326.9 296.766L-327 292.258L-326.993 287.749L-326.878 283.241L-326.654 278.737L-326.32 274.239L-325.876 269.75L-325.322 265.274L-324.656 260.811L-323.881 256.365L-322.996 251.939L-322.003 247.535L-320.903 243.156L-319.698 238.804L-318.391 234.481L-316.983 230.189L-315.477 225.931L-313.877 221.708L-312.185 217.523L-310.405 213.376L-308.541 209.269L-306.596 205.204L-304.574 201.181L-302.479 197.202L-300.315 193.267L-298.086 189.376L-295.796 185.531L-293.451 181.731L-291.052 177.976L-288.606 174.266L-286.115 170.601L-283.585 166.981L-281.018 163.404L-278.418 159.87L-275.79 156.378L-273.136 152.928L-270.46 149.517L-267.765 146.146L-265.054 142.813L-262.329 139.516L-259.594 136.254L-256.849 133.027L-254.098 129.832L-251.343 126.669L-248.583 123.536L-245.822 120.431L-243.059 117.355L-240.296 114.305L-237.534 111.281L-234.772 108.281L-232.01 105.306L-229.25 102.353L-226.489 99.4232L-223.729 96.5152L-220.968 93.6288L-218.206 90.7638L-215.442 87.92L-212.674 85.0974L-209.902 82.2962L-207.125 79.5166L-204.34 76.7592L-201.548 74.0246L-198.746 71.3133L-195.932 68.6264L-193.106 65.9648L-190.265 63.3298L-187.409 60.7225L-184.535 58.1444L-181.642 55.597L-178.729 53.0821L-175.794 50.6012L-172.835 48.1563L-169.852 45.7493L-166.843 43.3822L-163.807 41.0571L-160.743 38.7761L-157.65 36.5413L-154.527 34.355L-151.373 32.2194L-148.189 30.1366L-144.973 28.1088L-141.725 26.1383L-138.446 24.2272L-135.134 22.3776L-131.791 20.5914L-128.416 18.8707L-125.011 17.2174L-121.575 15.6331L-118.11 14.1196L-114.616 12.6784L-111.094 11.3109L-107.547 10.0184L-103.974 8.80204L-100.377 7.6627L-96.758 6.60122L-93.1187 5.61823L-89.4606 4.71417L-85.7856 3.88932L-82.0955 3.14379L-78.3922 2.47763L-74.6777 1.89088L-70.9538 1.38353L-67.2223 0.955512L-63.4851 0.606742L-59.7441 0.337061L-56.0011 0.146249L-52.2579 0.0340162L-48.5165 0L-44.7786 0.0437551L-41.0461 0.16475L-37.3208 0.362364L-33.6046 0.635878L-29.8993 0.984476L-26.2067 1.40724L-22.5285 1.90314L-18.8666 2.47106L-15.2227 3.10974L-11.5984 3.81785L-7.99551 4.59392L-4.41565 5.43639L-0.860321 6.34356L2.66885 7.31367L6.17041 8.34482L9.64291 9.43502L13.085 10.5822L16.4954 11.7841L19.8729 13.0385L23.2163 14.3429L26.5247 15.6951L29.7969 17.0923L33.0322 18.532L36.2298 20.0116L39.3889 21.5282L42.5091 23.0792L45.5898 24.6615L48.6306 26.2725L51.6314 27.909L54.592 29.5682L57.5123 31.247L60.3925 32.9425L63.2327 34.6517L66.0333 36.3715L68.7948 38.099L71.5175 39.8312L74.2024 41.5652L76.8501 43.2982L79.4615 45.0273L82.0377 46.7499L84.5796 48.4632L87.0886 50.1647L89.566 51.852L92.0131 53.5226L94.4314 55.1742L96.8225 56.8048L99.1879 58.4123L101.529 59.9947L103.849 61.5503L106.148 63.0775L108.428 64.5749L110.693 66.0409L112.942 67.4745L115.179 68.8746L117.405 70.2404L119.622 71.5711L121.832 72.8661L124.038 74.1251L126.241 75.3478L128.444 76.5341L130.647 77.6842L132.853 78.7982L135.064 79.8765L137.282 80.9197L139.508 81.9285L141.745 82.9036L143.993 83.8461L146.254 84.7571L148.53 85.6377L150.822 86.4894L153.131 87.3136L155.459 88.1118L157.807 88.8859L160.175 89.6375L162.565 90.3686L164.977 91.081L167.412 91.7769L169.871 92.4582L172.354 93.1273L174.862 93.7862L177.394 94.4373L179.951 95.0828L182.533 95.7251L185.139 96.3668L187.77 97.0104L190.425 97.6583L193.103 98.3134L195.803 98.9781L198.525 99.6551L201.268 100.347L204.03 101.057L206.81 101.786L209.607 102.539L212.419 103.316L215.245 104.121L218.082 104.956L220.93 105.824L223.786 106.725L226.648 107.663L229.514 108.64L232.383 109.658L235.251 110.717L238.117 111.821L240.979 112.97L243.833 114.166L246.679 115.411L249.513 116.706L252.332 118.051L255.136 119.449L257.92 120.9L260.683 122.404L263.422 123.963L266.135 125.576L268.818 127.246L271.47 128.971L274.088 130.752L276.67 132.59L279.212 134.484L281.713 136.435L284.17 138.441L286.579 140.504L288.94 142.622L291.249 144.796L293.504 147.024L295.702 149.306L297.841 151.641L299.92 154.029L301.935 156.467L303.886 158.956L305.77 161.492L307.586 164.076L309.332 166.706L311.007 169.379L312.61 172.095L314.139 174.851L315.594 177.646L316.975 180.478L318.279 183.344L319.508 186.243L320.66 189.173L321.735 192.132L322.734 195.117L323.656 198.126L324.503 201.159L325.273 204.211L325.969 207.281L326.59 210.368L327.137 213.469L327.611 216.581L328.014 219.704L328.346 222.835L328.609 225.972L328.805 229.113L328.934 232.257L328.998 235.402L329 238.546L328.94 241.688L328.822 244.825L328.646 247.957L328.414 251.083L328.129 254.201L327.794 257.309L327.409 260.408L326.977 263.495L326.501 266.57L325.983 269.633L325.425 272.682L324.829 275.716L324.198 278.737Z" fill="url(#paint0_linear_290_369)"/>
<defs>
<linearGradient id="paint0_linear_290_369" x1="129.288" y1="221.875" x2="-172.165" y2="841.816" gradientUnits="userSpaceOnUse">
<stop stop-color="#33D563"/>
<stop offset="1" stop-color="#2B5278"/>
</linearGradient>
</defs>
</svg>
