<svg width="476" height="285" viewBox="0 0 476 285" fill="none" xmlns="http://www.w3.org/2000/svg">
<path fill-rule="evenodd" clip-rule="evenodd" d="M910.946 463.21L910.604 468.569L910.459 473.925L910.512 479.288L910.763 484.668L911.211 490.071L911.853 495.509L912.682 500.987L913.692 506.515L914.873 512.1L916.214 517.748L917.701 523.467L919.321 529.259L921.059 535.132L922.895 541.087L924.814 547.127L926.796 553.254L928.821 559.468L930.871 565.769L932.923 572.156L934.956 578.625L936.944 585.171L938.864 591.789L940.69 598.472L942.397 605.21L943.962 611.995L945.361 618.816L946.571 625.661L947.573 632.519L948.347 639.376L948.871 646.218L949.128 653.031L949.097 659.797L948.761 666.501L948.104 673.124L947.111 679.649L945.77 686.058L944.071 692.333L942.004 698.457L939.566 704.413L936.751 710.183L933.56 715.753L929.993 721.106L926.055 726.23L921.752 731.112L917.092 735.74L912.086 740.104L906.748 744.197L901.091 748.011L895.132 751.542L888.89 754.785L882.383 757.74L875.633 760.406L868.661 762.786L861.491 764.884L854.145 766.705L846.648 768.257L839.023 769.547L831.297 770.589L823.492 771.392L815.634 771.971L807.746 772.341L799.852 772.519L791.974 772.521L784.135 772.365L776.355 772.073L768.654 771.662L761.051 771.155L753.563 770.572L746.206 769.935L738.995 769.265L731.944 768.585L725.062 767.916L718.36 767.278L711.847 766.694L705.529 766.184L699.411 765.767L693.496 765.462L687.786 765.287L682.281 765.26L676.979 765.396L671.878 765.709L666.973 766.212L662.258 766.918L657.727 767.836L653.371 768.975L649.181 770.341L645.147 771.941L641.257 773.776L637.5 775.85L633.863 778.162L630.332 780.71L626.895 783.49L623.537 786.498L620.244 789.726L617.002 793.165L613.796 796.805L610.613 800.634L607.439 804.638L604.259 808.803L601.061 813.111L597.832 817.545L594.56 822.085L591.234 826.711L587.842 831.402L584.376 836.135L580.826 840.888L577.186 845.638L573.448 850.359L569.606 855.03L565.658 859.625L561.6 864.124L557.43 868.505L553.148 872.748L548.756 876.835L544.255 880.747L539.647 884.467L534.936 887.976L530.127 891.258L525.225 894.296L520.235 897.074L515.165 899.577L510.021 901.793L504.813 903.709L499.549 905.315L494.238 906.603L488.891 907.566L483.517 908.2L478.127 908.5L472.731 908.466L467.34 908.1L461.965 907.404L456.615 906.383L451.3 905.044L446.03 903.396L440.814 901.451L435.66 899.219L430.576 896.715L425.569 893.955L420.644 890.956L415.807 887.737L411.062 884.316L406.412 880.715L401.858 876.954L397.401 873.055L393.042 869.042L388.779 864.936L384.609 860.761L380.528 856.539L376.533 852.294L372.617 848.047L368.773 843.821L364.995 839.636L361.273 835.514L357.598 831.473L353.961 827.532L350.351 823.708L346.758 820.017L343.168 816.473L339.572 813.089L335.957 809.877L332.31 806.847L328.621 804.007L324.876 801.363L321.065 798.92L317.175 796.682L313.195 794.651L309.116 792.827L304.926 791.207L300.616 789.791L296.177 788.572L291.601 787.546L286.88 786.706L282.008 786.043L276.979 785.548L271.788 785.212L266.43 785.024L260.904 784.97L255.206 785.04L249.335 785.219L243.291 785.494L237.074 785.851L230.687 786.274L224.132 786.749L217.412 787.259L210.533 787.79L203.5 788.324L196.322 788.844L189.007 789.334L181.566 789.776L174.01 790.152L166.353 790.443L158.61 790.632L150.798 790.698L142.937 790.623L135.049 790.386L127.155 789.97L119.279 789.354L111.447 788.522L103.685 787.457L96.0201 786.144L88.4791 784.568L81.0896 782.717L73.8782 780.582L66.8715 778.154L60.0952 775.427L53.5746 772.396L47.3339 769.06L41.3968 765.418L35.7858 761.47L30.522 757.219L25.6255 752.671L21.115 747.832L17.0072 742.709L13.3174 737.313L10.059 731.654L7.24326 725.746L4.87939 719.602L2.97439 713.237L1.53293 706.667L0.557263 699.911L0.0471921 692.987L0 685.913L0.410426 678.709L1.27065 671.396L2.57032 663.994L4.29653 656.524L6.43393 649.007L8.96475 641.463L11.8689 633.911L15.1241 626.374L18.7059 618.868L22.588 611.412L26.7422 604.025L31.1389 596.722L35.7468 589.519L40.5335 582.428L45.4658 575.464L50.5094 568.636L55.6296 561.955L60.7913 555.427L65.9597 549.06L71.0997 542.856L76.1769 536.82L81.1576 530.951L86.009 525.249L90.6994 519.711L95.1986 514.334L99.478 509.112L103.511 504.037L107.272 499.1L110.74 494.293L113.893 489.604L116.715 485.02L119.19 480.529L121.307 476.117L123.055 471.77L124.429 467.472L125.425 463.21L126.042 458.967L126.283 454.73L126.154 450.481L125.663 446.208L124.82 441.897L123.64 437.534L122.139 433.106L120.335 428.603L118.249 424.013L115.904 419.328L113.325 414.54L110.537 409.643L107.567 404.63L104.443 399.498L101.194 394.244L97.8475 388.868L94.4331 383.37L90.9789 377.751L87.5141 372.014L84.069 366.163L80.6745 360.206L77.3614 354.15L74.1601 348.005L71.1002 341.78L68.2098 335.488L65.5151 329.141L63.0401 322.752L60.8072 316.335L58.8373 309.906L57.1502 303.478L55.7642 297.069L54.6959 290.695L53.9599 284.372L53.5691 278.118L53.5341 271.949L53.8634 265.882L54.5634 259.934L55.6382 254.121L57.0897 248.458L58.9176 242.959L61.1193 237.639L63.6902 232.51L66.6236 227.585L69.9109 222.873L73.5416 218.384L77.5034 214.126L81.7825 210.106L86.3635 206.328L91.2296 202.797L96.3629 199.514L101.744 196.48L107.354 193.693L113.171 191.153L119.175 188.853L125.342 186.789L131.653 184.953L138.083 183.337L144.612 181.932L151.217 180.725L157.876 179.704L164.569 178.857L171.274 178.167L177.971 177.62L184.64 177.199L191.265 176.887L197.827 176.666L204.309 176.517L210.698 176.422L216.978 176.361L223.137 176.316L229.164 176.266L235.049 176.194L240.784 176.079L246.362 175.904L251.776 175.649L257.024 175.299L262.103 174.836L267.011 174.244L271.748 173.508L276.318 172.616L280.722 171.553L284.966 170.31L289.054 168.877L292.995 167.245L296.795 165.408L300.465 163.36L304.013 161.1L307.451 158.625L310.791 155.936L314.044 153.035L317.223 149.927L320.342 146.616L323.413 143.111L326.45 139.42L329.466 135.555L332.475 131.528L335.489 127.352L338.521 123.043L341.583 118.615L344.686 114.085L347.84 109.47L351.056 104.786L354.341 100.051L357.703 95.2819L361.15 90.4947L364.686 85.706L368.318 80.9319L372.048 76.1876L375.88 71.488L379.817 66.8473L383.859 62.2789L388.008 57.7955L392.263 53.409L396.623 49.1305L401.088 44.9711L405.655 40.9419L410.323 37.0543L415.088 33.3195L419.948 29.7482L424.9 26.3508L429.938 23.1368L435.058 20.1152L440.255 17.2939L445.524 14.6799L450.859 12.2789L456.253 10.0959L461.701 8.13453L467.196 6.39733L472.731 4.88573L478.301 3.60009L483.897 2.53967L489.515 1.70267L495.147 1.08634L500.788 0.686979L506.431 0.5L512.071 0.520018L517.703 0.740901L523.322 1.15584L528.923 1.75744L534.502 2.53776L540.056 3.48842L545.58 4.60063L551.074 5.86532L556.533 7.27316L561.956 8.81465L567.343 10.4802L572.691 12.26L578 14.1445L583.271 16.1242L588.503 18.1894L593.697 20.3308L598.855 22.5394L603.979 24.8063L609.069 27.1228L614.128 29.4808L619.16 31.8722L624.165 34.2896L629.149 36.7258L634.114 39.1741L639.063 41.6284L644 44.0828L648.929 46.5322L653.854 48.9716L658.78 51.3969L663.709 53.8043L668.646 56.1906L673.595 58.5533L678.561 60.8901L683.546 63.1995L688.556 65.4804L693.592 67.7325L698.66 69.9557L703.762 72.1507L708.901 74.3186L714.08 76.4611L719.301 78.5802L724.567 80.6787L729.879 82.7597L735.238 84.8269L740.645 86.8843L746.101 88.9364L751.605 90.9881L757.158 93.0448L762.757 95.1121L768.401 97.196L774.088 99.3029L779.814 101.439L785.577 103.612L791.371 105.829L797.193 108.096L803.037 110.421L808.897 112.81L814.768 115.272L820.641 117.812L826.511 120.438L832.368 123.156L838.205 125.973L844.013 128.896L849.782 131.93L855.501 135.082L861.162 138.358L866.752 141.762L872.259 145.302L877.671 148.98L882.975 152.803L888.159 156.775L893.209 160.897L898.113 165.173L902.858 169.605L907.433 174.193L911.824 178.937L916.021 183.836L920.014 188.888L923.793 194.09L927.348 199.44L930.671 204.932L933.755 210.56L936.595 216.32L939.184 222.205L941.519 228.207L943.597 234.318L945.415 240.53L946.974 246.834L948.275 253.221L949.318 259.682L950.107 266.206L950.647 272.784L950.942 279.406L951 286.061L950.829 292.741L950.437 299.434L949.835 306.131L949.035 312.824L948.048 319.502L946.888 326.157L945.569 332.782L944.106 339.367L942.516 345.908L940.814 352.396L939.018 358.827L937.147 365.195L935.217 371.496L933.247 377.728L931.257 383.887L929.264 389.972L927.287 395.983L925.345 401.919L923.456 407.781L921.637 413.572L919.906 419.295L918.278 424.953L916.77 430.55L915.396 436.092L914.168 441.586L913.099 447.037L912.2 452.453L911.48 457.841L910.946 463.21Z" fill="url(#paint0_linear_290_288)"/>
<defs>
<linearGradient id="paint0_linear_290_288" x1="56.0574" y1="463.705" x2="999.566" y2="349.521" gradientUnits="userSpaceOnUse">
<stop stop-color="#33D563"/>
<stop offset="1" stop-color="#E8A1FA"/>
</linearGradient>
</defs>
</svg>
