<svg width="977" height="550" viewBox="0 0 977 550" fill="none" xmlns="http://www.w3.org/2000/svg">
<g filter="url(#filter0_d_290_153)">
<path d="M117.453 180.359C116.678 187.195 114.878 193.257 112.053 198.543C109.227 203.784 105.604 208.068 101.184 211.395C96.763 214.676 91.7272 217.16 86.0762 218.846C80.4707 220.532 74.3411 221.375 67.6875 221.375C61.4896 221.375 55.8385 220.691 50.7344 219.324C45.6302 218.003 41.3236 216.225 37.8145 213.992C34.3053 211.759 31.2064 209.048 28.5176 205.857C25.8288 202.622 23.6868 199.318 22.0918 195.945C20.4967 192.527 19.1979 188.813 18.1953 184.803C17.2383 180.747 16.5775 176.987 16.2129 173.523C15.8939 170.014 15.7344 166.368 15.7344 162.586V156.57C16.1901 149.917 17.7396 143.947 20.3828 138.66C23.026 133.328 26.2389 129.044 30.0215 125.809C33.804 122.527 38.1335 119.816 43.0098 117.674C47.8861 115.486 52.6257 113.982 57.2285 113.162C61.8314 112.296 66.4115 111.863 70.9688 111.863C78.306 111.863 84.7773 112.752 90.3828 114.529C96.0339 116.261 100.637 118.722 104.191 121.912C107.746 125.102 110.526 128.771 112.531 132.918C114.536 137.02 115.812 141.622 116.359 146.727V153.289C116.359 154.747 111.346 155.477 101.32 155.477C98.9505 155.477 95.6465 155.431 91.4082 155.34C87.2155 155.249 84.4583 155.203 83.1367 155.203C82.9089 155.203 82.5671 155.226 82.1113 155.271C81.6556 155.317 81.3138 155.34 81.0859 155.34C79.901 155.34 78.9896 154.861 78.3516 153.904C77.7591 152.902 77.349 151.694 77.1211 150.281C76.9388 148.868 76.6882 147.456 76.3691 146.043C76.0957 144.63 75.4805 143.445 74.5234 142.488C73.612 141.486 72.3359 140.984 70.6953 140.984C69.0547 140.984 67.6191 141.258 66.3887 141.805C65.1582 142.352 64.1784 143.217 63.4492 144.402C62.7201 145.542 62.1048 146.704 61.6035 147.889C61.1478 149.074 60.806 150.623 60.5781 152.537C60.3958 154.406 60.2591 156.001 60.168 157.322C60.1224 158.598 60.0768 160.33 60.0312 162.518C59.9857 164.66 59.9401 166.232 59.8945 167.234C59.8945 167.781 59.849 168.784 59.7578 170.242C59.6667 171.701 59.6211 172.885 59.6211 173.797C59.6211 185.145 62.6289 190.978 68.6445 191.297C70.2852 191.297 71.6296 190.704 72.6777 189.52C73.7259 188.335 74.4323 187.013 74.7969 185.555C75.207 184.096 75.6628 182.57 76.1641 180.975C76.6654 179.334 77.2122 178.217 77.8047 177.625H114.992C116.496 177.762 117.316 178.673 117.453 180.359ZM116.086 217C118.911 206.564 122.033 195.968 125.451 185.213C128.869 174.458 133.107 161.606 138.166 146.658C143.27 131.665 146.757 121.297 148.625 115.555C149.172 114.643 149.536 114.096 149.719 113.914H161.203C163.892 113.914 167.857 113.868 173.098 113.777C178.339 113.686 182.303 113.641 184.992 113.641H196.477C197.16 113.641 197.73 113.663 198.186 113.709C198.641 113.709 199.188 113.755 199.826 113.846C200.464 113.937 200.965 114.074 201.33 114.256C201.74 114.438 202.082 114.712 202.355 115.076C202.629 115.441 202.766 115.874 202.766 116.375L234.279 216.248C234.279 217.16 233.938 217.775 233.254 218.094C232.616 218.458 231.385 218.641 229.562 218.641H223.273C221.451 218.641 218.739 218.663 215.139 218.709C211.538 218.755 208.827 218.777 207.004 218.777C206.457 218.777 205.34 218.8 203.654 218.846C202.014 218.937 200.624 218.96 199.484 218.914C198.345 218.914 197.069 218.846 195.656 218.709C194.289 218.618 193.173 218.367 192.307 217.957C191.486 217.592 190.962 217.091 190.734 216.453V211.941C190.279 209.663 189.481 207.566 188.342 205.652C187.202 203.738 185.995 202.781 184.719 202.781H161.203L157.648 217.273C157.147 218.367 154.595 218.914 149.992 218.914H144.523C142.564 218.914 139.647 218.982 135.773 219.119C131.9 219.256 128.983 219.324 127.023 219.324H125.109C124.38 219.324 123.218 219.347 121.623 219.393C120.074 219.438 118.866 219.461 118 219.461C117.635 219.096 116.997 218.276 116.086 217ZM163.527 175.506L165.441 178.719H169.953C173.599 178.719 176.926 178.514 179.934 178.104C182.987 177.648 184.514 176.941 184.514 175.984L175.695 136.609C174.875 136.609 173.758 138.159 172.346 141.258C170.979 144.357 169.862 147.866 168.996 151.785L163.527 175.506ZM337.434 217.273C336.431 218.276 334.312 218.868 331.076 219.051C327.886 219.233 323.944 219.188 319.25 218.914C314.556 218.641 312.049 218.504 311.73 218.504C308.632 218.504 306.398 218.458 305.031 218.367H298.195C297.193 218.048 296.35 216.567 295.666 213.924C294.982 211.235 294.299 207.407 293.615 202.439C292.977 197.426 292.635 194.76 292.59 194.441C292.408 189.93 291.678 186.967 290.402 185.555C289.126 184.096 286.802 183.367 283.43 183.367H280.422V216.727C280.331 217.273 279.852 217.729 278.986 218.094C278.12 218.458 276.867 218.686 275.227 218.777C273.632 218.914 272.196 218.982 270.92 218.982C269.689 219.028 268.049 219.028 265.998 218.982C263.947 218.937 262.694 218.914 262.238 218.914H252.395C246.835 218.914 242.642 218.96 239.816 219.051C239.178 218.777 238.54 218.458 237.902 218.094V116.102C237.902 114.826 239.725 114.188 243.371 114.188H302.98C313.326 114.461 321.187 116.922 326.564 121.57C331.988 126.219 334.699 132.781 334.699 141.258C334.699 152.286 329.139 160.353 318.02 165.457C320.07 166.095 321.916 166.984 323.557 168.123C325.197 169.262 326.564 170.493 327.658 171.814C328.752 173.09 329.709 174.64 330.529 176.463C331.35 178.286 331.988 179.995 332.443 181.59C332.899 183.185 333.286 185.076 333.605 187.264C333.97 189.451 334.221 191.342 334.357 192.938C334.494 194.533 334.654 196.447 334.836 198.68C335.064 200.867 335.246 202.599 335.383 203.875V209.891C335.52 210.62 335.93 211.645 336.613 212.967C337.342 214.288 337.798 215.268 337.98 215.906C337.98 216.818 337.798 217.273 337.434 217.273ZM280.012 143.172C280.012 145.906 280.035 147.934 280.08 149.256C280.126 150.577 280.376 152.309 280.832 154.451C281.288 156.593 281.971 158.12 282.883 159.031C284.797 159.031 286.597 158.826 288.283 158.416C290.015 158.006 291.678 157.345 293.273 156.434C294.868 155.522 296.122 154.178 297.033 152.4C297.99 150.577 298.469 148.413 298.469 145.906C298.469 144.493 298.218 143.263 297.717 142.215C297.215 141.121 296.486 140.255 295.529 139.617C294.572 138.979 293.615 138.478 292.658 138.113C291.747 137.703 290.607 137.43 289.24 137.293C287.919 137.111 286.87 136.997 286.096 136.951C285.321 136.906 284.387 136.883 283.293 136.883H281.652C280.969 137.202 280.513 137.84 280.285 138.797C280.103 139.754 280.012 141.212 280.012 143.172ZM444.074 217.273C443.072 218.276 440.952 218.868 437.717 219.051C434.527 219.233 430.585 219.188 425.891 218.914C421.197 218.641 418.69 218.504 418.371 218.504C415.272 218.504 413.039 218.458 411.672 218.367H404.836C403.833 218.048 402.99 216.567 402.307 213.924C401.623 211.235 400.939 207.407 400.256 202.439C399.618 197.426 399.276 194.76 399.23 194.441C399.048 189.93 398.319 186.967 397.043 185.555C395.767 184.096 393.443 183.367 390.07 183.367H387.062V216.727C386.971 217.273 386.493 217.729 385.627 218.094C384.761 218.458 383.508 218.686 381.867 218.777C380.272 218.914 378.837 218.982 377.561 218.982C376.33 219.028 374.689 219.028 372.639 218.982C370.588 218.937 369.335 218.914 368.879 218.914H359.035C353.475 218.914 349.283 218.96 346.457 219.051C345.819 218.777 345.181 218.458 344.543 218.094V116.102C344.543 114.826 346.366 114.188 350.012 114.188H409.621C419.966 114.461 427.827 116.922 433.205 121.57C438.628 126.219 441.34 132.781 441.34 141.258C441.34 152.286 435.78 160.353 424.66 165.457C426.711 166.095 428.557 166.984 430.197 168.123C431.838 169.262 433.205 170.493 434.299 171.814C435.393 173.09 436.35 174.64 437.17 176.463C437.99 178.286 438.628 179.995 439.084 181.59C439.54 183.185 439.927 185.076 440.246 187.264C440.611 189.451 440.861 191.342 440.998 192.938C441.135 194.533 441.294 196.447 441.477 198.68C441.704 200.867 441.887 202.599 442.023 203.875V209.891C442.16 210.62 442.57 211.645 443.254 212.967C443.983 214.288 444.439 215.268 444.621 215.906C444.621 216.818 444.439 217.273 444.074 217.273ZM386.652 143.172C386.652 145.906 386.675 147.934 386.721 149.256C386.766 150.577 387.017 152.309 387.473 154.451C387.928 156.593 388.612 158.12 389.523 159.031C391.438 159.031 393.238 158.826 394.924 158.416C396.656 158.006 398.319 157.345 399.914 156.434C401.509 155.522 402.762 154.178 403.674 152.4C404.631 150.577 405.109 148.413 405.109 145.906C405.109 144.493 404.859 143.263 404.357 142.215C403.856 141.121 403.127 140.255 402.17 139.617C401.213 138.979 400.256 138.478 399.299 138.113C398.387 137.703 397.248 137.43 395.881 137.293C394.559 137.111 393.511 136.997 392.736 136.951C391.962 136.906 391.027 136.883 389.934 136.883H388.293C387.609 137.202 387.154 137.84 386.926 138.797C386.743 139.754 386.652 141.212 386.652 143.172ZM446.262 165.594V158.074C446.717 151.694 448.107 145.883 450.432 140.643C452.756 135.356 455.695 130.913 459.25 127.312C462.85 123.712 466.997 120.682 471.691 118.221C476.385 115.714 481.285 113.891 486.389 112.752C491.538 111.613 496.848 111.043 502.316 111.043C505.324 111.043 508.446 111.294 511.682 111.795C514.963 112.296 518.426 113.094 522.072 114.188C525.718 115.281 529.204 116.899 532.531 119.041C535.904 121.137 538.684 123.621 540.871 126.492C545.383 132.007 548.641 137.794 550.646 143.855C552.697 149.871 553.723 156.57 553.723 163.953C553.859 179.357 550.487 191.753 543.605 201.141L540.598 205.242C537.954 208.888 534.172 211.941 529.25 214.402C524.328 216.818 519.406 218.481 514.484 219.393C509.562 220.35 504.595 220.828 499.582 220.828C493.703 220.828 488.28 220.236 483.312 219.051C478.345 217.866 474.061 216.271 470.461 214.266C466.861 212.26 463.648 209.822 460.822 206.951C457.997 204.08 455.673 201.049 453.85 197.859C452.072 194.669 450.591 191.206 449.406 187.469C448.267 183.732 447.447 180.086 446.945 176.531C446.49 172.977 446.262 169.331 446.262 165.594ZM500.676 138.523C498.807 138.523 497.121 138.956 495.617 139.822C494.159 140.688 492.951 141.736 491.994 142.967C491.083 144.197 490.285 145.861 489.602 147.957C488.918 150.008 488.417 151.876 488.098 153.562C487.779 155.203 487.528 157.299 487.346 159.852C487.163 162.358 487.049 164.318 487.004 165.73C487.004 167.098 487.004 168.875 487.004 171.062C487.004 173.159 487.072 175.164 487.209 177.078C487.391 178.947 487.733 180.952 488.234 183.094C488.781 185.19 489.465 187.036 490.285 188.631C491.151 190.18 492.313 191.502 493.771 192.596C495.275 193.644 496.984 194.214 498.898 194.305C500.904 194.305 502.681 193.986 504.23 193.348C505.78 192.664 507.079 191.821 508.127 190.818C509.175 189.77 510.064 188.38 510.793 186.648C511.522 184.917 512.069 183.253 512.434 181.658C512.844 180.063 513.14 178.081 513.322 175.711C513.55 173.341 513.687 171.313 513.732 169.627C513.778 167.895 513.801 165.73 513.801 163.133C513.801 161.219 513.732 159.441 513.596 157.801C513.505 156.16 513.322 154.337 513.049 152.332C512.775 150.327 512.32 148.572 511.682 147.068C511.044 145.519 510.269 144.083 509.357 142.762C508.446 141.395 507.238 140.346 505.734 139.617C504.276 138.888 502.59 138.523 500.676 138.523ZM606.77 221.102C601.392 220.874 596.561 220.395 592.277 219.666C587.993 218.982 583.846 217.866 579.836 216.316C575.871 214.721 572.521 212.739 569.787 210.369C567.098 207.954 564.842 204.878 563.02 201.141C561.242 197.404 560.148 193.074 559.738 188.152C559.738 187.286 560.194 186.785 561.105 186.648C561.379 186.74 561.835 186.785 562.473 186.785C566.255 186.785 571.997 186.694 579.699 186.512C587.401 186.329 593.143 186.238 596.926 186.238C597.883 186.238 598.635 186.557 599.182 187.195C599.729 187.788 600.161 188.54 600.48 189.451C600.845 190.317 601.255 191.206 601.711 192.117C602.212 192.983 603.033 193.735 604.172 194.373C605.357 194.965 606.861 195.262 608.684 195.262C610.917 195.262 612.876 194.646 614.562 193.416C616.294 192.14 617.16 190.431 617.16 188.289C617.16 186.876 616.431 185.577 614.973 184.393C613.514 183.208 611.577 182.251 609.162 181.521C606.792 180.747 604.514 180.109 602.326 179.607C600.184 179.061 597.974 178.605 595.695 178.24C593.417 177.83 592.095 177.579 591.73 177.488C580.656 174.48 572.681 170.743 567.805 166.277C562.974 161.811 560.559 155.704 560.559 147.957C560.559 142.488 561.561 137.589 563.566 133.26C565.572 128.885 568.192 125.33 571.428 122.596C574.663 119.816 578.492 117.514 582.912 115.691C587.333 113.823 591.799 112.524 596.311 111.795C600.822 111.02 605.493 110.633 610.324 110.633C623.13 110.633 633.339 113.003 640.949 117.742C643.729 120.522 645.757 122.641 647.033 124.1C648.355 125.512 649.608 127.176 650.793 129.09C652.023 131.004 652.867 132.895 653.322 134.764C653.824 136.587 654.165 138.842 654.348 141.531L651.887 143.992C642.544 144.357 632.062 144.539 620.441 144.539C618.983 144.539 617.798 144.38 616.887 144.061C616.021 143.742 615.428 143.331 615.109 142.83C614.836 142.329 614.54 141.805 614.221 141.258C613.947 140.711 613.674 140.187 613.4 139.686C613.173 139.184 612.648 138.774 611.828 138.455C611.053 138.136 610.005 137.977 608.684 137.977C608.319 137.977 607.727 138.045 606.906 138.182C606.132 138.318 605.197 138.546 604.104 138.865C603.055 139.139 602.144 139.594 601.369 140.232C600.594 140.825 600.207 141.531 600.207 142.352C600.207 143.354 600.708 144.266 601.711 145.086C602.759 145.906 603.853 146.499 604.992 146.863C606.132 147.228 607.544 147.638 609.23 148.094C610.917 148.504 611.965 148.777 612.375 148.914C622.31 151.421 628.234 152.97 630.148 153.562C640.129 156.707 647.193 160.831 651.34 165.936C655.168 170.675 657.082 176.622 657.082 183.777C657.082 188.107 656.512 192.049 655.373 195.604C654.279 199.158 652.821 202.166 650.998 204.627C649.175 207.088 646.896 209.275 644.162 211.189C641.428 213.104 638.648 214.63 635.822 215.77C633.042 216.909 629.875 217.866 626.32 218.641C622.766 219.415 619.484 219.962 616.477 220.281C613.514 220.646 610.279 220.919 606.77 221.102ZM708.215 221.102C702.837 220.874 698.007 220.395 693.723 219.666C689.439 218.982 685.292 217.866 681.281 216.316C677.316 214.721 673.967 212.739 671.232 210.369C668.544 207.954 666.288 204.878 664.465 201.141C662.688 197.404 661.594 193.074 661.184 188.152C661.184 187.286 661.639 186.785 662.551 186.648C662.824 186.74 663.28 186.785 663.918 186.785C667.701 186.785 673.443 186.694 681.145 186.512C688.846 186.329 694.589 186.238 698.371 186.238C699.328 186.238 700.08 186.557 700.627 187.195C701.174 187.788 701.607 188.54 701.926 189.451C702.29 190.317 702.701 191.206 703.156 192.117C703.658 192.983 704.478 193.735 705.617 194.373C706.802 194.965 708.306 195.262 710.129 195.262C712.362 195.262 714.322 194.646 716.008 193.416C717.74 192.14 718.605 190.431 718.605 188.289C718.605 186.876 717.876 185.577 716.418 184.393C714.96 183.208 713.023 182.251 710.607 181.521C708.238 180.747 705.959 180.109 703.771 179.607C701.63 179.061 699.419 178.605 697.141 178.24C694.862 177.83 693.54 177.579 693.176 177.488C682.102 174.48 674.126 170.743 669.25 166.277C664.419 161.811 662.004 155.704 662.004 147.957C662.004 142.488 663.007 137.589 665.012 133.26C667.017 128.885 669.637 125.33 672.873 122.596C676.109 119.816 679.937 117.514 684.357 115.691C688.778 113.823 693.244 112.524 697.756 111.795C702.268 111.02 706.939 110.633 711.77 110.633C724.576 110.633 734.784 113.003 742.395 117.742C745.174 120.522 747.202 122.641 748.479 124.1C749.8 125.512 751.053 127.176 752.238 129.09C753.469 131.004 754.312 132.895 754.768 134.764C755.269 136.587 755.611 138.842 755.793 141.531L753.332 143.992C743.99 144.357 733.508 144.539 721.887 144.539C720.428 144.539 719.243 144.38 718.332 144.061C717.466 143.742 716.874 143.331 716.555 142.83C716.281 142.329 715.985 141.805 715.666 141.258C715.393 140.711 715.119 140.187 714.846 139.686C714.618 139.184 714.094 138.774 713.273 138.455C712.499 138.136 711.451 137.977 710.129 137.977C709.764 137.977 709.172 138.045 708.352 138.182C707.577 138.318 706.643 138.546 705.549 138.865C704.501 139.139 703.589 139.594 702.814 140.232C702.04 140.825 701.652 141.531 701.652 142.352C701.652 143.354 702.154 144.266 703.156 145.086C704.204 145.906 705.298 146.499 706.438 146.863C707.577 147.228 708.99 147.638 710.676 148.094C712.362 148.504 713.41 148.777 713.82 148.914C723.755 151.421 729.68 152.97 731.594 153.562C741.574 156.707 748.638 160.831 752.785 165.936C756.613 170.675 758.527 176.622 758.527 183.777C758.527 188.107 757.958 192.049 756.818 195.604C755.725 199.158 754.266 202.166 752.443 204.627C750.62 207.088 748.342 209.275 745.607 211.189C742.873 213.104 740.093 214.63 737.268 215.77C734.488 216.909 731.32 217.866 727.766 218.641C724.211 219.415 720.93 219.962 717.922 220.281C714.96 220.646 711.724 220.919 708.215 221.102ZM766.184 214.539V211.941C766.184 204.148 766.275 192.641 766.457 177.42C766.639 162.199 766.73 150.691 766.73 142.898V114.598H846.301V137.02C846.301 137.156 846.301 137.498 846.301 138.045C846.301 138.592 846.301 138.956 846.301 139.139C846.301 139.321 846.278 139.663 846.232 140.164C846.187 140.62 846.096 140.939 845.959 141.121C845.868 141.303 845.708 141.577 845.48 141.941C845.298 142.26 845.07 142.488 844.797 142.625C844.523 142.762 844.159 142.898 843.703 143.035C843.247 143.126 842.746 143.172 842.199 143.172H840.285C828.482 143.172 817.727 142.99 808.02 142.625C807.928 143.354 807.769 144.493 807.541 146.043C807.359 147.547 807.199 148.891 807.062 150.076C806.971 151.215 806.926 152.332 806.926 153.426H839.465C840.832 153.426 841.743 153.608 842.199 153.973C842.655 154.337 842.883 154.93 842.883 155.75C842.883 155.978 842.86 156.342 842.814 156.844C842.769 157.345 842.746 157.71 842.746 157.938C842.746 160.125 842.814 163.361 842.951 167.645C843.088 171.928 843.156 175.164 843.156 177.352C843.02 178.263 842.655 178.719 842.062 178.719C841.789 178.719 841.561 178.628 841.379 178.445C826.978 179.174 816.314 179.539 809.387 179.539H807.609V189.383C811.665 189.383 817.521 189.201 825.178 188.836C832.88 188.471 838.645 188.289 842.473 188.289C845.48 188.289 847.212 188.927 847.668 190.203V195.398C847.668 197.586 847.714 200.822 847.805 205.105C847.896 209.389 847.941 212.625 847.941 214.812C847.941 217.091 847.03 218.23 845.207 218.23C842.837 218.23 839.191 218.208 834.27 218.162C829.348 218.117 825.611 218.094 823.059 218.094C816.496 218.094 807.108 218.253 794.895 218.572C782.681 218.937 773.84 219.142 768.371 219.188L766.457 217C766.275 215.724 766.184 214.904 766.184 214.539ZM856.145 125.672C856.145 118.243 856.919 114.096 858.469 113.23C858.924 113.322 859.562 113.367 860.383 113.367H862.57C863.983 113.367 866.307 113.322 869.543 113.23C872.779 113.139 875.24 113.094 876.926 113.094C883.397 113.094 888.615 113.367 892.58 113.914C896.59 114.415 898.846 115.372 899.348 116.785L898.527 187.332H900.031C903.677 187.15 906.229 187.081 907.688 187.127C909.146 187.127 911.812 187.218 915.686 187.4C919.605 187.537 923.365 187.605 926.965 187.605C929.927 187.605 932.115 187.788 933.527 188.152C934.986 188.471 935.715 189.155 935.715 190.203V216.453C935.122 218.094 924.96 218.914 905.227 218.914H857.922C856.828 217.319 856.281 214.767 856.281 211.258V191.844C856.281 186.147 856.327 177.716 856.418 166.551C856.509 155.385 856.555 146.954 856.555 141.258C856.555 140.21 856.486 137.885 856.35 134.285C856.213 130.685 856.145 127.814 856.145 125.672ZM162.219 364.656C161.112 374.422 158.54 383.081 154.504 390.633C150.467 398.12 145.292 404.24 138.977 408.992C132.661 413.68 125.467 417.228 117.395 419.637C109.387 422.046 100.63 423.25 91.125 423.25C82.2708 423.25 74.1979 422.273 66.9062 420.32C59.6146 418.432 53.4622 415.893 48.4492 412.703C43.4362 409.513 39.0091 405.639 35.168 401.082C31.3268 396.46 28.2669 391.74 25.9883 386.922C23.7096 382.039 21.8542 376.733 20.4219 371.004C19.0547 365.21 18.1107 359.839 17.5898 354.891C17.1341 349.878 16.9062 344.669 16.9062 339.266V330.672C17.5573 321.167 19.7708 312.638 23.5469 305.086C27.3229 297.469 31.9128 291.349 37.3164 286.727C42.7201 282.039 48.9049 278.165 55.8711 275.105C62.8372 271.98 69.6081 269.832 76.1836 268.66C82.7591 267.423 89.3021 266.805 95.8125 266.805C106.294 266.805 115.539 268.074 123.547 270.613C131.62 273.087 138.195 276.603 143.273 281.16C148.352 285.717 152.323 290.958 155.188 296.883C158.052 302.742 159.875 309.318 160.656 316.609V325.984C160.656 328.068 153.495 329.109 139.172 329.109C135.786 329.109 131.066 329.044 125.012 328.914C119.022 328.784 115.083 328.719 113.195 328.719C112.87 328.719 112.382 328.751 111.73 328.816C111.079 328.882 110.591 328.914 110.266 328.914C108.573 328.914 107.271 328.23 106.359 326.863C105.513 325.431 104.927 323.706 104.602 321.688C104.341 319.669 103.983 317.651 103.527 315.633C103.137 313.615 102.258 311.922 100.891 310.555C99.5885 309.122 97.7656 308.406 95.4219 308.406C93.0781 308.406 91.0273 308.797 89.2695 309.578C87.5117 310.359 86.112 311.596 85.0703 313.289C84.0286 314.917 83.1497 316.577 82.4336 318.27C81.7826 319.962 81.2943 322.176 80.9688 324.91C80.7083 327.579 80.513 329.858 80.3828 331.746C80.3177 333.569 80.2526 336.043 80.1875 339.168C80.1224 342.228 80.0573 344.474 79.9922 345.906C79.9922 346.688 79.9271 348.12 79.7969 350.203C79.6667 352.286 79.6016 353.979 79.6016 355.281C79.6016 371.492 83.8984 379.826 92.4922 380.281C94.8359 380.281 96.7565 379.435 98.2539 377.742C99.7513 376.049 100.76 374.161 101.281 372.078C101.867 369.995 102.518 367.814 103.234 365.535C103.951 363.191 104.732 361.596 105.578 360.75H158.703C160.852 360.945 162.023 362.247 162.219 364.656ZM160.266 417C164.302 402.091 168.762 386.954 173.645 371.59C178.527 356.225 184.582 337.866 191.809 316.512C199.1 295.092 204.081 280.281 206.75 272.078C207.531 270.776 208.052 269.995 208.312 269.734H224.719C228.56 269.734 234.224 269.669 241.711 269.539C249.198 269.409 254.862 269.344 258.703 269.344H275.109C276.086 269.344 276.9 269.376 277.551 269.441C278.202 269.441 278.983 269.507 279.895 269.637C280.806 269.767 281.522 269.962 282.043 270.223C282.629 270.483 283.117 270.874 283.508 271.395C283.898 271.915 284.094 272.534 284.094 273.25L329.113 415.926C329.113 417.228 328.625 418.107 327.648 418.562C326.737 419.083 324.979 419.344 322.375 419.344H313.391C310.786 419.344 306.913 419.376 301.77 419.441C296.626 419.507 292.753 419.539 290.148 419.539C289.367 419.539 287.772 419.572 285.363 419.637C283.02 419.767 281.034 419.799 279.406 419.734C277.779 419.734 275.956 419.637 273.938 419.441C271.984 419.311 270.389 418.953 269.152 418.367C267.98 417.846 267.232 417.13 266.906 416.219V409.773C266.255 406.518 265.116 403.523 263.488 400.789C261.861 398.055 260.135 396.688 258.312 396.688H224.719L219.641 417.391C218.924 418.953 215.279 419.734 208.703 419.734H200.891C198.091 419.734 193.924 419.832 188.391 420.027C182.857 420.223 178.69 420.32 175.891 420.32H173.156C172.115 420.32 170.454 420.353 168.176 420.418C165.962 420.483 164.237 420.516 163 420.516C162.479 419.995 161.568 418.823 160.266 417ZM228.039 357.723L230.773 362.312H237.219C242.427 362.312 247.18 362.02 251.477 361.434C255.839 360.783 258.02 359.773 258.02 358.406L245.422 302.156C244.25 302.156 242.655 304.37 240.637 308.797C238.684 313.224 237.089 318.237 235.852 323.836L228.039 357.723ZM332.922 419.539C333.182 400.594 333.638 386.727 334.289 377.938C334.289 350.594 334.68 322.859 335.461 294.734C335.201 289.266 335.07 285.229 335.07 282.625V279.695C334.81 276.831 334.68 274.487 334.68 272.664C334.68 271.427 335.266 270.32 336.438 269.344C347.115 270.125 363.391 270.516 385.266 270.516C390.474 270.516 394.055 270.385 396.008 270.125V419.539H332.922ZM417.297 403.719V273.641C417.297 273.185 417.492 272.794 417.883 272.469C418.339 272.143 419.022 271.915 419.934 271.785C420.845 271.655 421.626 271.557 422.277 271.492C422.993 271.427 423.97 271.395 425.207 271.395C426.509 271.329 427.388 271.297 427.844 271.297H507.141C513.651 271.297 519.803 272.339 525.598 274.422C531.392 276.44 536.535 279.402 541.027 283.309C545.52 287.215 549.068 292.26 551.672 298.445C554.276 304.63 555.578 311.596 555.578 319.344C555.578 325.073 554.895 330.314 553.527 335.066C552.225 339.819 550.467 343.888 548.254 347.273C546.105 350.594 543.436 353.589 540.246 356.258C537.121 358.927 533.898 361.076 530.578 362.703C527.323 364.331 523.71 365.73 519.738 366.902C515.767 368.009 512.089 368.823 508.703 369.344C505.383 369.865 501.867 370.255 498.156 370.516H479.406C478.885 380.737 478.625 392.195 478.625 404.891V415.828C478.43 418.172 477.323 419.344 475.305 419.344H419.836C418.143 414.852 417.297 409.643 417.297 403.719ZM472.375 335.359L475.5 339.656C478.169 339.656 480.708 339.461 483.117 339.07C485.591 338.68 488 337.996 490.344 337.02C492.688 336.043 494.706 334.806 496.398 333.309C498.091 331.746 499.458 329.793 500.5 327.449C501.542 325.04 502.062 322.339 502.062 319.344C502.062 317.065 501.737 315.047 501.086 313.289C500.5 311.466 499.751 310.001 498.84 308.895C497.993 307.723 496.789 306.714 495.227 305.867C493.729 305.021 492.297 304.402 490.93 304.012C489.628 303.556 487.935 303.23 485.852 303.035C483.833 302.775 482.141 302.645 480.773 302.645C479.471 302.579 477.779 302.547 475.695 302.547C473.482 303.589 472.375 314.526 472.375 335.359ZM564.172 419.539C564.432 400.594 564.888 386.727 565.539 377.938C565.539 350.594 565.93 322.859 566.711 294.734C566.451 289.266 566.32 285.229 566.32 282.625V279.695C566.06 276.831 565.93 274.487 565.93 272.664C565.93 271.427 566.516 270.32 567.688 269.344C578.365 270.125 594.641 270.516 616.516 270.516C621.724 270.516 625.305 270.385 627.258 270.125V419.539H564.172ZM789.953 417.391C788.521 418.823 785.493 419.669 780.871 419.93C776.314 420.19 770.682 420.125 763.977 419.734C757.271 419.344 753.69 419.148 753.234 419.148C748.807 419.148 745.617 419.083 743.664 418.953H733.898C732.466 418.497 731.262 416.382 730.285 412.605C729.309 408.764 728.332 403.296 727.355 396.199C726.444 389.038 725.956 385.229 725.891 384.773C725.63 378.328 724.589 374.096 722.766 372.078C720.943 369.995 717.622 368.953 712.805 368.953H708.508V416.609C708.378 417.391 707.694 418.042 706.457 418.562C705.22 419.083 703.43 419.409 701.086 419.539C698.807 419.734 696.757 419.832 694.934 419.832C693.176 419.897 690.832 419.897 687.902 419.832C684.973 419.767 683.182 419.734 682.531 419.734H668.469C660.526 419.734 654.536 419.799 650.5 419.93C649.589 419.539 648.677 419.083 647.766 418.562V272.859C647.766 271.036 650.37 270.125 655.578 270.125H740.734C755.513 270.516 766.743 274.031 774.426 280.672C782.173 287.312 786.047 296.688 786.047 308.797C786.047 324.552 778.104 336.076 762.219 343.367C765.148 344.279 767.785 345.548 770.129 347.176C772.473 348.803 774.426 350.561 775.988 352.449C777.551 354.272 778.918 356.486 780.09 359.09C781.262 361.694 782.173 364.135 782.824 366.414C783.475 368.693 784.029 371.395 784.484 374.52C785.005 377.645 785.363 380.346 785.559 382.625C785.754 384.904 785.982 387.638 786.242 390.828C786.568 393.953 786.828 396.427 787.023 398.25V406.844C787.219 407.885 787.805 409.35 788.781 411.238C789.823 413.126 790.474 414.526 790.734 415.438C790.734 416.74 790.474 417.391 789.953 417.391ZM707.922 311.531C707.922 315.438 707.954 318.335 708.02 320.223C708.085 322.111 708.443 324.585 709.094 327.645C709.745 330.704 710.721 332.885 712.023 334.188C714.758 334.188 717.329 333.895 719.738 333.309C722.212 332.723 724.589 331.779 726.867 330.477C729.146 329.174 730.936 327.254 732.238 324.715C733.605 322.111 734.289 319.018 734.289 315.438C734.289 313.419 733.931 311.661 733.215 310.164C732.499 308.602 731.457 307.365 730.09 306.453C728.723 305.542 727.355 304.826 725.988 304.305C724.686 303.719 723.059 303.328 721.105 303.133C719.217 302.872 717.72 302.71 716.613 302.645C715.507 302.579 714.172 302.547 712.609 302.547H710.266C709.289 303.003 708.638 303.914 708.312 305.281C708.052 306.648 707.922 308.732 707.922 311.531ZM786.047 417C790.083 402.091 794.543 386.954 799.426 371.59C804.309 356.225 810.363 337.866 817.59 316.512C824.882 295.092 829.862 280.281 832.531 272.078C833.312 270.776 833.833 269.995 834.094 269.734H850.5C854.341 269.734 860.005 269.669 867.492 269.539C874.979 269.409 880.643 269.344 884.484 269.344H900.891C901.867 269.344 902.681 269.376 903.332 269.441C903.983 269.441 904.764 269.507 905.676 269.637C906.587 269.767 907.303 269.962 907.824 270.223C908.41 270.483 908.898 270.874 909.289 271.395C909.68 271.915 909.875 272.534 909.875 273.25L954.895 415.926C954.895 417.228 954.406 418.107 953.43 418.562C952.518 419.083 950.76 419.344 948.156 419.344H939.172C936.568 419.344 932.694 419.376 927.551 419.441C922.408 419.507 918.534 419.539 915.93 419.539C915.148 419.539 913.553 419.572 911.145 419.637C908.801 419.767 906.815 419.799 905.188 419.734C903.56 419.734 901.737 419.637 899.719 419.441C897.766 419.311 896.171 418.953 894.934 418.367C893.762 417.846 893.013 417.13 892.688 416.219V409.773C892.036 406.518 890.897 403.523 889.27 400.789C887.642 398.055 885.917 396.688 884.094 396.688H850.5L845.422 417.391C844.706 418.953 841.06 419.734 834.484 419.734H826.672C823.872 419.734 819.706 419.832 814.172 420.027C808.638 420.223 804.471 420.32 801.672 420.32H798.938C797.896 420.32 796.236 420.353 793.957 420.418C791.743 420.483 790.018 420.516 788.781 420.516C788.26 419.995 787.349 418.823 786.047 417ZM853.82 357.723L856.555 362.312H863C868.208 362.312 872.961 362.02 877.258 361.434C881.62 360.783 883.801 359.773 883.801 358.406L871.203 302.156C870.031 302.156 868.436 304.37 866.418 308.797C864.465 313.224 862.87 318.237 861.633 323.836L853.82 357.723Z" fill="white"/>
</g>
<defs>
<filter id="filter0_d_290_153" x="0.734375" y="110.633" width="969.16" height="357.617" filterUnits="userSpaceOnUse" color-interpolation-filters="sRGB">
<feFlood flood-opacity="0" result="BackgroundImageFix"/>
<feColorMatrix in="SourceAlpha" type="matrix" values="0 0 0 0 0 0 0 0 0 0 0 0 0 0 0 0 0 0 127 0" result="hardAlpha"/>
<feOffset dy="30"/>
<feGaussianBlur stdDeviation="7.5"/>
<feComposite in2="hardAlpha" operator="out"/>
<feColorMatrix type="matrix" values="0 0 0 0 0 0 0 0 0 0 0 0 0 0 0 0 0 0 0.25 0"/>
<feBlend mode="normal" in2="BackgroundImageFix" result="effect1_dropShadow_290_153"/>
<feBlend mode="normal" in="SourceGraphic" in2="effect1_dropShadow_290_153" result="shape"/>
</filter>
</defs>
</svg>
