<?xml version="1.0" standalone="no"?>
<!DOCTYPE svg PUBLIC "-//W3C//DTD SVG 20010904//EN"
 "http://www.w3.org/TR/2001/REC-SVG-20010904/DTD/svg10.dtd">
<svg version="1.0" xmlns="http://www.w3.org/2000/svg"
 width="256.000000pt" height="256.000000pt" viewBox="0 0 256.000000 256.000000"
 preserveAspectRatio="xMidYMid meet">

<g transform="translate(0.000000,256.000000) scale(0.100000,-0.100000)"
fill="white" stroke="none">
<path d="M1070 2515 c0 -40 -3 -45 -27 -51 -16 -4 -40 -14 -55 -22 -27 -16
-29 -15 -61 16 l-33 32 -29 -30 -29 -30 30 -31 31 -30 -21 -55 c-21 -53 -21
-54 -63 -54 l-43 0 0 -40 0 -40 40 0 c39 0 41 -2 65 -52 l24 -53 -112 -108
c-129 -124 -307 -243 -338 -226 -10 5 -30 9 -46 9 -26 0 -25 1 15 21 28 14 51
36 67 64 22 37 25 53 25 144 0 113 -11 151 -56 193 -38 35 -74 48 -134 48 -60
0 -96 -13 -134 -48 -45 -42 -56 -80 -56 -193 0 -91 3 -107 25 -144 15 -27 39
-50 64 -62 l39 -19 -46 -13 c-54 -14 -109 -67 -117 -114 -3 -18 -5 -149 -3
-292 l3 -260 174 -3 c119 -2 178 1 187 9 11 9 14 64 14 283 l0 271 117 70 c81
48 157 106 247 186 l130 116 50 -22 c48 -21 51 -25 54 -64 3 -41 4 -41 43 -41
l39 0 0 43 c0 42 1 42 54 63 l55 21 30 -31 31 -30 30 29 30 29 -30 31 -29 30
22 57 c22 58 22 58 65 58 l42 0 0 40 0 40 -45 0 c-40 0 -45 3 -51 28 -4 15
-13 38 -21 51 -14 22 -13 25 18 57 l33 34 -29 30 -29 30 -33 -32 c-32 -31 -34
-32 -61 -16 -15 8 -39 18 -54 22 -25 6 -28 11 -28 51 l0 45 -40 0 -40 0 0 -45z
m97 -136 c38 -14 83 -57 99 -96 33 -77 -1 -170 -76 -210 -46 -24 -108 -30
-141 -12 -26 13 -15 27 63 80 32 22 58 43 58 47 0 4 -11 20 -24 36 l-23 30
-81 -57 c-76 -53 -82 -56 -92 -38 -5 11 -10 35 -10 55 0 119 119 206 227 165z
m-766 -275 c20 -21 24 -38 27 -99 7 -124 -23 -170 -108 -170 -85 0 -115 46
-108 170 3 61 7 78 27 99 21 22 33 26 81 26 48 0 60 -4 81 -26z m-73 -457 c-9
-7 -24 -17 -34 -23 -17 -10 -17 -13 5 -47 l23 -37 29 21 29 20 0 -215 0 -216
-105 0 -105 0 0 220 c0 176 3 227 15 250 18 35 26 38 100 39 50 0 57 -2 43
-12z"/>
<path d="M1599 2163 c-5 -16 -11 -33 -13 -39 -3 -6 19 -22 47 -34 32 -14 79
-50 121 -92 l68 -68 34 21 34 21 -30 38 c-49 62 -127 127 -185 155 -30 14 -56
25 -60 25 -3 0 -10 -12 -16 -27z"/>
<path d="M2181 2170 c-40 -10 -77 -36 -105 -74 -19 -24 -21 -42 -21 -155 0
-123 1 -129 27 -163 15 -19 42 -42 60 -51 25 -13 28 -17 13 -17 -11 0 -31 -7
-43 -16 -21 -14 -22 -22 -22 -153 l0 -137 -77 -70 c-43 -39 -84 -74 -90 -78
-8 -4 -86 34 -193 93 -99 56 -193 101 -208 102 -24 0 -23 2 13 15 22 8 44 19
49 24 7 7 22 -1 43 -22 l33 -32 30 29 30 29 -30 31 -30 31 22 52 c22 51 23 52
65 52 l43 0 0 45 0 45 -45 0 c-30 0 -45 4 -45 13 0 7 -9 30 -20 52 l-20 39 32
33 32 33 -24 25 c-29 31 -37 31 -71 -1 l-28 -26 -55 23 c-56 23 -56 23 -56 66
l0 43 -40 0 -40 0 0 -45 c0 -35 -4 -47 -17 -51 -10 -3 -35 -13 -56 -21 -37
-16 -38 -16 -67 12 l-30 29 -30 -29 -30 -29 31 -32 c30 -31 31 -34 17 -56 -8
-13 -18 -35 -22 -50 -6 -25 -11 -28 -51 -28 l-45 0 0 -45 0 -45 43 0 c42 0 43
-1 65 -52 l22 -52 -30 -31 -30 -31 30 -29 30 -29 33 32 c30 29 34 30 57 16 14
-7 37 -18 53 -24 23 -8 27 -15 27 -50 l0 -40 53 0 c47 0 69 -10 252 -110 110
-60 203 -110 207 -110 9 0 118 91 137 113 7 10 17 17 22 17 5 0 9 -51 9 -114
0 -151 -6 -146 193 -146 83 0 157 5 168 10 18 10 19 24 19 283 0 258 -1 274
-21 306 -27 44 -57 68 -94 77 -47 10 -49 15 -15 32 17 8 43 31 58 50 24 32 27
45 30 134 2 55 1 115 -2 134 -8 39 -47 89 -86 109 -35 18 -116 26 -159 15z
m133 -101 c14 -11 26 -29 26 -40 0 -16 -7 -19 -56 -19 -55 0 -124 28 -124 50
0 34 114 41 154 9z m-139 -129 c23 -15 47 -20 103 -20 80 0 83 -4 61 -69 -13
-36 -53 -61 -99 -61 -71 0 -110 47 -110 131 0 45 4 46 45 19z m-683 -70 c108
-30 160 -149 105 -244 -33 -58 -67 -79 -134 -83 -92 -6 -163 46 -179 133 -15
79 34 162 111 189 49 17 51 17 97 5z m869 -279 l29 -29 0 -226 0 -226 -105 0
-105 0 0 128 -1 127 76 70 75 70 -26 33 -27 33 -31 -28 c-68 -63 -66 -63 -66
11 l0 66 76 0 c70 0 78 -2 105 -29z"/>
<path d="M943 1651 c4 -33 15 -82 26 -110 23 -62 69 -141 81 -141 5 0 21 11
36 23 l28 24 -21 29 c-25 35 -63 143 -63 178 0 46 -10 56 -52 56 l-41 0 6 -59z"/>
<path d="M1875 1673 c-3 -21 -10 -54 -15 -74 -6 -20 -10 -42 -10 -48 0 -11 68
-46 75 -39 9 9 35 131 35 162 0 35 -1 36 -40 36 -38 0 -39 -1 -45 -37z"/>
<path d="M1333 1252 c-10 -37 -9 -41 11 -46 11 -3 40 -6 64 -6 l42 0 0 40 c0
31 -4 40 -17 40 -10 0 -34 3 -54 6 -35 6 -36 5 -46 -34z"/>
<path d="M113 1023 c-13 -2 -23 -10 -23 -16 0 -7 18 -111 40 -232 l40 -220
-87 -261 c-74 -223 -85 -264 -74 -278 11 -13 34 -16 107 -16 l94 0 0 45 0 45
-50 0 c-27 0 -50 3 -50 8 0 4 32 102 70 217 39 115 70 225 70 244 0 29 -37
249 -71 419 -11 54 -13 55 -66 45z"/>
<path d="M413 1023 c-30 -6 -30 -8 17 -253 l39 -205 -87 -263 c-69 -208 -85
-266 -76 -280 9 -14 29 -18 108 -20 l96 -3 0 46 0 45 -54 0 -54 0 74 222 c41
122 74 234 74 248 0 14 -18 124 -40 245 -22 121 -40 221 -40 222 0 4 -28 2
-57 -4z"/>
<path d="M2090 988 c0 -3 -18 -94 -40 -203 -22 -109 -40 -210 -40 -225 0 -14
33 -126 74 -248 l74 -222 -54 0 -54 0 0 -45 0 -46 96 3 c79 2 99 6 108 20 9
14 -7 71 -75 277 l-87 259 41 201 c24 119 36 205 31 210 -10 9 -74 25 -74 19z"/>
<path d="M2390 987 c0 -2 -18 -93 -40 -202 -22 -109 -40 -213 -40 -230 0 -17
32 -125 70 -240 39 -115 70 -213 70 -217 0 -5 -22 -8 -50 -8 l-50 0 0 -45 0
-45 95 0 c136 0 135 -13 30 300 l-85 255 41 204 c22 112 37 207 32 211 -8 7
-73 22 -73 17z"/>
</g>
</svg>
